# MagicaVoxel @ Ephtracy

# group
o 

# material
mtllib notepadOn.mtl
usemtl palette

# normals
vn -1 0 0
vn 1 0 0
vn 0 0 1
vn 0 0 -1
vn 0 -1 0
vn 0 1 0

# texcoords
vt 0.908203 0.5
vt 0.939453 0.5
vt 0.947266 0.5
vt 0.970703 0.5
vt 0.990234 0.5
vt 0.994141 0.5

# verts
v -1.5 -0.0999999 1.1
v -1.5 -0.0999999 -0.9
v -1.5 7.45058e-08 0.8
v -1.5 7.45058e-08 0.7
v -1.5 7.45058e-08 -0.2
v -1.5 7.45058e-08 -0.4
v -1.5 7.45058e-08 -0.5
v -1.5 7.45058e-08 -0.7
v -1.5 0.1 0.8
v -1.5 0.1 0.7
v -1.5 0.1 -0.2
v -1.5 0.1 -0.4
v -1.5 0.1 -0.5
v -1.5 0.1 -0.7
v -1.5 0.2 1.1
v -1.5 0.2 -0.7
v -1.5 2 -0.7
v -1.5 2 -0.9
v -1.4 7.45058e-08 0.8
v -1.4 7.45058e-08 0.7
v -1.4 7.45058e-08 -0.2
v -1.4 7.45058e-08 -0.4
v -1.4 0.1 0.8
v -1.4 0.1 0.7
v -1.4 0.1 -0.2
v -1.4 0.1 -0.4
v -1.3 7.45058e-08 -0.5
v -1.3 7.45058e-08 -0.7
v -1.3 0.1 -0.5
v -1.3 0.1 -0.7
v 1.4 7.45058e-08 0.8
v 1.4 7.45058e-08 0.6
v 1.4 7.45058e-08 0.5
v 1.4 7.45058e-08 0.3
v 1.4 7.45058e-08 -0.6
v 1.4 7.45058e-08 -0.7
v 1.4 0.1 0.8
v 1.4 0.1 0.6
v 1.4 0.1 0.5
v 1.4 0.1 0.3
v 1.4 0.1 -0.6
v 1.4 0.1 -0.7
v 1.5 -0.0999999 1.1
v 1.5 -0.0999999 -0.9
v 1.5 7.45058e-08 0.8
v 1.5 7.45058e-08 0.6
v 1.5 7.45058e-08 0.5
v 1.5 7.45058e-08 0.3
v 1.5 7.45058e-08 -0.6
v 1.5 7.45058e-08 -0.7
v 1.5 0.1 0.8
v 1.5 0.1 0.6
v 1.5 0.1 0.5
v 1.5 0.1 0.3
v 1.5 0.1 -0.6
v 1.5 0.1 -0.7
v 1.5 0.2 1.1
v 1.5 0.2 -0.7
v 1.5 2 -0.7
v 1.5 2 -0.9
v -1.5 -0.0999999 1.1
v -1.5 0.2 1.1
v 1.5 -0.0999999 1.1
v 1.5 0.2 1.1
v -1.5 7.45058e-08 0.7
v -1.5 0.1 0.7
v -1.4 7.45058e-08 0.7
v -1.4 0.1 0.7
v 1.4 7.45058e-08 0.6
v 1.4 0.1 0.6
v 1.5 7.45058e-08 0.6
v 1.5 0.1 0.6
v 1.4 7.45058e-08 0.3
v 1.4 0.1 0.3
v 1.5 7.45058e-08 0.3
v 1.5 0.1 0.3
v -1.5 7.45058e-08 -0.4
v -1.5 0.1 -0.4
v -1.4 7.45058e-08 -0.4
v -1.4 0.1 -0.4
v -1.5 7.45058e-08 -0.7
v -1.5 0.1 -0.7
v -1.5 0.2 -0.7
v -1.5 2 -0.7
v -1.4 0.3 -0.7
v -1.4 1.9 -0.7
v -1.3 7.45058e-08 -0.7
v -1.3 0.1 -0.7
v -1.3 0.4 -0.7
v -1.3 0.5 -0.7
v -1.3 0.6 -0.7
v -1.3 1.7 -0.7
v -1.1 0.6 -0.7
v -1.1 1.1 -0.7
v -1.1 1.2 -0.7
v -1.1 1.6 -0.7
v -0.9 1 -0.7
v -0.9 1.1 -0.7
v -0.9 1.2 -0.7
v -0.9 1.3 -0.7
v -0.9 1.5 -0.7
v -0.9 1.6 -0.7
v -0.8 0.9 -0.7
v -0.8 1 -0.7
v -0.8 1.1 -0.7
v -0.8 1.2 -0.7
v -0.8 1.4 -0.7
v -0.8 1.5 -0.7
v -0.8 1.6 -0.7
v -0.8 1.7 -0.7
v -0.7 0.6 -0.7
v -0.7 0.9 -0.7
v -0.7 1 -0.7
v -0.7 1.1 -0.7
v -0.7 1.3 -0.7
v -0.7 1.4 -0.7
v -0.7 1.5 -0.7
v -0.7 1.6 -0.7
v -0.6 0.9 -0.7
v -0.6 1 -0.7
v -0.6 1.2 -0.7
v -0.6 1.5 -0.7
v -0.5 0.6 -0.7
v -0.5 0.9 -0.7
v -0.3 0.7 -0.7
v -0.3 1.7 -0.7
v -0.2 0.6 -0.7
v -0.2 0.7 -0.7
v -0.1 0.8 -0.7
v -0.1 1.7 -0.7
v 0.2 0.8 -0.7
v 0.2 1.7 -0.7
v 0.3 0.6 -0.7
v 0.3 0.7 -0.7
v 0.4 0.7 -0.7
v 0.4 1.7 -0.7
v 0.6 0.6 -0.7
v 0.6 1.7 -0.7
v 0.8 0.6 -0.7
v 0.8 1.2 -0.7
v 0.8 1.5 -0.7
v 0.8 1.7 -0.7
v 0.9 1 -0.7
v 0.9 1.2 -0.7
v 0.9 1.3 -0.7
v 0.9 1.5 -0.7
v 1 0.8 -0.7
v 1 1 -0.7
v 1 1.1 -0.7
v 1 1.3 -0.7
v 1.1 0.6 -0.7
v 1.1 0.8 -0.7
v 1.1 1.1 -0.7
v 1.1 1.7 -0.7
v 1.3 0.4 -0.7
v 1.3 0.5 -0.7
v 1.3 0.6 -0.7
v 1.3 1.7 -0.7
v 1.4 7.45058e-08 -0.7
v 1.4 0.1 -0.7
v 1.4 0.3 -0.7
v 1.4 1.9 -0.7
v 1.5 7.45058e-08 -0.7
v 1.5 0.1 -0.7
v 1.5 0.2 -0.7
v 1.5 2 -0.7
v -1.5 7.45058e-08 0.8
v -1.5 0.1 0.8
v -1.4 7.45058e-08 0.8
v -1.4 0.1 0.8
v 1.4 7.45058e-08 0.8
v 1.4 0.1 0.8
v 1.5 7.45058e-08 0.8
v 1.5 0.1 0.8
v 1.4 7.45058e-08 0.5
v 1.4 0.1 0.5
v 1.5 7.45058e-08 0.5
v 1.5 0.1 0.5
v -1.5 7.45058e-08 -0.2
v -1.5 0.1 -0.2
v -1.4 7.45058e-08 -0.2
v -1.4 0.1 -0.2
v -1.5 7.45058e-08 -0.5
v -1.5 0.1 -0.5
v -1.3 7.45058e-08 -0.5
v -1.3 0.1 -0.5
v 1.4 7.45058e-08 -0.6
v 1.4 0.1 -0.6
v 1.5 7.45058e-08 -0.6
v 1.5 0.1 -0.6
v -1.5 -0.0999999 -0.9
v -1.5 2 -0.9
v 1.5 -0.0999999 -0.9
v 1.5 2 -0.9
v -1.5 -0.0999999 1.1
v 1.5 -0.0999999 1.1
v -1.5 -0.0999999 -0.9
v 1.5 -0.0999999 -0.9
v -1.5 0.1 0.8
v -1.4 0.1 0.8
v 1.4 0.1 0.8
v 1.5 0.1 0.8
v -1.5 0.1 0.7
v -1.4 0.1 0.7
v 1.4 0.1 0.6
v 1.5 0.1 0.6
v 1.4 0.1 0.5
v 1.5 0.1 0.5
v 1.4 0.1 0.3
v 1.5 0.1 0.3
v -1.5 0.1 -0.2
v -1.4 0.1 -0.2
v -1.5 0.1 -0.4
v -1.4 0.1 -0.4
v -1.5 0.1 -0.5
v -1.3 0.1 -0.5
v 1.4 0.1 -0.6
v 1.5 0.1 -0.6
v -1.5 0.1 -0.7
v -1.3 0.1 -0.7
v 1.4 0.1 -0.7
v 1.5 0.1 -0.7
v -1.5 7.45058e-08 0.8
v -1.4 7.45058e-08 0.8
v 1.4 7.45058e-08 0.8
v 1.5 7.45058e-08 0.8
v -1.5 7.45058e-08 0.7
v -1.4 7.45058e-08 0.7
v 1.4 7.45058e-08 0.6
v 1.5 7.45058e-08 0.6
v 1.4 7.45058e-08 0.5
v 1.5 7.45058e-08 0.5
v 1.4 7.45058e-08 0.3
v 1.5 7.45058e-08 0.3
v -1.5 7.45058e-08 -0.2
v -1.4 7.45058e-08 -0.2
v -1.5 7.45058e-08 -0.4
v -1.4 7.45058e-08 -0.4
v -1.5 7.45058e-08 -0.5
v -1.3 7.45058e-08 -0.5
v 1.4 7.45058e-08 -0.6
v 1.5 7.45058e-08 -0.6
v -1.5 7.45058e-08 -0.7
v -1.3 7.45058e-08 -0.7
v 1.4 7.45058e-08 -0.7
v 1.5 7.45058e-08 -0.7
v -1.5 0.2 1.1
v 1.5 0.2 1.1
v -0.6 0.2 1
v -0.1 0.2 1
v 0.1 0.2 1
v 0.6 0.2 1
v -0.6 0.2 0.9
v -0.1 0.2 0.9
v 0.1 0.2 0.9
v 0.6 0.2 0.9
v -0.6 0.2 0.7
v 0.6 0.2 0.7
v -1.4 0.2 0.6
v -0.9 0.2 0.6
v -0.8 0.2 0.6
v -0.6 0.2 0.6
v -0.5 0.2 0.6
v 0.4 0.2 0.6
v 0.7 0.2 0.6
v 1.1 0.2 0.6
v 1.2 0.2 0.6
v 1.4 0.2 0.6
v -1.4 0.2 0.4
v -0.9 0.2 0.4
v -0.8 0.2 0.4
v -0.6 0.2 0.4
v -0.5 0.2 0.4
v 0.4 0.2 0.4
v 0.7 0.2 0.4
v 1.1 0.2 0.4
v 1.2 0.2 0.4
v 1.4 0.2 0.4
v -1.4 0.2 0.3
v -1.2 0.2 0.3
v -1.1 0.2 0.3
v -0.9 0.2 0.3
v -0.8 0.2 0.3
v -0.6 0.2 0.3
v -0.5 0.2 0.3
v -0.3 0.2 0.3
v -0.2 0.2 0.3
v 0 0.2 0.3
v 0.1 0.2 0.3
v 0.3 0.2 0.3
v 0.4 0.2 0.3
v 0.6 0.2 0.3
v 0.7 0.2 0.3
v 1.1 0.2 0.3
v 1.2 0.2 0.3
v 1.4 0.2 0.3
v -1.4 0.2 0.1
v -1.2 0.2 0.1
v -1.1 0.2 0.1
v -0.9 0.2 0.1
v -0.8 0.2 0.1
v -0.6 0.2 0.1
v -0.5 0.2 0.1
v -0.3 0.2 0.1
v -0.2 0.2 0.1
v 0 0.2 0.1
v 0.1 0.2 0.1
v 0.3 0.2 0.1
v 0.4 0.2 0.1
v 0.6 0.2 0.1
v 0.7 0.2 0.1
v 1.1 0.2 0.1
v 1.2 0.2 0.1
v 1.4 0.2 0.1
v -1.4 0.2 0
v -1.2 0.2 0
v -1.1 0.2 0
v -0.9 0.2 0
v -0.8 0.2 0
v -0.6 0.2 0
v -0.5 0.2 0
v -0.3 0.2 0
v -0.2 0.2 0
v 0 0.2 0
v 0.1 0.2 0
v 0.3 0.2 0
v 0.4 0.2 0
v 0.6 0.2 0
v 0.8 0.2 0
v 1 0.2 0
v 1.2 0.2 0
v 1.4 0.2 0
v 1.1 0.2 -0.1
v 1.2 0.2 -0.1
v 1.3 0.2 -0.1
v -1.4 0.2 -0.2
v -1.2 0.2 -0.2
v -1.1 0.2 -0.2
v -0.9 0.2 -0.2
v -0.8 0.2 -0.2
v -0.6 0.2 -0.2
v -0.5 0.2 -0.2
v -0.3 0.2 -0.2
v -0.2 0.2 -0.2
v 0 0.2 -0.2
v 0.1 0.2 -0.2
v 0.3 0.2 -0.2
v 0.4 0.2 -0.2
v 0.6 0.2 -0.2
v 0.9 0.2 -0.2
v 1 0.2 -0.2
v 1.1 0.2 -0.2
v -1.4 0.2 -0.3
v -1.2 0.2 -0.3
v -1.1 0.2 -0.3
v -0.9 0.2 -0.3
v -0.8 0.2 -0.3
v -0.6 0.2 -0.3
v -0.5 0.2 -0.3
v -0.3 0.2 -0.3
v -0.2 0.2 -0.3
v 0 0.2 -0.3
v 0.1 0.2 -0.3
v 0.3 0.2 -0.3
v 0.4 0.2 -0.3
v 0.6 0.2 -0.3
v 1.1 0.2 -0.3
v 1.2 0.2 -0.3
v -1.4 0.2 -0.5
v -1.2 0.2 -0.5
v -1.1 0.2 -0.5
v -0.9 0.2 -0.5
v -0.8 0.2 -0.5
v -0.6 0.2 -0.5
v -0.5 0.2 -0.5
v -0.3 0.2 -0.5
v -0.2 0.2 -0.5
v 0 0.2 -0.5
v 0.1 0.2 -0.5
v 0.3 0.2 -0.5
v 0.4 0.2 -0.5
v 0.6 0.2 -0.5
v 0.9 0.2 -0.5
v 1 0.2 -0.5
v 1.1 0.2 -0.5
v 1.2 0.2 -0.5
v 1.3 0.2 -0.5
v 0.8 0.2 -0.6
v 1 0.2 -0.6
v 1.2 0.2 -0.6
v 1.4 0.2 -0.6
v -1.5 0.2 -0.7
v 1.5 0.2 -0.7
v -1.5 2 -0.7
v 1.5 2 -0.7
v -1.5 2 -0.9
v 1.5 2 -0.9

# faces
f 3/4/1 2/4/1 1/4/1
f 4/4/1 2/4/1 3/4/1
f 5/4/1 2/4/1 4/4/1
f 6/4/1 2/4/1 5/4/1
f 7/4/1 2/4/1 6/4/1
f 8/4/1 2/4/1 7/4/1
f 9/4/1 3/4/1 1/4/1
f 10/4/1 5/4/1 4/4/1
f 11/4/1 5/4/1 10/4/1
f 12/4/1 7/4/1 6/4/1
f 13/4/1 7/4/1 12/4/1
f 14/4/1 2/4/1 8/4/1
f 15/4/1 13/4/1 12/4/1
f 15/4/1 14/4/1 13/4/1
f 15/4/1 11/4/1 10/4/1
f 15/4/1 9/4/1 1/4/1
f 15/4/1 12/4/1 11/4/1
f 15/4/1 10/4/1 9/4/1
f 16/4/1 2/4/1 14/4/1
f 16/4/1 14/4/1 15/4/1
f 17/4/1 2/4/1 16/4/1
f 18/4/1 2/4/1 17/4/1
f 23/5/1 20/5/1 19/5/1
f 24/5/1 20/5/1 23/5/1
f 25/5/1 22/5/1 21/5/1
f 26/5/1 22/5/1 25/5/1
f 29/5/1 28/5/1 27/5/1
f 30/5/1 28/5/1 29/5/1
f 31/5/2 32/5/2 37/5/2
f 37/5/2 32/5/2 38/5/2
f 33/5/2 34/5/2 39/5/2
f 39/5/2 34/5/2 40/5/2
f 35/5/2 36/5/2 41/5/2
f 41/5/2 36/5/2 42/5/2
f 43/4/2 44/4/2 45/4/2
f 45/4/2 44/4/2 46/4/2
f 46/4/2 44/4/2 47/4/2
f 47/4/2 44/4/2 48/4/2
f 48/4/2 44/4/2 49/4/2
f 49/4/2 44/4/2 50/4/2
f 43/4/2 45/4/2 51/4/2
f 46/4/2 47/4/2 52/4/2
f 52/4/2 47/4/2 53/4/2
f 48/4/2 49/4/2 54/4/2
f 54/4/2 49/4/2 55/4/2
f 50/4/2 44/4/2 56/4/2
f 54/4/2 55/4/2 57/4/2
f 55/4/2 56/4/2 57/4/2
f 52/4/2 53/4/2 57/4/2
f 43/4/2 51/4/2 57/4/2
f 53/4/2 54/4/2 57/4/2
f 51/4/2 52/4/2 57/4/2
f 56/4/2 44/4/2 58/4/2
f 57/4/2 56/4/2 58/4/2
f 58/4/2 44/4/2 59/4/2
f 59/4/2 44/4/2 60/4/2
f 63/4/3 62/4/3 61/4/3
f 64/4/3 62/4/3 63/4/3
f 67/4/3 66/4/3 65/4/3
f 68/4/3 66/4/3 67/4/3
f 71/4/3 70/4/3 69/4/3
f 72/4/3 70/4/3 71/4/3
f 75/4/3 74/4/3 73/4/3
f 76/4/3 74/4/3 75/4/3
f 79/4/3 78/4/3 77/4/3
f 80/4/3 78/4/3 79/4/3
f 85/4/3 84/4/3 83/4/3
f 86/4/3 84/4/3 85/4/3
f 87/4/3 82/4/3 81/4/3
f 88/4/3 82/4/3 87/4/3
f 89/6/3 86/6/3 85/6/3
f 90/6/3 86/6/3 89/6/3
f 91/6/3 86/6/3 90/6/3
f 92/6/3 86/6/3 91/6/3
f 93/6/3 91/6/3 90/6/3
f 93/1/3 92/1/3 91/1/3
f 94/1/3 92/1/3 93/1/3
f 95/1/3 92/1/3 94/1/3
f 96/1/3 92/1/3 95/1/3
f 97/6/3 94/6/3 93/6/3
f 98/1/3 95/1/3 94/1/3
f 98/6/3 94/6/3 97/6/3
f 99/6/3 96/6/3 95/6/3
f 99/1/3 95/1/3 98/1/3
f 100/6/3 96/6/3 99/6/3
f 101/6/3 96/6/3 100/6/3
f 102/1/3 92/1/3 96/1/3
f 102/6/3 96/6/3 101/6/3
f 103/6/3 97/6/3 93/6/3
f 104/1/3 98/1/3 97/1/3
f 104/6/3 97/6/3 103/6/3
f 104/1/3 99/1/3 98/1/3
f 104/1/3 100/1/3 99/1/3
f 105/1/3 100/1/3 104/1/3
f 106/1/3 100/1/3 105/1/3
f 107/6/3 101/6/3 100/6/3
f 108/1/3 102/1/3 101/1/3
f 108/6/3 101/6/3 107/6/3
f 109/1/3 92/1/3 102/1/3
f 109/1/3 102/1/3 108/1/3
f 110/6/3 86/6/3 92/6/3
f 110/1/3 92/1/3 109/1/3
f 111/6/3 93/6/3 90/6/3
f 111/6/3 103/6/3 93/6/3
f 112/1/3 104/1/3 103/1/3
f 112/6/3 103/6/3 111/6/3
f 112/1/3 105/1/3 104/1/3
f 113/1/3 105/1/3 112/1/3
f 114/6/3 106/6/3 105/6/3
f 114/1/3 105/1/3 113/1/3
f 115/1/3 100/1/3 106/1/3
f 115/6/3 107/6/3 100/6/3
f 116/1/3 109/1/3 108/1/3
f 116/6/3 107/6/3 115/6/3
f 116/1/3 108/1/3 107/1/3
f 117/1/3 109/1/3 116/1/3
f 118/6/3 110/6/3 109/6/3
f 118/1/3 109/1/3 117/1/3
f 119/1/3 112/1/3 111/1/3
f 119/1/3 113/1/3 112/1/3
f 120/6/3 114/6/3 113/6/3
f 120/1/3 113/1/3 119/1/3
f 121/1/3 115/1/3 106/1/3
f 121/6/3 114/6/3 120/6/3
f 121/6/3 106/6/3 114/6/3
f 121/1/3 116/1/3 115/1/3
f 121/1/3 117/1/3 116/1/3
f 122/6/3 118/6/3 117/6/3
f 122/1/3 117/1/3 121/1/3
f 123/6/3 111/6/3 90/6/3
f 123/1/3 119/1/3 111/1/3
f 124/6/3 120/6/3 119/6/3
f 124/1/3 119/1/3 123/1/3
f 124/6/3 121/6/3 120/6/3
f 124/6/3 122/6/3 121/6/3
f 125/6/3 124/6/3 123/6/3
f 126/6/3 86/6/3 110/6/3
f 126/6/3 124/6/3 125/6/3
f 126/6/3 118/6/3 122/6/3
f 126/6/3 122/6/3 124/6/3
f 126/6/3 110/6/3 118/6/3
f 127/6/3 123/6/3 90/6/3
f 127/6/3 125/6/3 123/6/3
f 128/1/3 126/1/3 125/1/3
f 128/6/3 125/6/3 127/6/3
f 129/1/3 128/1/3 127/1/3
f 129/1/3 126/1/3 128/1/3
f 130/6/3 86/6/3 126/6/3
f 130/1/3 126/1/3 129/1/3
f 131/1/3 129/1/3 127/1/3
f 131/6/3 130/6/3 129/6/3
f 132/6/3 86/6/3 130/6/3
f 132/6/3 130/6/3 131/6/3
f 133/1/3 131/1/3 127/1/3
f 133/6/3 127/6/3 90/6/3
f 133/1/3 132/1/3 131/1/3
f 134/1/3 132/1/3 133/1/3
f 135/6/3 134/6/3 133/6/3
f 135/1/3 132/1/3 134/1/3
f 136/6/3 86/6/3 132/6/3
f 136/1/3 132/1/3 135/1/3
f 137/6/3 135/6/3 133/6/3
f 137/6/3 133/6/3 90/6/3
f 137/6/3 136/6/3 135/6/3
f 138/6/3 86/6/3 136/6/3
f 138/6/3 136/6/3 137/6/3
f 139/6/3 137/6/3 90/6/3
f 139/1/3 138/1/3 137/1/3
f 140/1/3 138/1/3 139/1/3
f 141/1/3 138/1/3 140/1/3
f 142/6/3 86/6/3 138/6/3
f 142/1/3 138/1/3 141/1/3
f 143/6/3 140/6/3 139/6/3
f 144/1/3 141/1/3 140/1/3
f 144/6/3 140/6/3 143/6/3
f 145/1/3 141/1/3 144/1/3
f 146/6/3 142/6/3 141/6/3
f 146/1/3 141/1/3 145/1/3
f 147/6/3 143/6/3 139/6/3
f 148/1/3 145/1/3 144/1/3
f 148/6/3 143/6/3 147/6/3
f 148/1/3 144/1/3 143/1/3
f 149/1/3 145/1/3 148/1/3
f 150/6/3 146/6/3 145/6/3
f 150/1/3 145/1/3 149/1/3
f 151/6/3 139/6/3 90/6/3
f 151/6/3 147/6/3 139/6/3
f 152/1/3 149/1/3 148/1/3
f 152/6/3 147/6/3 151/6/3
f 152/1/3 148/1/3 147/1/3
f 153/6/3 150/6/3 149/6/3
f 153/1/3 149/1/3 152/1/3
f 154/6/3 142/6/3 146/6/3
f 154/6/3 150/6/3 153/6/3
f 154/6/3 146/6/3 150/6/3
f 154/6/3 86/6/3 142/6/3
f 155/6/3 89/6/3 85/6/3
f 155/1/3 90/1/3 89/1/3
f 156/6/3 151/6/3 90/6/3
f 156/1/3 90/1/3 155/1/3
f 157/1/3 153/1/3 152/1/3
f 157/6/3 151/6/3 156/6/3
f 157/1/3 154/1/3 153/1/3
f 157/1/3 152/1/3 151/1/3
f 158/6/3 86/6/3 154/6/3
f 158/1/3 154/1/3 157/1/3
f 161/4/3 85/4/3 83/4/3
f 161/6/3 156/6/3 155/6/3
f 161/6/3 157/6/3 156/6/3
f 161/6/3 158/6/3 157/6/3
f 161/6/3 155/6/3 85/6/3
f 162/4/3 84/4/3 86/4/3
f 162/6/3 158/6/3 161/6/3
f 162/6/3 86/6/3 158/6/3
f 163/4/3 160/4/3 159/4/3
f 164/4/3 160/4/3 163/4/3
f 165/4/3 161/4/3 83/4/3
f 165/4/3 162/4/3 161/4/3
f 166/4/3 84/4/3 162/4/3
f 166/4/3 162/4/3 165/4/3
f 167/4/4 168/4/4 169/4/4
f 169/4/4 168/4/4 170/4/4
f 171/4/4 172/4/4 173/4/4
f 173/4/4 172/4/4 174/4/4
f 175/4/4 176/4/4 177/4/4
f 177/4/4 176/4/4 178/4/4
f 179/4/4 180/4/4 181/4/4
f 181/4/4 180/4/4 182/4/4
f 183/4/4 184/4/4 185/4/4
f 185/4/4 184/4/4 186/4/4
f 187/4/4 188/4/4 189/4/4
f 189/4/4 188/4/4 190/4/4
f 191/4/4 192/4/4 193/4/4
f 193/4/4 192/4/4 194/4/4
f 197/4/5 196/4/5 195/4/5
f 198/4/5 196/4/5 197/4/5
f 203/4/5 200/4/5 199/4/5
f 204/4/5 200/4/5 203/4/5
f 205/4/5 202/4/5 201/4/5
f 206/4/5 202/4/5 205/4/5
f 209/4/5 208/4/5 207/4/5
f 210/4/5 208/4/5 209/4/5
f 213/4/5 212/4/5 211/4/5
f 214/4/5 212/4/5 213/4/5
f 219/4/5 216/4/5 215/4/5
f 220/4/5 216/4/5 219/4/5
f 221/4/5 218/4/5 217/4/5
f 222/4/5 218/4/5 221/4/5
f 223/4/6 224/4/6 227/4/6
f 227/4/6 224/4/6 228/4/6
f 225/4/6 226/4/6 229/4/6
f 229/4/6 226/4/6 230/4/6
f 231/4/6 232/4/6 233/4/6
f 233/4/6 232/4/6 234/4/6
f 235/4/6 236/4/6 237/4/6
f 237/4/6 236/4/6 238/4/6
f 239/4/6 240/4/6 243/4/6
f 243/4/6 240/4/6 244/4/6
f 241/4/6 242/4/6 245/4/6
f 245/4/6 242/4/6 246/4/6
f 247/4/6 248/4/6 249/4/6
f 249/4/6 248/4/6 250/4/6
f 250/4/6 248/4/6 251/4/6
f 251/4/6 248/4/6 252/4/6
f 247/4/6 249/4/6 253/4/6
f 249/3/6 250/3/6 253/3/6
f 250/2/6 251/2/6 254/2/6
f 253/3/6 250/3/6 254/3/6
f 251/3/6 252/3/6 255/3/6
f 254/2/6 251/2/6 255/2/6
f 252/4/6 248/4/6 256/4/6
f 255/3/6 252/3/6 256/3/6
f 254/2/6 255/2/6 257/2/6
f 253/2/6 254/2/6 257/2/6
f 255/2/6 256/2/6 257/2/6
f 247/4/6 253/4/6 257/4/6
f 256/4/6 248/4/6 258/4/6
f 257/2/6 256/2/6 258/2/6
f 247/4/6 257/4/6 259/4/6
f 257/4/6 258/4/6 259/4/6
f 259/4/6 258/4/6 260/4/6
f 260/4/6 258/4/6 261/4/6
f 261/4/6 258/4/6 262/4/6
f 262/4/6 258/4/6 263/4/6
f 263/4/6 258/4/6 264/4/6
f 258/4/6 248/4/6 265/4/6
f 264/4/6 258/4/6 265/4/6
f 265/4/6 248/4/6 266/4/6
f 266/4/6 248/4/6 267/4/6
f 267/4/6 248/4/6 268/4/6
f 247/4/6 259/4/6 269/4/6
f 259/3/6 260/3/6 269/3/6
f 260/4/6 261/4/6 270/4/6
f 269/3/6 260/3/6 270/3/6
f 261/3/6 262/3/6 271/3/6
f 270/4/6 261/4/6 271/4/6
f 262/4/6 263/4/6 272/4/6
f 271/3/6 262/3/6 272/3/6
f 263/3/6 264/3/6 273/3/6
f 272/4/6 263/4/6 273/4/6
f 264/4/6 265/4/6 274/4/6
f 273/3/6 264/3/6 274/3/6
f 265/3/6 266/3/6 275/3/6
f 274/4/6 265/4/6 275/4/6
f 266/4/6 267/4/6 276/4/6
f 275/3/6 266/3/6 276/3/6
f 267/3/6 268/3/6 277/3/6
f 276/4/6 267/4/6 277/4/6
f 268/4/6 248/4/6 278/4/6
f 277/3/6 268/3/6 278/3/6
f 271/4/6 272/4/6 279/4/6
f 276/4/6 277/4/6 279/4/6
f 277/4/6 278/4/6 279/4/6
f 274/4/6 275/4/6 279/4/6
f 273/4/6 274/4/6 279/4/6
f 272/4/6 273/4/6 279/4/6
f 270/4/6 271/4/6 279/4/6
f 269/4/6 270/4/6 279/4/6
f 247/4/6 269/4/6 279/4/6
f 275/4/6 276/4/6 279/4/6
f 279/4/6 278/4/6 280/4/6
f 280/4/6 278/4/6 281/4/6
f 281/4/6 278/4/6 282/4/6
f 282/4/6 278/4/6 283/4/6
f 283/4/6 278/4/6 284/4/6
f 284/4/6 278/4/6 285/4/6
f 285/4/6 278/4/6 286/4/6
f 286/4/6 278/4/6 287/4/6
f 287/4/6 278/4/6 288/4/6
f 288/4/6 278/4/6 289/4/6
f 289/4/6 278/4/6 290/4/6
f 290/4/6 278/4/6 291/4/6
f 291/4/6 278/4/6 292/4/6
f 292/4/6 278/4/6 293/4/6
f 293/4/6 278/4/6 294/4/6
f 294/4/6 278/4/6 295/4/6
f 278/4/6 248/4/6 296/4/6
f 295/4/6 278/4/6 296/4/6
f 247/4/6 279/4/6 297/4/6
f 279/3/6 280/3/6 297/3/6
f 280/4/6 281/4/6 298/4/6
f 297/3/6 280/3/6 298/3/6
f 281/3/6 282/3/6 299/3/6
f 298/4/6 281/4/6 299/4/6
f 282/4/6 283/4/6 300/4/6
f 299/3/6 282/3/6 300/3/6
f 283/3/6 284/3/6 301/3/6
f 300/4/6 283/4/6 301/4/6
f 284/4/6 285/4/6 302/4/6
f 301/3/6 284/3/6 302/3/6
f 285/3/6 286/3/6 303/3/6
f 302/4/6 285/4/6 303/4/6
f 286/4/6 287/4/6 304/4/6
f 303/3/6 286/3/6 304/3/6
f 287/3/6 288/3/6 305/3/6
f 304/4/6 287/4/6 305/4/6
f 288/4/6 289/4/6 306/4/6
f 305/3/6 288/3/6 306/3/6
f 289/3/6 290/3/6 307/3/6
f 306/4/6 289/4/6 307/4/6
f 290/4/6 291/4/6 308/4/6
f 307/3/6 290/3/6 308/3/6
f 291/3/6 292/3/6 309/3/6
f 308/4/6 291/4/6 309/4/6
f 292/4/6 293/4/6 310/4/6
f 309/3/6 292/3/6 310/3/6
f 293/3/6 294/3/6 311/3/6
f 310/4/6 293/4/6 311/4/6
f 294/4/6 295/4/6 312/4/6
f 311/3/6 294/3/6 312/3/6
f 295/3/6 296/3/6 313/3/6
f 312/4/6 295/4/6 313/4/6
f 296/4/6 248/4/6 314/4/6
f 313/3/6 296/3/6 314/3/6
f 310/4/6 311/4/6 315/4/6
f 312/4/6 313/4/6 315/4/6
f 313/4/6 314/4/6 315/4/6
f 309/4/6 310/4/6 315/4/6
f 308/4/6 309/4/6 315/4/6
f 307/4/6 308/4/6 315/4/6
f 306/4/6 307/4/6 315/4/6
f 305/4/6 306/4/6 315/4/6
f 304/4/6 305/4/6 315/4/6
f 303/4/6 304/4/6 315/4/6
f 302/4/6 303/4/6 315/4/6
f 301/4/6 302/4/6 315/4/6
f 300/4/6 301/4/6 315/4/6
f 299/4/6 300/4/6 315/4/6
f 298/4/6 299/4/6 315/4/6
f 297/4/6 298/4/6 315/4/6
f 247/4/6 297/4/6 315/4/6
f 311/4/6 312/4/6 315/4/6
f 315/4/6 314/4/6 316/4/6
f 316/4/6 314/4/6 317/4/6
f 317/4/6 314/4/6 318/4/6
f 318/4/6 314/4/6 319/4/6
f 319/4/6 314/4/6 320/4/6
f 320/4/6 314/4/6 321/4/6
f 321/4/6 314/4/6 322/4/6
f 322/4/6 314/4/6 323/4/6
f 323/4/6 314/4/6 324/4/6
f 324/4/6 314/4/6 325/4/6
f 325/4/6 314/4/6 326/4/6
f 326/4/6 314/4/6 327/4/6
f 327/4/6 314/4/6 328/4/6
f 328/4/6 314/4/6 329/4/6
f 329/4/6 314/4/6 330/4/6
f 330/4/6 314/4/6 331/4/6
f 314/4/6 248/4/6 332/4/6
f 331/4/6 314/4/6 332/4/6
f 330/6/6 331/6/6 333/6/6
f 331/5/6 332/5/6 334/5/6
f 333/6/6 331/6/6 334/6/6
f 334/5/6 332/5/6 335/5/6
f 247/4/6 315/4/6 336/4/6
f 315/3/6 316/3/6 336/3/6
f 316/4/6 317/4/6 337/4/6
f 336/3/6 316/3/6 337/3/6
f 317/3/6 318/3/6 338/3/6
f 337/4/6 317/4/6 338/4/6
f 318/4/6 319/4/6 339/4/6
f 338/3/6 318/3/6 339/3/6
f 319/3/6 320/3/6 340/3/6
f 339/4/6 319/4/6 340/4/6
f 320/4/6 321/4/6 341/4/6
f 340/3/6 320/3/6 341/3/6
f 321/3/6 322/3/6 342/3/6
f 341/4/6 321/4/6 342/4/6
f 322/4/6 323/4/6 343/4/6
f 342/3/6 322/3/6 343/3/6
f 323/3/6 324/3/6 344/3/6
f 343/4/6 323/4/6 344/4/6
f 324/4/6 325/4/6 345/4/6
f 344/3/6 324/3/6 345/3/6
f 325/3/6 326/3/6 346/3/6
f 345/4/6 325/4/6 346/4/6
f 326/4/6 327/4/6 347/4/6
f 346/3/6 326/3/6 347/3/6
f 327/3/6 328/3/6 348/3/6
f 347/4/6 327/4/6 348/4/6
f 328/4/6 329/4/6 349/4/6
f 348/3/6 328/3/6 349/3/6
f 329/5/6 330/5/6 350/5/6
f 330/6/6 333/6/6 351/6/6
f 350/5/6 330/5/6 351/5/6
f 333/5/6 334/5/6 352/5/6
f 351/6/6 333/6/6 352/6/6
f 247/4/6 336/4/6 353/4/6
f 336/4/6 337/4/6 353/4/6
f 337/4/6 338/4/6 353/4/6
f 348/4/6 349/4/6 353/4/6
f 338/4/6 339/4/6 353/4/6
f 339/4/6 340/4/6 353/4/6
f 340/4/6 341/4/6 353/4/6
f 347/4/6 348/4/6 353/4/6
f 346/4/6 347/4/6 353/4/6
f 345/4/6 346/4/6 353/4/6
f 344/4/6 345/4/6 353/4/6
f 343/4/6 344/4/6 353/4/6
f 342/4/6 343/4/6 353/4/6
f 341/4/6 342/4/6 353/4/6
f 353/4/6 349/4/6 354/4/6
f 354/4/6 349/4/6 355/4/6
f 355/4/6 349/4/6 356/4/6
f 356/4/6 349/4/6 357/4/6
f 357/4/6 349/4/6 358/4/6
f 358/4/6 349/4/6 359/4/6
f 359/4/6 349/4/6 360/4/6
f 360/4/6 349/4/6 361/4/6
f 361/4/6 349/4/6 362/4/6
f 362/4/6 349/4/6 363/4/6
f 363/4/6 349/4/6 364/4/6
f 364/4/6 349/4/6 365/4/6
f 349/4/6 329/4/6 366/4/6
f 365/4/6 349/4/6 366/4/6
f 352/5/6 334/5/6 367/5/6
f 351/5/6 352/5/6 367/5/6
f 334/6/6 335/6/6 368/6/6
f 367/5/6 334/5/6 368/5/6
f 247/4/6 353/4/6 369/4/6
f 353/3/6 354/3/6 369/3/6
f 354/4/6 355/4/6 370/4/6
f 369/3/6 354/3/6 370/3/6
f 355/3/6 356/3/6 371/3/6
f 370/4/6 355/4/6 371/4/6
f 356/4/6 357/4/6 372/4/6
f 371/3/6 356/3/6 372/3/6
f 357/3/6 358/3/6 373/3/6
f 372/4/6 357/4/6 373/4/6
f 358/4/6 359/4/6 374/4/6
f 373/3/6 358/3/6 374/3/6
f 359/3/6 360/3/6 375/3/6
f 374/4/6 359/4/6 375/4/6
f 360/4/6 361/4/6 376/4/6
f 375/3/6 360/3/6 376/3/6
f 361/3/6 362/3/6 377/3/6
f 376/4/6 361/4/6 377/4/6
f 362/4/6 363/4/6 378/4/6
f 377/3/6 362/3/6 378/3/6
f 363/3/6 364/3/6 379/3/6
f 378/4/6 363/4/6 379/4/6
f 364/4/6 365/4/6 380/4/6
f 379/3/6 364/3/6 380/3/6
f 365/3/6 366/3/6 381/3/6
f 380/4/6 365/4/6 381/4/6
f 366/4/6 329/4/6 382/4/6
f 381/3/6 366/3/6 382/3/6
f 350/6/6 351/6/6 383/6/6
f 329/5/6 350/5/6 383/5/6
f 351/5/6 367/5/6 384/5/6
f 383/6/6 351/6/6 384/6/6
f 367/6/6 368/6/6 385/6/6
f 384/5/6 367/5/6 385/5/6
f 368/6/6 335/6/6 386/6/6
f 385/6/6 368/6/6 386/6/6
f 335/5/6 332/5/6 387/5/6
f 386/6/6 335/6/6 387/6/6
f 329/5/6 383/5/6 388/5/6
f 380/4/6 381/4/6 388/4/6
f 379/4/6 380/4/6 388/4/6
f 377/4/6 378/4/6 388/4/6
f 376/4/6 377/4/6 388/4/6
f 375/4/6 376/4/6 388/4/6
f 374/4/6 375/4/6 388/4/6
f 373/4/6 374/4/6 388/4/6
f 372/4/6 373/4/6 388/4/6
f 371/4/6 372/4/6 388/4/6
f 370/4/6 371/4/6 388/4/6
f 369/4/6 370/4/6 388/4/6
f 382/4/6 329/4/6 388/4/6
f 383/5/6 384/5/6 388/5/6
f 381/4/6 382/4/6 388/4/6
f 378/4/6 379/4/6 388/4/6
f 385/6/6 386/6/6 389/6/6
f 388/5/6 384/5/6 389/5/6
f 384/6/6 385/6/6 389/6/6
f 386/5/6 387/5/6 390/5/6
f 389/6/6 386/6/6 390/6/6
f 332/4/6 248/4/6 391/4/6
f 390/5/6 387/5/6 391/5/6
f 387/5/6 332/5/6 391/5/6
f 389/4/6 390/4/6 392/4/6
f 369/4/6 388/4/6 392/4/6
f 390/4/6 391/4/6 392/4/6
f 388/4/6 389/4/6 392/4/6
f 247/4/6 369/4/6 392/4/6
f 391/4/6 248/4/6 393/4/6
f 392/4/6 391/4/6 393/4/6
f 394/4/6 395/4/6 396/4/6
f 396/4/6 395/4/6 397/4/6
