# Blender 3.5.1
# www.blender.org
mtllib Mirror.mtl
o Untitled
v -1.000000 0.200000 0.100000
v -1.000000 0.200000 -0.000000
v -1.000000 3.300000 0.100000
v -1.000000 3.300000 -0.000000
v 1.100000 0.200000 0.100000
v 1.100000 0.200000 -0.000000
v 1.100000 3.300000 0.100000
v 1.100000 3.300000 -0.000000
v -1.000000 0.200000 0.100000
v -1.000000 3.300000 0.100000
v 1.100000 0.200000 0.100000
v 1.100000 3.300000 0.100000
v -1.000000 0.200000 -0.000000
v -1.000000 3.300000 -0.000000
v 1.100000 0.200000 -0.000000
v 1.100000 3.300000 -0.000000
v -1.000000 0.200000 0.100000
v 1.100000 0.200000 0.100000
v -1.000000 0.200000 -0.000000
v 1.100000 0.200000 -0.000000
v -1.000000 3.300000 0.100000
v 1.100000 3.300000 0.100000
v -1.000000 3.300000 -0.000000
v 1.100000 3.300000 -0.000000
vn -1.0000 -0.0000 -0.0000
vn 1.0000 -0.0000 -0.0000
vn -0.0000 -0.0000 1.0000
vn -0.0000 -0.0000 -1.0000
vn -0.0000 -1.0000 -0.0000
vn -0.0000 1.0000 -0.0000
vt 0.169922 0.500000
vt 0.169922 0.500000
vt 0.169922 0.500000
vt 0.169922 0.500000
vt 0.169922 0.500000
vt 0.169922 0.500000
vt 0.169922 0.500000
vt 0.169922 0.500000
vt 0.169922 0.500000
vt 0.169922 0.500000
vt 0.169922 0.500000
vt 0.169922 0.500000
vt 0.169922 0.500000
vt 0.169922 0.500000
vt 0.169922 0.500000
vt 0.169922 0.500000
vt 0.169922 0.500000
vt 0.169922 0.500000
vt 0.169922 0.500000
vt 0.169922 0.500000
vt 0.169922 0.500000
vt 0.169922 0.500000
vt 0.169922 0.500000
vt 0.169922 0.500000
s 0
usemtl palette.008
f 3/3/1 2/2/1 1/1/1
f 4/4/1 2/2/1 3/3/1
f 5/5/2 6/6/2 7/7/2
f 7/7/2 6/6/2 8/8/2
f 11/11/3 10/10/3 9/9/3
f 12/12/3 10/10/3 11/11/3
f 13/13/4 14/14/4 15/15/4
f 15/15/4 14/14/4 16/16/4
f 19/19/5 18/18/5 17/17/5
f 20/20/5 18/18/5 19/19/5
f 21/21/6 22/22/6 23/23/6
f 23/23/6 22/22/6 24/24/6
o Untitled.001
v -1.100000 0.100000 -0.000000
v -1.100000 0.100000 -0.100000
v -1.100000 3.400000 -0.000000
v -1.100000 3.400000 -0.100000
v 1.200000 0.100000 -0.000000
v 1.200000 0.100000 -0.100000
v 1.200000 3.400000 -0.000000
v 1.200000 3.400000 -0.100000
v -1.100000 0.100000 -0.000000
v -1.100000 3.400000 -0.000000
v 1.200000 0.100000 -0.000000
v 1.200000 3.400000 -0.000000
v -1.100000 0.100000 -0.100000
v -1.100000 3.400000 -0.100000
v 1.200000 0.100000 -0.100000
v 1.200000 3.400000 -0.100000
v -1.100000 0.100000 -0.000000
v 1.200000 0.100000 -0.000000
v -1.100000 0.100000 -0.100000
v 1.200000 0.100000 -0.100000
v -1.100000 3.400000 -0.000000
v 1.200000 3.400000 -0.000000
v -1.100000 3.400000 -0.100000
v 1.200000 3.400000 -0.100000
vn -1.0000 -0.0000 -0.0000
vn 1.0000 -0.0000 -0.0000
vn -0.0000 -0.0000 1.0000
vn -0.0000 -0.0000 -1.0000
vn -0.0000 -1.0000 -0.0000
vn -0.0000 1.0000 -0.0000
vt 0.525391 0.500000
vt 0.525391 0.500000
vt 0.525391 0.500000
vt 0.525391 0.500000
vt 0.525391 0.500000
vt 0.525391 0.500000
vt 0.525391 0.500000
vt 0.525391 0.500000
vt 0.525391 0.500000
vt 0.525391 0.500000
vt 0.525391 0.500000
vt 0.525391 0.500000
vt 0.525391 0.500000
vt 0.525391 0.500000
vt 0.525391 0.500000
vt 0.525391 0.500000
vt 0.525391 0.500000
vt 0.525391 0.500000
vt 0.525391 0.500000
vt 0.525391 0.500000
vt 0.525391 0.500000
vt 0.525391 0.500000
vt 0.525391 0.500000
vt 0.525391 0.500000
s 0
usemtl palette.009
f 27/27/7 26/26/7 25/25/7
f 28/28/7 26/26/7 27/27/7
f 29/29/8 30/30/8 31/31/8
f 31/31/8 30/30/8 32/32/8
f 35/35/9 34/34/9 33/33/9
f 36/36/9 34/34/9 35/35/9
f 37/37/10 38/38/10 39/39/10
f 39/39/10 38/38/10 40/40/10
f 43/43/11 42/42/11 41/41/11
f 44/44/11 42/42/11 43/43/11
f 45/45/12 46/46/12 47/47/12
f 47/47/12 46/46/12 48/48/12
