# Blender 3.5.1
# www.blender.org
mtllib PS.mtl
o Untitled
v 0.700000 0.100000 -0.800000
v 0.700000 0.100000 0.700000
v 0.700000 0.400000 -0.800000
v 0.700000 0.400000 0.700000
v -0.700000 0.200000 -0.800000
v -0.700000 0.200000 -0.700000
v -0.700000 0.300000 -0.800000
v -0.700000 0.300000 -0.700000
v -0.600000 0.200000 -0.800000
v -0.600000 0.200000 -0.700000
v -0.600000 0.300000 -0.800000
v -0.600000 0.300000 -0.700000
v -0.800000 0.100000 -0.800000
v -0.800000 0.100000 0.700000
v -0.800000 0.400000 -0.800000
v -0.800000 0.400000 0.700000
v 0.700000 0.100000 -0.800000
v 0.700000 0.400000 -0.800000
v -0.600000 0.200000 -0.800000
v -0.600000 0.300000 -0.800000
v -0.700000 0.200000 -0.800000
v -0.700000 0.300000 -0.800000
v -0.800000 0.100000 -0.800000
v -0.800000 0.400000 -0.800000
v -0.600000 0.200000 -0.700000
v -0.600000 0.300000 -0.700000
v -0.700000 0.200000 -0.700000
v -0.700000 0.300000 -0.700000
v 0.700000 0.100000 0.700000
v 0.700000 0.400000 0.700000
v -0.800000 0.100000 0.700000
v -0.800000 0.400000 0.700000
v 0.700000 0.100000 -0.800000
v -0.800000 0.100000 -0.800000
v 0.700000 0.100000 0.700000
v -0.800000 0.100000 0.700000
v -0.600000 0.300000 -0.800000
v -0.700000 0.300000 -0.800000
v -0.600000 0.300000 -0.700000
v -0.700000 0.300000 -0.700000
v -0.600000 0.200000 -0.800000
v -0.700000 0.200000 -0.800000
v -0.600000 0.200000 -0.700000
v -0.700000 0.200000 -0.700000
v 0.700000 0.400000 -0.800000
v -0.800000 0.400000 -0.800000
v 0.700000 0.400000 0.700000
v -0.800000 0.400000 0.700000
vn 1.0000 -0.0000 -0.0000
vn -1.0000 -0.0000 -0.0000
vn -0.0000 -0.0000 -1.0000
vn -0.0000 -0.0000 1.0000
vn -0.0000 -1.0000 -0.0000
vn -0.0000 1.0000 -0.0000
vt 0.708984 0.500000
vt 0.708984 0.500000
vt 0.708984 0.500000
vt 0.708984 0.500000
vt 0.708984 0.500000
vt 0.708984 0.500000
vt 0.708984 0.500000
vt 0.708984 0.500000
vt 0.708984 0.500000
vt 0.708984 0.500000
vt 0.708984 0.500000
vt 0.708984 0.500000
vt 0.708984 0.500000
vt 0.708984 0.500000
vt 0.708984 0.500000
vt 0.708984 0.500000
vt 0.708984 0.500000
vt 0.708984 0.500000
vt 0.708984 0.500000
vt 0.708984 0.500000
vt 0.708984 0.500000
vt 0.708984 0.500000
vt 0.708984 0.500000
vt 0.708984 0.500000
vt 0.708984 0.500000
vt 0.708984 0.500000
vt 0.708984 0.500000
vt 0.708984 0.500000
vt 0.708984 0.500000
vt 0.708984 0.500000
vt 0.708984 0.500000
vt 0.708984 0.500000
vt 0.708984 0.500000
vt 0.708984 0.500000
vt 0.708984 0.500000
vt 0.708984 0.500000
vt 0.708984 0.500000
vt 0.708984 0.500000
vt 0.708984 0.500000
vt 0.708984 0.500000
vt 0.708984 0.500000
vt 0.708984 0.500000
vt 0.708984 0.500000
vt 0.708984 0.500000
vt 0.708984 0.500000
vt 0.708984 0.500000
vt 0.708984 0.500000
vt 0.708984 0.500000
s 0
usemtl palette.020
f 3/3/1 2/2/1 1/1/1
f 4/4/1 2/2/1 3/3/1
f 7/7/1 6/6/1 5/5/1
f 8/8/1 6/6/1 7/7/1
f 9/9/2 10/10/2 11/11/2
f 11/11/2 10/10/2 12/12/2
f 13/13/2 14/14/2 15/15/2
f 15/15/2 14/14/2 16/16/2
f 19/19/3 18/18/3 17/17/3
f 20/20/3 18/18/3 19/19/3
f 21/21/3 19/19/3 17/17/3
f 22/22/3 18/18/3 20/20/3
f 23/23/3 21/21/3 17/17/3
f 23/23/3 22/22/3 21/21/3
f 24/24/3 18/18/3 22/22/3
f 24/24/3 22/22/3 23/23/3
f 27/27/3 26/26/3 25/25/3
f 28/28/3 26/26/3 27/27/3
f 29/29/4 30/30/4 31/31/4
f 31/31/4 30/30/4 32/32/4
f 35/35/5 34/34/5 33/33/5
f 36/36/5 34/34/5 35/35/5
f 39/39/5 38/38/5 37/37/5
f 40/40/5 38/38/5 39/39/5
f 41/41/6 42/42/6 43/43/6
f 43/43/6 42/42/6 44/44/6
f 45/45/6 46/46/6 47/47/6
f 47/47/6 46/46/6 48/48/6
o Untitled.001
v -0.600000 0.200000 -0.800000
v -0.600000 0.200000 -0.700000
v -0.600000 0.300000 -0.800000
v -0.600000 0.300000 -0.700000
v -0.700000 0.200000 -0.800000
v -0.700000 0.200000 -0.700000
v -0.700000 0.300000 -0.800000
v -0.700000 0.300000 -0.700000
v -0.600000 0.200000 -0.800000
v -0.600000 0.300000 -0.800000
v -0.700000 0.200000 -0.800000
v -0.700000 0.300000 -0.800000
v -0.600000 0.200000 -0.700000
v -0.600000 0.300000 -0.700000
v -0.700000 0.200000 -0.700000
v -0.700000 0.300000 -0.700000
v -0.600000 0.200000 -0.800000
v -0.700000 0.200000 -0.800000
v -0.600000 0.200000 -0.700000
v -0.700000 0.200000 -0.700000
v -0.600000 0.300000 -0.800000
v -0.700000 0.300000 -0.800000
v -0.600000 0.300000 -0.700000
v -0.700000 0.300000 -0.700000
vn 1.0000 -0.0000 -0.0000
vn -1.0000 -0.0000 -0.0000
vn -0.0000 -0.0000 -1.0000
vn -0.0000 -0.0000 1.0000
vn -0.0000 -1.0000 -0.0000
vn -0.0000 1.0000 -0.0000
vt 0.087891 0.500000
vt 0.087891 0.500000
vt 0.087891 0.500000
vt 0.087891 0.500000
vt 0.087891 0.500000
vt 0.087891 0.500000
vt 0.087891 0.500000
vt 0.087891 0.500000
vt 0.087891 0.500000
vt 0.087891 0.500000
vt 0.087891 0.500000
vt 0.087891 0.500000
vt 0.087891 0.500000
vt 0.087891 0.500000
vt 0.087891 0.500000
vt 0.087891 0.500000
vt 0.087891 0.500000
vt 0.087891 0.500000
vt 0.087891 0.500000
vt 0.087891 0.500000
vt 0.087891 0.500000
vt 0.087891 0.500000
vt 0.087891 0.500000
vt 0.087891 0.500000
s 0
usemtl palette.021
f 51/51/7 50/50/7 49/49/7
f 52/52/7 50/50/7 51/51/7
f 53/53/8 54/54/8 55/55/8
f 55/55/8 54/54/8 56/56/8
f 59/59/9 58/58/9 57/57/9
f 60/60/9 58/58/9 59/59/9
f 61/61/10 62/62/10 63/63/10
f 63/63/10 62/62/10 64/64/10
f 67/67/11 66/66/11 65/65/11
f 68/68/11 66/66/11 67/67/11
f 69/69/12 70/70/12 71/71/12
f 71/71/12 70/70/12 72/72/12
