# MagicaVoxel @ Ephtracy

# group
o 

# material
mtllib Kitchen_cabinets-5.mtl
usemtl palette

# normals
vn -1 0 0
vn 1 0 0
vn 0 0 1
vn 0 0 -1
vn 0 -1 0
vn 0 1 0

# texcoords
vt 0.751953 0.5
vt 0.759766 0.5
vt 0.783203 0.5

# verts
v -0.2 0.4 -0.6
v -0.2 0.4 -0.7
v -0.2 0.6 -0.6
v -0.2 0.6 -0.7
v -0.1 -0.6 2.23517e-08
v -0.1 -0.6 -0.8
v -0.1 -0.5 -0.5
v -0.1 -0.5 -0.7
v -0.1 -0.4 -0.4
v -0.1 -0.4 -0.5
v -0.1 -0.4 -0.6
v -0.1 -0.3 -0.3
v -0.1 -0.3 -0.4
v -0.1 -0.2 -0.4
v -0.1 -0.2 -0.5
v -0.1 -0.2 -0.6
v -0.1 -0.1 -0.2
v -0.1 -0.1 -0.3
v -0.1 -5.96046e-08 -0.1
v -0.1 -5.96046e-08 -0.2
v -0.1 -5.96046e-08 -0.3
v -0.1 -5.96046e-08 -0.4
v -0.1 -5.96046e-08 -0.5
v -0.1 0.2 -0.2
v -0.1 0.2 -0.3
v -0.1 0.2 -0.4
v -0.1 0.4 -0.1
v -0.1 0.4 -0.2
v -0.1 0.4 -0.3
v -0.1 0.4 -0.6
v -0.1 0.4 -0.7
v -0.1 0.5 -0.1
v -0.1 0.5 -0.2
v -0.1 0.6 -0.1
v -0.1 0.6 -0.6
v -0.1 0.6 -0.7
v -0.1 0.7 2.23517e-08
v -0.1 0.7 -0.8
v 0 -0.6 2.23517e-08
v 0 -0.6 -0.8
v 0 -0.5 -0.5
v 0 -0.5 -0.7
v 0 -0.4 -0.4
v 0 -0.4 -0.5
v 0 -0.4 -0.6
v 0 -0.3 -0.3
v 0 -0.3 -0.4
v 0 -0.2 -0.4
v 0 -0.2 -0.5
v 0 -0.2 -0.6
v 0 -0.1 -0.2
v 0 -0.1 -0.3
v 0 -5.96046e-08 -0.1
v 0 -5.96046e-08 -0.2
v 0 -5.96046e-08 -0.3
v 0 -5.96046e-08 -0.4
v 0 -5.96046e-08 -0.5
v 0 0.2 -0.2
v 0 0.2 -0.3
v 0 0.2 -0.4
v 0 0.4 -0.1
v 0 0.4 -0.2
v 0 0.4 -0.3
v 0 0.5 -0.1
v 0 0.5 -0.2
v 0 0.6 -0.1
v 0 0.6 -0.7
v 0 0.7 2.23517e-08
v 0 0.7 -0.8
v -0.1 -0.6 2.23517e-08
v -0.1 0.7 2.23517e-08
v 0 -0.6 2.23517e-08
v 0 0.7 2.23517e-08
v -0.2 0.4 -0.6
v -0.2 0.6 -0.6
v -0.1 0.4 -0.6
v -0.1 0.6 -0.6
v -0.2 0.4 -0.7
v -0.2 0.6 -0.7
v -0.1 0.4 -0.7
v -0.1 0.6 -0.7
v -0.1 -0.6 -0.8
v -0.1 0.7 -0.8
v 0 -0.6 -0.8
v 0 0.7 -0.8
v -0.1 -0.6 2.23517e-08
v 0 -0.6 2.23517e-08
v -0.1 -0.6 -0.8
v 0 -0.6 -0.8
v -0.2 0.4 -0.6
v -0.1 0.4 -0.6
v -0.2 0.4 -0.7
v -0.1 0.4 -0.7
v -0.2 0.6 -0.6
v -0.1 0.6 -0.6
v -0.2 0.6 -0.7
v -0.1 0.6 -0.7
v -0.1 0.7 2.23517e-08
v 0 0.7 2.23517e-08
v -0.1 0.7 -0.8
v 0 0.7 -0.8

# faces
f 3/2/1 2/2/1 1/2/1
f 4/2/1 2/2/1 3/2/1
f 7/2/1 6/2/1 5/2/1
f 8/2/1 6/2/1 7/2/1
f 9/2/1 7/2/1 5/2/1
f 10/3/1 8/3/1 7/3/1
f 10/2/1 7/2/1 9/2/1
f 11/3/1 8/3/1 10/3/1
f 12/2/1 9/2/1 5/2/1
f 13/3/1 10/3/1 9/3/1
f 13/2/1 9/2/1 12/2/1
f 14/3/1 13/3/1 12/3/1
f 14/3/1 10/3/1 13/3/1
f 15/1/1 11/1/1 10/1/1
f 15/3/1 10/3/1 14/3/1
f 16/3/1 8/3/1 11/3/1
f 16/1/1 11/1/1 15/1/1
f 17/2/1 12/2/1 5/2/1
f 18/3/1 14/3/1 12/3/1
f 18/2/1 12/2/1 17/2/1
f 19/2/1 17/2/1 5/2/1
f 20/3/1 18/3/1 17/3/1
f 20/2/1 17/2/1 19/2/1
f 21/3/1 14/3/1 18/3/1
f 21/3/1 18/3/1 20/3/1
f 22/1/1 15/1/1 14/1/1
f 22/3/1 14/3/1 21/3/1
f 23/3/1 16/3/1 15/3/1
f 23/1/1 15/1/1 22/1/1
f 24/3/1 21/3/1 20/3/1
f 24/3/1 20/3/1 19/3/1
f 25/1/1 22/1/1 21/1/1
f 25/3/1 21/3/1 24/3/1
f 26/3/1 23/3/1 22/3/1
f 26/1/1 22/1/1 25/1/1
f 27/3/1 24/3/1 19/3/1
f 27/2/1 19/2/1 5/2/1
f 28/1/1 25/1/1 24/1/1
f 28/3/1 24/3/1 27/3/1
f 29/3/1 26/3/1 25/3/1
f 29/1/1 25/1/1 28/1/1
f 30/3/1 16/3/1 23/3/1
f 30/3/1 26/3/1 29/3/1
f 30/3/1 8/3/1 16/3/1
f 30/3/1 23/3/1 26/3/1
f 31/2/1 6/2/1 8/2/1
f 31/3/1 8/3/1 30/3/1
f 32/1/1 28/1/1 27/1/1
f 32/2/1 27/2/1 5/2/1
f 33/3/1 30/3/1 29/3/1
f 33/1/1 28/1/1 32/1/1
f 33/3/1 29/3/1 28/3/1
f 34/2/1 32/2/1 5/2/1
f 34/3/1 33/3/1 32/3/1
f 35/3/1 30/3/1 33/3/1
f 35/3/1 33/3/1 34/3/1
f 36/2/1 6/2/1 31/2/1
f 37/2/1 34/2/1 5/2/1
f 37/2/1 36/2/1 35/2/1
f 37/2/1 35/2/1 34/2/1
f 38/2/1 6/2/1 36/2/1
f 38/2/1 36/2/1 37/2/1
f 39/2/2 40/2/2 41/2/2
f 41/2/2 40/2/2 42/2/2
f 39/2/2 41/2/2 43/2/2
f 41/3/2 42/3/2 44/3/2
f 43/2/2 41/2/2 44/2/2
f 44/3/2 42/3/2 45/3/2
f 39/2/2 43/2/2 46/2/2
f 43/3/2 44/3/2 47/3/2
f 46/2/2 43/2/2 47/2/2
f 46/3/2 47/3/2 48/3/2
f 47/3/2 44/3/2 48/3/2
f 44/1/2 45/1/2 49/1/2
f 48/3/2 44/3/2 49/3/2
f 45/3/2 42/3/2 50/3/2
f 49/1/2 45/1/2 50/1/2
f 39/2/2 46/2/2 51/2/2
f 46/3/2 48/3/2 52/3/2
f 51/2/2 46/2/2 52/2/2
f 39/2/2 51/2/2 53/2/2
f 51/3/2 52/3/2 54/3/2
f 53/2/2 51/2/2 54/2/2
f 52/3/2 48/3/2 55/3/2
f 54/3/2 52/3/2 55/3/2
f 48/1/2 49/1/2 56/1/2
f 55/3/2 48/3/2 56/3/2
f 49/3/2 50/3/2 57/3/2
f 56/1/2 49/1/2 57/1/2
f 54/3/2 55/3/2 58/3/2
f 53/3/2 54/3/2 58/3/2
f 55/1/2 56/1/2 59/1/2
f 58/3/2 55/3/2 59/3/2
f 56/3/2 57/3/2 60/3/2
f 59/1/2 56/1/2 60/1/2
f 53/3/2 58/3/2 61/3/2
f 39/2/2 53/2/2 61/2/2
f 58/1/2 59/1/2 62/1/2
f 61/3/2 58/3/2 62/3/2
f 59/3/2 60/3/2 63/3/2
f 62/1/2 59/1/2 63/1/2
f 39/2/2 61/2/2 64/2/2
f 61/1/2 62/1/2 64/1/2
f 62/3/2 63/3/2 65/3/2
f 64/1/2 62/1/2 65/1/2
f 39/2/2 64/2/2 66/2/2
f 64/3/2 65/3/2 66/3/2
f 42/2/2 40/2/2 67/2/2
f 66/3/2 65/3/2 67/3/2
f 57/3/2 50/3/2 67/3/2
f 65/3/2 63/3/2 67/3/2
f 60/3/2 57/3/2 67/3/2
f 63/3/2 60/3/2 67/3/2
f 50/3/2 42/3/2 67/3/2
f 39/2/2 66/2/2 68/2/2
f 66/2/2 67/2/2 68/2/2
f 67/2/2 40/2/2 69/2/2
f 68/2/2 67/2/2 69/2/2
f 72/2/3 71/2/3 70/2/3
f 73/2/3 71/2/3 72/2/3
f 76/2/3 75/2/3 74/2/3
f 77/2/3 75/2/3 76/2/3
f 78/2/4 79/2/4 80/2/4
f 80/2/4 79/2/4 81/2/4
f 82/2/4 83/2/4 84/2/4
f 84/2/4 83/2/4 85/2/4
f 88/2/5 87/2/5 86/2/5
f 89/2/5 87/2/5 88/2/5
f 92/2/5 91/2/5 90/2/5
f 93/2/5 91/2/5 92/2/5
f 94/2/6 95/2/6 96/2/6
f 96/2/6 95/2/6 97/2/6
f 98/2/6 99/2/6 100/2/6
f 100/2/6 99/2/6 101/2/6
