# MagicaVoxel @ Ephtracy

# group
o 

# material
mtllib Kitchen_cabinets-7.mtl
usemtl palette

# normals
vn -1 0 0
vn 1 0 0
vn 0 0 1
vn 0 0 -1
vn 0 -1 0
vn 0 1 0

# texcoords
vt 0.751953 0.5
vt 0.755859 0.5
vt 0.759766 0.5
vt 0.783203 0.5

# verts
v -1 -0.6 0.1
v -1 -0.6 0
v -1 0.7 0.1
v -1 0.7 0
v -0.9 0.4 0.2
v -0.9 0.4 0.1
v -0.9 0.6 0.2
v -0.9 0.6 0.1
v -0.8 0.4 0.2
v -0.8 0.4 0.1
v -0.8 0.6 0.2
v -0.8 0.6 0.1
v 0 -0.6 0.1
v 0 -0.6 0
v 0 0.7 0.1
v 0 0.7 0
v -0.9 0.4 0.2
v -0.9 0.6 0.2
v -0.8 0.4 0.2
v -0.8 0.6 0.2
v -1 -0.6 0.1
v -1 0.7 0.1
v -0.9 -0.5 0.1
v -0.9 0.2 0.1
v -0.9 0.3 0.1
v -0.9 0.4 0.1
v -0.9 0.6 0.1
v -0.8 -0.2 0.1
v -0.8 0.1 0.1
v -0.8 0.4 0.1
v -0.8 0.6 0.1
v -0.7 -0.5 0.1
v -0.7 -0.2 0.1
v -0.7 0.1 0.1
v -0.7 0.2 0.1
v -0.7 0.3 0.1
v -0.6 -0.5 0.1
v -0.6 -0.2 0.1
v -0.6 0.3 0.1
v -0.6 0.5 0.1
v -0.5 -0.5 0.1
v -0.5 -0.4 0.1
v -0.5 0.1 0.1
v -0.5 0.3 0.1
v -0.5 0.5 0.1
v -0.4 0.1 0.1
v -0.4 0.3 0.1
v -0.4 0.5 0.1
v -0.4 0.6 0.1
v -0.3 -0.4 0.1
v -0.3 -0.3 0.1
v -0.3 0.4 0.1
v -0.3 0.5 0.1
v -0.1 -0.3 0.1
v -0.1 0.4 0.1
v 0 -0.6 0.1
v 0 0.7 0.1
v -1 -0.6 0
v -1 0.7 0
v -0.9 -0.5 0
v -0.9 0.2 0
v -0.9 0.3 0
v -0.9 0.6 0
v -0.8 -0.2 0
v -0.8 0.1 0
v -0.7 -0.5 0
v -0.7 -0.2 0
v -0.7 0.1 0
v -0.7 0.2 0
v -0.7 0.3 0
v -0.6 -0.5 0
v -0.6 -0.2 0
v -0.6 0.3 0
v -0.6 0.5 0
v -0.5 -0.5 0
v -0.5 -0.4 0
v -0.5 0.1 0
v -0.5 0.3 0
v -0.5 0.5 0
v -0.4 0.1 0
v -0.4 0.3 0
v -0.4 0.5 0
v -0.4 0.6 0
v -0.3 -0.4 0
v -0.3 -0.3 0
v -0.3 0.4 0
v -0.3 0.5 0
v -0.1 -0.3 0
v -0.1 0.4 0
v 0 -0.6 0
v 0 0.7 0
v -1 -0.6 0.1
v 0 -0.6 0.1
v -1 -0.6 0
v 0 -0.6 0
v -0.9 0.4 0.2
v -0.8 0.4 0.2
v -0.9 0.4 0.1
v -0.8 0.4 0.1
v -0.9 0.6 0.2
v -0.8 0.6 0.2
v -0.9 0.6 0.1
v -0.8 0.6 0.1
v -1 0.7 0.1
v 0 0.7 0.1
v -1 0.7 0
v 0 0.7 0

# faces
f 3/3/1 2/3/1 1/3/1
f 4/3/1 2/3/1 3/3/1
f 7/3/1 6/3/1 5/3/1
f 8/3/1 6/3/1 7/3/1
f 9/3/2 10/3/2 11/3/2
f 11/3/2 10/3/2 12/3/2
f 13/3/2 14/3/2 15/3/2
f 15/3/2 14/3/2 16/3/2
f 19/3/3 18/3/3 17/3/3
f 20/3/3 18/3/3 19/3/3
f 23/3/3 22/3/3 21/3/3
f 24/3/3 22/3/3 23/3/3
f 25/3/3 22/3/3 24/3/3
f 26/3/3 22/3/3 25/3/3
f 27/3/3 22/3/3 26/3/3
f 28/4/3 24/4/3 23/4/3
f 29/4/3 24/4/3 28/4/3
f 30/4/3 26/4/3 25/4/3
f 31/3/3 22/3/3 27/3/3
f 32/3/3 23/3/3 21/3/3
f 32/4/3 28/4/3 23/4/3
f 33/1/3 29/1/3 28/1/3
f 33/4/3 28/4/3 32/4/3
f 34/4/3 24/4/3 29/4/3
f 34/1/3 29/1/3 33/1/3
f 35/2/3 25/2/3 24/2/3
f 35/4/3 24/4/3 34/4/3
f 36/4/3 31/4/3 30/4/3
f 36/2/3 25/2/3 35/2/3
f 36/4/3 30/4/3 25/4/3
f 37/1/3 33/1/3 32/1/3
f 37/3/3 32/3/3 21/3/3
f 38/4/3 35/4/3 34/4/3
f 38/1/3 33/1/3 37/1/3
f 38/4/3 34/4/3 33/4/3
f 38/4/3 36/4/3 35/4/3
f 39/4/3 31/4/3 36/4/3
f 39/4/3 36/4/3 38/4/3
f 40/4/3 31/4/3 39/4/3
f 41/3/3 37/3/3 21/3/3
f 41/4/3 38/4/3 37/4/3
f 41/4/3 39/4/3 38/4/3
f 42/4/3 39/4/3 41/4/3
f 43/4/3 39/4/3 42/4/3
f 44/1/3 40/1/3 39/1/3
f 44/4/3 39/4/3 43/4/3
f 45/4/3 31/4/3 40/4/3
f 45/1/3 40/1/3 44/1/3
f 46/1/3 44/1/3 43/1/3
f 46/4/3 43/4/3 42/4/3
f 47/4/3 45/4/3 44/4/3
f 47/1/3 44/1/3 46/1/3
f 48/4/3 31/4/3 45/4/3
f 48/4/3 45/4/3 47/4/3
f 49/3/3 22/3/3 31/3/3
f 49/4/3 31/4/3 48/4/3
f 50/4/3 47/4/3 46/4/3
f 50/4/3 48/4/3 47/4/3
f 50/4/3 46/4/3 42/4/3
f 50/3/3 42/3/3 41/3/3
f 51/4/3 48/4/3 50/4/3
f 52/4/3 48/4/3 51/4/3
f 53/3/3 49/3/3 48/3/3
f 53/4/3 48/4/3 52/4/3
f 54/4/3 52/4/3 51/4/3
f 54/3/3 51/3/3 50/3/3
f 55/3/3 53/3/3 52/3/3
f 55/4/3 52/4/3 54/4/3
f 56/3/3 41/3/3 21/3/3
f 56/3/3 50/3/3 41/3/3
f 56/3/3 55/3/3 54/3/3
f 56/3/3 54/3/3 50/3/3
f 57/3/3 22/3/3 49/3/3
f 57/3/3 55/3/3 56/3/3
f 57/3/3 49/3/3 53/3/3
f 57/3/3 53/3/3 55/3/3
f 58/3/4 59/3/4 60/3/4
f 60/3/4 59/3/4 61/3/4
f 61/3/4 59/3/4 62/3/4
f 62/3/4 59/3/4 63/3/4
f 60/4/4 61/4/4 64/4/4
f 64/4/4 61/4/4 65/4/4
f 58/3/4 60/3/4 66/3/4
f 60/4/4 64/4/4 66/4/4
f 64/1/4 65/1/4 67/1/4
f 66/4/4 64/4/4 67/4/4
f 65/4/4 61/4/4 68/4/4
f 67/1/4 65/1/4 68/1/4
f 61/2/4 62/2/4 69/2/4
f 68/4/4 61/4/4 69/4/4
f 62/4/4 63/4/4 70/4/4
f 69/2/4 62/2/4 70/2/4
f 66/1/4 67/1/4 71/1/4
f 58/3/4 66/3/4 71/3/4
f 67/4/4 68/4/4 72/4/4
f 71/1/4 67/1/4 72/1/4
f 68/4/4 69/4/4 72/4/4
f 69/4/4 70/4/4 72/4/4
f 70/4/4 63/4/4 73/4/4
f 72/4/4 70/4/4 73/4/4
f 73/4/4 63/4/4 74/4/4
f 71/4/4 72/4/4 75/4/4
f 58/3/4 71/3/4 75/3/4
f 72/4/4 73/4/4 75/4/4
f 75/4/4 73/4/4 76/4/4
f 76/4/4 73/4/4 77/4/4
f 73/1/4 74/1/4 78/1/4
f 77/4/4 73/4/4 78/4/4
f 74/4/4 63/4/4 79/4/4
f 78/1/4 74/1/4 79/1/4
f 77/1/4 78/1/4 80/1/4
f 76/4/4 77/4/4 80/4/4
f 78/4/4 79/4/4 81/4/4
f 80/1/4 78/1/4 81/1/4
f 79/4/4 63/4/4 82/4/4
f 81/4/4 79/4/4 82/4/4
f 63/3/4 59/3/4 83/3/4
f 82/4/4 63/4/4 83/4/4
f 80/4/4 81/4/4 84/4/4
f 81/4/4 82/4/4 84/4/4
f 76/4/4 80/4/4 84/4/4
f 75/3/4 76/3/4 84/3/4
f 84/4/4 82/4/4 85/4/4
f 85/4/4 82/4/4 86/4/4
f 82/3/4 83/3/4 87/3/4
f 86/4/4 82/4/4 87/4/4
f 85/4/4 86/4/4 88/4/4
f 84/3/4 85/3/4 88/3/4
f 86/3/4 87/3/4 89/3/4
f 88/4/4 86/4/4 89/4/4
f 58/3/4 75/3/4 90/3/4
f 75/3/4 84/3/4 90/3/4
f 88/3/4 89/3/4 90/3/4
f 84/3/4 88/3/4 90/3/4
f 83/3/4 59/3/4 91/3/4
f 90/3/4 89/3/4 91/3/4
f 87/3/4 83/3/4 91/3/4
f 89/3/4 87/3/4 91/3/4
f 94/3/5 93/3/5 92/3/5
f 95/3/5 93/3/5 94/3/5
f 98/3/5 97/3/5 96/3/5
f 99/3/5 97/3/5 98/3/5
f 100/3/6 101/3/6 102/3/6
f 102/3/6 101/3/6 103/3/6
f 104/3/6 105/3/6 106/3/6
f 106/3/6 105/3/6 107/3/6
