# MagicaVoxel @ Ephtracy

# group
o 

# material
mtllib Kitchen_cabinets-10.mtl
usemtl palette

# normals
vn -1 0 0
vn 1 0 0
vn 0 0 1
vn 0 0 -1
vn 0 -1 0
vn 0 1 0

# texcoords
vt 0.751953 0.5
vt 0.759766 0.5
vt 0.783203 0.5

# verts
v -0.5 -0.2 0.5
v -0.5 -0.2 0.4
v -0.5 -0.1 0.4
v -0.5 -0.1 -0.7
v -0.5 0.2 0.4
v -0.5 0.2 -0.7
v -0.5 0.3 0.5
v -0.5 0.3 0.4
v -0.1 0 0.6
v -0.1 0 0.5
v -0.1 0.1 0.6
v -0.1 0.1 0.5
v 0.4 0 0.4
v 0.4 0 -0.6
v 0.4 0.2 0.4
v 0.4 0.2 -0.6
v -0.4 0 0.4
v -0.4 0 -0.6
v -0.4 0.1 0.4
v -0.4 0.2 0.4
v -0.4 0.2 -0.6
v 0.1 0 0.6
v 0.1 0 0.5
v 0.1 0.1 0.6
v 0.1 0.1 0.5
v 0.5 -0.2 0.5
v 0.5 -0.2 0.4
v 0.5 -0.1 0.4
v 0.5 -0.1 -0.7
v 0.5 0.2 0.4
v 0.5 0.2 -0.7
v 0.5 0.3 0.5
v 0.5 0.3 0.4
v -0.1 0 0.6
v -0.1 0.1 0.6
v 0.1 0 0.6
v 0.1 0.1 0.6
v -0.5 -0.2 0.5
v -0.5 0.3 0.5
v -0.4 0.1 0.5
v -0.4 0.2 0.5
v -0.3 0 0.5
v -0.3 0.1 0.5
v -0.3 0.2 0.5
v -0.2 -0.1 0.5
v -0.2 0 0.5
v -0.2 0.1 0.5
v -0.2 0.2 0.5
v -0.1 0 0.5
v -0.1 0.1 0.5
v 0.1 0 0.5
v 0.1 0.1 0.5
v 0.4 -0.1 0.5
v 0.4 0.2 0.5
v 0.5 -0.2 0.5
v 0.5 0.3 0.5
v -0.4 0 -0.6
v -0.4 0.2 -0.6
v 0.4 0 -0.6
v 0.4 0.2 -0.6
v -0.5 -0.2 0.4
v -0.5 -0.1 0.4
v -0.5 0.2 0.4
v -0.5 0.3 0.4
v -0.4 0 0.4
v -0.4 0.1 0.4
v -0.4 0.2 0.4
v -0.3 0 0.4
v -0.3 0.1 0.4
v -0.3 0.2 0.4
v -0.2 0 0.4
v -0.2 0.1 0.4
v -0.2 0.2 0.4
v -0.1 0 0.4
v -0.1 0.1 0.4
v 0.4 0 0.4
v 0.4 0.2 0.4
v 0.5 -0.2 0.4
v 0.5 -0.1 0.4
v 0.5 0.2 0.4
v 0.5 0.3 0.4
v -0.5 -0.1 -0.7
v -0.5 0.2 -0.7
v 0.5 -0.1 -0.7
v 0.5 0.2 -0.7
v -0.5 -0.2 0.5
v 0.5 -0.2 0.5
v -0.5 -0.2 0.4
v 0.5 -0.2 0.4
v -0.5 -0.1 0.4
v 0.5 -0.1 0.4
v -0.5 -0.1 -0.7
v 0.5 -0.1 -0.7
v -0.1 0 0.6
v 0.1 0 0.6
v -0.1 0 0.5
v 0.1 0 0.5
v -0.4 0 0.4
v -0.3 0 0.4
v -0.2 0 0.4
v -0.1 0 0.4
v 0.4 0 0.4
v -0.4 0 -0.6
v 0.4 0 -0.6
v -0.1 0.1 0.6
v 0.1 0.1 0.6
v -0.1 0.1 0.5
v 0.1 0.1 0.5
v -0.5 0.2 0.4
v -0.4 0.2 0.4
v 0.4 0.2 0.4
v 0.5 0.2 0.4
v -0.4 0.2 -0.6
v 0.4 0.2 -0.6
v -0.5 0.2 -0.7
v 0.5 0.2 -0.7
v -0.5 0.3 0.5
v 0.5 0.3 0.5
v -0.5 0.3 0.4
v 0.5 0.3 0.4

# faces
f 3/2/1 2/2/1 1/2/1
f 5/2/1 3/2/1 1/2/1
f 5/3/1 4/3/1 3/3/1
f 6/3/1 4/3/1 5/3/1
f 7/2/1 5/2/1 1/2/1
f 8/2/1 5/2/1 7/2/1
f 11/2/1 10/2/1 9/2/1
f 12/2/1 10/2/1 11/2/1
f 15/3/1 14/3/1 13/3/1
f 16/3/1 14/3/1 15/3/1
f 17/3/2 18/3/2 19/3/2
f 19/3/2 18/3/2 20/3/2
f 20/3/2 18/3/2 21/3/2
f 22/2/2 23/2/2 24/2/2
f 24/2/2 23/2/2 25/2/2
f 26/2/2 27/2/2 28/2/2
f 26/2/2 28/2/2 30/2/2
f 28/3/2 29/3/2 30/3/2
f 30/3/2 29/3/2 31/3/2
f 26/2/2 30/2/2 32/2/2
f 32/2/2 30/2/2 33/2/2
f 36/2/3 35/2/3 34/2/3
f 37/2/3 35/2/3 36/2/3
f 40/2/3 39/2/3 38/2/3
f 41/2/3 39/2/3 40/2/3
f 42/2/3 40/2/3 38/2/3
f 43/3/3 41/3/3 40/3/3
f 43/2/3 40/2/3 42/2/3
f 44/2/3 39/2/3 41/2/3
f 44/3/3 41/3/3 43/3/3
f 45/2/3 42/2/3 38/2/3
f 46/3/3 43/3/3 42/3/3
f 46/2/3 42/2/3 45/2/3
f 47/1/3 44/1/3 43/1/3
f 47/3/3 43/3/3 46/3/3
f 48/2/3 39/2/3 44/2/3
f 48/1/3 44/1/3 47/1/3
f 49/1/3 47/1/3 46/1/3
f 49/3/3 46/3/3 45/3/3
f 50/3/3 48/3/3 47/3/3
f 50/1/3 47/1/3 49/1/3
f 51/3/3 49/3/3 45/3/3
f 52/3/3 48/3/3 50/3/3
f 53/2/3 45/2/3 38/2/3
f 53/3/3 52/3/3 51/3/3
f 53/3/3 51/3/3 45/3/3
f 54/3/3 48/3/3 52/3/3
f 54/3/3 52/3/3 53/3/3
f 54/2/3 39/2/3 48/2/3
f 55/2/3 53/2/3 38/2/3
f 55/2/3 54/2/3 53/2/3
f 56/2/3 39/2/3 54/2/3
f 56/2/3 54/2/3 55/2/3
f 59/3/3 58/3/3 57/3/3
f 60/3/3 58/3/3 59/3/3
f 63/2/4 64/2/4 67/2/4
f 65/2/4 66/2/4 68/2/4
f 66/3/4 67/3/4 69/3/4
f 68/2/4 66/2/4 69/2/4
f 67/2/4 64/2/4 70/2/4
f 69/3/4 67/3/4 70/3/4
f 68/3/4 69/3/4 71/3/4
f 69/1/4 70/1/4 72/1/4
f 71/3/4 69/3/4 72/3/4
f 70/2/4 64/2/4 73/2/4
f 72/1/4 70/1/4 73/1/4
f 71/1/4 72/1/4 74/1/4
f 72/3/4 73/3/4 75/3/4
f 74/1/4 72/1/4 75/1/4
f 74/3/4 75/3/4 76/3/4
f 73/2/4 64/2/4 77/2/4
f 76/3/4 75/3/4 77/3/4
f 75/3/4 73/3/4 77/3/4
f 61/2/4 62/2/4 78/2/4
f 78/2/4 62/2/4 79/2/4
f 77/2/4 64/2/4 80/2/4
f 80/2/4 64/2/4 81/2/4
f 82/3/4 83/3/4 84/3/4
f 84/3/4 83/3/4 85/3/4
f 88/2/5 87/2/5 86/2/5
f 89/2/5 87/2/5 88/2/5
f 92/3/5 91/3/5 90/3/5
f 93/3/5 91/3/5 92/3/5
f 96/2/5 95/2/5 94/2/5
f 97/2/5 95/2/5 96/2/5
f 98/3/6 99/3/6 103/3/6
f 101/3/6 102/3/6 103/3/6
f 100/3/6 101/3/6 103/3/6
f 99/3/6 100/3/6 103/3/6
f 103/3/6 102/3/6 104/3/6
f 105/2/6 106/2/6 107/2/6
f 107/2/6 106/2/6 108/2/6
f 109/3/6 110/3/6 113/3/6
f 111/3/6 112/3/6 114/3/6
f 109/3/6 113/3/6 115/3/6
f 113/3/6 114/3/6 115/3/6
f 114/3/6 112/3/6 116/3/6
f 115/3/6 114/3/6 116/3/6
f 117/2/6 118/2/6 119/2/6
f 119/2/6 118/2/6 120/2/6
