# MagicaVoxel @ Ephtracy

# group
o 

# material
mtllib Kitchen_cabinets-12.mtl
usemtl palette

# normals
vn -1 0 0
vn 1 0 0
vn 0 0 1
vn 0 0 -1
vn 0 -1 0
vn 0 1 0

# texcoords
vt 0.751953 0.5
vt 0.759766 0.5
vt 0.783203 0.5
vt 0.892578 0.5
vt 0.896484 0.5

# verts
v -1 -0.6 0.1
v -1 -0.6 0
v -1 0.7 0.1
v -1 0.7 0
v -0.9 0.4 0.2
v -0.9 0.4 0.1
v -0.9 0.6 0.2
v -0.9 0.6 0.1
v -0.8 0.4 0.2
v -0.8 0.4 0.1
v -0.8 0.6 0.2
v -0.8 0.6 0.1
v 0 -0.6 0.1
v 0 -0.6 0
v 0 0.7 0.1
v 0 0.7 0
v -0.9 0.4 0.2
v -0.9 0.6 0.2
v -0.8 0.4 0.2
v -0.8 0.6 0.2
v -1 -0.6 0.1
v -1 0.7 0.1
v -0.9 -0.4 0.1
v -0.9 0.4 0.1
v -0.9 0.6 0.1
v -0.9 0.7 0.1
v -0.8 -0.1 0.1
v -0.8 0.3 0.1
v -0.8 0.4 0.1
v -0.8 0.6 0.1
v -0.8 0.7 0.1
v -0.7 -0.4 0.1
v -0.7 -0.3 0.1
v -0.7 -0.1 0.1
v -0.7 0.3 0.1
v -0.6 0.5 0.1
v -0.6 0.6 0.1
v -0.6 0.7 0.1
v -0.5 0.4 0.1
v -0.5 0.5 0.1
v -0.5 0.6 0.1
v -0.5 0.7 0.1
v -0.4 -0.4 0.1
v -0.4 -0.3 0.1
v -0.4 -0.1 0.1
v -0.4 0.2 0.1
v -0.4 0.4 0.1
v -0.4 0.5 0.1
v -0.4 0.6 0.1
v -0.3 -0.1 0.1
v -0.3 0.2 0.1
v -0.3 0.3 0.1
v -0.3 0.4 0.1
v -0.3 0.5 0.1
v -0.3 0.6 0.1
v -0.2 -0.5 0.1
v -0.2 -0.4 0.1
v -0.2 0.6 0.1
v -0.2 0.7 0.1
v -0.1 -0.5 0.1
v -0.1 0.3 0.1
v 0 -0.6 0.1
v 0 0.7 0.1
v -1 -0.6 0
v -1 0.7 0
v -0.9 -0.4 0
v -0.9 0.6 0
v -0.9 0.7 0
v -0.8 -0.1 0
v -0.8 0.3 0
v -0.8 0.6 0
v -0.8 0.7 0
v -0.7 -0.4 0
v -0.7 -0.3 0
v -0.7 -0.1 0
v -0.7 0.3 0
v -0.6 0.5 0
v -0.6 0.6 0
v -0.6 0.7 0
v -0.5 0.4 0
v -0.5 0.5 0
v -0.5 0.6 0
v -0.5 0.7 0
v -0.4 -0.4 0
v -0.4 -0.3 0
v -0.4 -0.1 0
v -0.4 0.2 0
v -0.4 0.4 0
v -0.4 0.5 0
v -0.4 0.6 0
v -0.3 -0.1 0
v -0.3 0.2 0
v -0.3 0.3 0
v -0.3 0.4 0
v -0.3 0.5 0
v -0.3 0.6 0
v -0.2 -0.5 0
v -0.2 -0.4 0
v -0.2 0.6 0
v -0.2 0.7 0
v -0.1 -0.5 0
v -0.1 0.3 0
v 0 -0.6 0
v 0 0.7 0
v -1 -0.6 0.1
v 0 -0.6 0.1
v -1 -0.6 0
v 0 -0.6 0
v -0.9 0.4 0.2
v -0.8 0.4 0.2
v -0.9 0.4 0.1
v -0.8 0.4 0.1
v -0.9 0.6 0.2
v -0.8 0.6 0.2
v -0.9 0.6 0.1
v -0.8 0.6 0.1
v -1 0.7 0.1
v -0.9 0.7 0.1
v -0.8 0.7 0.1
v -0.6 0.7 0.1
v -0.5 0.7 0.1
v -0.2 0.7 0.1
v 0 0.7 0.1
v -1 0.7 0
v -0.9 0.7 0
v -0.8 0.7 0
v -0.6 0.7 0
v -0.5 0.7 0
v -0.2 0.7 0
v 0 0.7 0

# faces
f 3/2/1 2/2/1 1/2/1
f 4/2/1 2/2/1 3/2/1
f 7/2/1 6/2/1 5/2/1
f 8/2/1 6/2/1 7/2/1
f 9/2/2 10/2/2 11/2/2
f 11/2/2 10/2/2 12/2/2
f 13/2/2 14/2/2 15/2/2
f 15/2/2 14/2/2 16/2/2
f 19/2/3 18/2/3 17/2/3
f 20/2/3 18/2/3 19/2/3
f 23/2/3 22/2/3 21/2/3
f 24/2/3 22/2/3 23/2/3
f 25/2/3 22/2/3 24/2/3
f 26/2/3 22/2/3 25/2/3
f 27/3/3 24/3/3 23/3/3
f 28/3/3 24/3/3 27/3/3
f 29/3/3 24/3/3 28/3/3
f 30/4/3 26/4/3 25/4/3
f 31/4/3 26/4/3 30/4/3
f 32/2/3 23/2/3 21/2/3
f 32/3/3 27/3/3 23/3/3
f 33/3/3 27/3/3 32/3/3
f 34/1/3 28/1/3 27/1/3
f 34/3/3 27/3/3 33/3/3
f 35/3/3 29/3/3 28/3/3
f 35/1/3 28/1/3 34/1/3
f 35/3/3 30/3/3 29/3/3
f 36/3/3 34/3/3 33/3/3
f 36/3/3 30/3/3 35/3/3
f 36/3/3 35/3/3 34/3/3
f 37/2/3 31/2/3 30/2/3
f 37/3/3 30/3/3 36/3/3
f 38/2/3 31/2/3 37/2/3
f 39/3/3 36/3/3 33/3/3
f 40/4/3 37/4/3 36/4/3
f 40/3/3 36/3/3 39/3/3
f 40/4/3 38/4/3 37/4/3
f 41/4/3 38/4/3 40/4/3
f 42/4/3 38/4/3 41/4/3
f 43/2/3 32/2/3 21/2/3
f 43/2/3 33/2/3 32/2/3
f 44/3/3 39/3/3 33/3/3
f 44/2/3 33/2/3 43/2/3
f 45/3/3 39/3/3 44/3/3
f 46/3/3 39/3/3 45/3/3
f 47/2/3 40/2/3 39/2/3
f 47/3/3 39/3/3 46/3/3
f 47/2/3 41/2/3 40/2/3
f 48/2/3 41/2/3 47/2/3
f 49/5/3 42/5/3 41/5/3
f 49/2/3 41/2/3 48/2/3
f 50/1/3 46/1/3 45/1/3
f 50/3/3 45/3/3 44/3/3
f 50/3/3 44/3/3 43/3/3
f 51/3/3 47/3/3 46/3/3
f 51/1/3 46/1/3 50/1/3
f 52/3/3 47/3/3 51/3/3
f 53/4/3 48/4/3 47/4/3
f 53/3/3 47/3/3 52/3/3
f 54/5/3 49/5/3 48/5/3
f 54/4/3 48/4/3 53/4/3
f 55/5/3 42/5/3 49/5/3
f 55/5/3 49/5/3 54/5/3
f 56/2/3 43/2/3 21/2/3
f 57/3/3 52/3/3 51/3/3
f 57/2/3 43/2/3 56/2/3
f 57/3/3 50/3/3 43/3/3
f 57/3/3 51/3/3 50/3/3
f 58/5/3 42/5/3 55/5/3
f 58/2/3 54/2/3 53/2/3
f 58/2/3 53/2/3 52/2/3
f 58/2/3 55/2/3 54/2/3
f 59/5/3 42/5/3 58/5/3
f 60/2/3 56/2/3 21/2/3
f 60/3/3 57/3/3 56/3/3
f 61/3/3 52/3/3 57/3/3
f 61/3/3 57/3/3 60/3/3
f 61/2/3 59/2/3 58/2/3
f 61/2/3 58/2/3 52/2/3
f 62/2/3 60/2/3 21/2/3
f 62/2/3 61/2/3 60/2/3
f 63/2/3 59/2/3 61/2/3
f 63/2/3 61/2/3 62/2/3
f 64/2/4 65/2/4 66/2/4
f 66/2/4 65/2/4 67/2/4
f 67/2/4 65/2/4 68/2/4
f 66/3/4 67/3/4 69/3/4
f 69/3/4 67/3/4 70/3/4
f 67/4/4 68/4/4 71/4/4
f 70/3/4 67/3/4 71/3/4
f 71/4/4 68/4/4 72/4/4
f 64/2/4 66/2/4 73/2/4
f 66/3/4 69/3/4 73/3/4
f 73/3/4 69/3/4 74/3/4
f 69/1/4 70/1/4 75/1/4
f 74/3/4 69/3/4 75/3/4
f 70/3/4 71/3/4 76/3/4
f 75/1/4 70/1/4 76/1/4
f 74/3/4 75/3/4 77/3/4
f 76/3/4 71/3/4 77/3/4
f 75/3/4 76/3/4 77/3/4
f 71/2/4 72/2/4 78/2/4
f 77/3/4 71/3/4 78/3/4
f 78/2/4 72/2/4 79/2/4
f 74/3/4 77/3/4 80/3/4
f 77/4/4 78/4/4 81/4/4
f 80/3/4 77/3/4 81/3/4
f 78/4/4 79/4/4 81/4/4
f 81/4/4 79/4/4 82/4/4
f 82/4/4 79/4/4 83/4/4
f 73/2/4 74/2/4 84/2/4
f 64/2/4 73/2/4 84/2/4
f 74/3/4 80/3/4 85/3/4
f 84/2/4 74/2/4 85/2/4
f 85/3/4 80/3/4 86/3/4
f 86/3/4 80/3/4 87/3/4
f 80/2/4 81/2/4 88/2/4
f 87/3/4 80/3/4 88/3/4
f 81/2/4 82/2/4 88/2/4
f 88/2/4 82/2/4 89/2/4
f 82/5/4 83/5/4 90/5/4
f 89/2/4 82/2/4 90/2/4
f 86/1/4 87/1/4 91/1/4
f 85/3/4 86/3/4 91/3/4
f 84/3/4 85/3/4 91/3/4
f 87/3/4 88/3/4 92/3/4
f 91/1/4 87/1/4 92/1/4
f 92/3/4 88/3/4 93/3/4
f 88/4/4 89/4/4 94/4/4
f 93/3/4 88/3/4 94/3/4
f 89/5/4 90/5/4 95/5/4
f 94/4/4 89/4/4 95/4/4
f 90/5/4 83/5/4 96/5/4
f 95/5/4 90/5/4 96/5/4
f 64/2/4 84/2/4 97/2/4
f 92/3/4 93/3/4 98/3/4
f 97/2/4 84/2/4 98/2/4
f 84/3/4 91/3/4 98/3/4
f 91/3/4 92/3/4 98/3/4
f 96/5/4 83/5/4 99/5/4
f 94/2/4 95/2/4 99/2/4
f 93/2/4 94/2/4 99/2/4
f 95/2/4 96/2/4 99/2/4
f 99/5/4 83/5/4 100/5/4
f 64/2/4 97/2/4 101/2/4
f 97/3/4 98/3/4 101/3/4
f 98/3/4 93/3/4 102/3/4
f 101/3/4 98/3/4 102/3/4
f 99/2/4 100/2/4 102/2/4
f 93/2/4 99/2/4 102/2/4
f 64/2/4 101/2/4 103/2/4
f 101/2/4 102/2/4 103/2/4
f 102/2/4 100/2/4 104/2/4
f 103/2/4 102/2/4 104/2/4
f 107/2/5 106/2/5 105/2/5
f 108/2/5 106/2/5 107/2/5
f 111/2/5 110/2/5 109/2/5
f 112/2/5 110/2/5 111/2/5
f 113/2/6 114/2/6 115/2/6
f 115/2/6 114/2/6 116/2/6
f 117/2/6 118/2/6 124/2/6
f 118/4/6 119/4/6 125/4/6
f 124/2/6 118/2/6 125/2/6
f 119/2/6 120/2/6 126/2/6
f 125/4/6 119/4/6 126/4/6
f 120/4/6 121/4/6 127/4/6
f 126/2/6 120/2/6 127/2/6
f 121/5/6 122/5/6 128/5/6
f 127/4/6 121/4/6 128/4/6
f 122/2/6 123/2/6 129/2/6
f 128/5/6 122/5/6 129/5/6
f 129/2/6 123/2/6 130/2/6
