# MagicaVoxel @ Ephtracy

# group
o 

# material
mtllib Kitchen_cabinets-0.mtl
usemtl palette

# normals
vn -1 0 0
vn 1 0 0
vn 0 0 1
vn 0 0 -1
vn 0 -1 0
vn 0 1 0

# texcoords
vt 0.818359 0.5
vt 0.845703 0.5
vt 0.876953 0.5
vt 0.880859 0.5
vt 0.884766 0.5
vt 0.888672 0.5

# verts
v -0.2 -0.4 0.1
v -0.2 -0.4 -0.2
v -0.2 -0.3 0.1
v -0.2 -0.3 -0.2
v -0.2 -0.2 0.1
v -0.2 -0.2 -0.2
v -0.2 0 0.1
v -0.2 0 -0.2
v -0.1 -0.5 0.1
v -0.1 -0.5 -0.2
v -0.1 -0.4 0.2
v -0.1 -0.4 0.1
v -0.1 -0.4 -0.2
v -0.1 -0.4 -0.3
v -0.1 -0.3 0.2
v -0.1 -0.3 0.1
v -0.1 -0.3 -0.2
v -0.1 -0.3 -0.3
v -0.1 -0.2 0.2
v -0.1 -0.2 0.1
v -0.1 -0.2 -0.2
v -0.1 -0.2 -0.3
v -0.1 0 0.2
v -0.1 0 0.1
v -0.1 0 0
v -0.1 0 -0.1
v -0.1 0 -0.2
v -0.1 0 -0.3
v -0.1 0.1 0
v -0.1 0.1 -0.1
v -0.1 0.3 0.1
v -0.1 0.3 0
v -0.1 0.3 -0.1
v -0.1 0.3 -0.2
v -0.1 0.4 0
v -0.1 0.4 -0.1
v -0.1 0.5 0.1
v -0.1 0.5 0
v -0.1 0.5 -0.1
v -0.1 0.5 -0.2
v 0 -0.1 0
v 0 -0.1 -0.1
v 0 0 0.1
v 0 0 0
v 0 0 -0.1
v 0 0 -0.2
v 0 0.1 0.1
v 0 0.1 0
v 0 0.1 -0.1
v 0 0.1 -0.2
v 0 0.2 0
v 0 0.2 -0.1
v 0 0.3 0
v 0 0.3 -0.1
v 0 0.4 0
v 0 0.4 -0.1
v 0 0.5 0
v 0 0.5 -0.1
v 0.1 0.4 0.1
v 0.1 0.4 0
v 0.1 0.4 -0.1
v 0.1 0.4 -0.2
v 0.1 0.5 0.1
v 0.1 0.5 0
v 0.1 0.5 -0.1
v 0.1 0.5 -0.2
v 0.2 -0.1 0.1
v 0.2 -0.1 -0.2
v 0.2 0 0.1
v 0.2 0 0
v 0.2 0 -0.1
v 0.2 0 -0.2
v -0.1 -0.1 0.1
v -0.1 -0.1 -0.2
v -0.1 0 0.1
v -0.1 0 0
v -0.1 0 -0.1
v -0.1 0 -0.2
v 0 0.4 0.1
v 0 0.4 0
v 0 0.4 -0.1
v 0 0.4 -0.2
v 0 0.5 0.1
v 0 0.5 0
v 0 0.5 -0.1
v 0 0.5 -0.2
v 0.1 -0.1 0
v 0.1 -0.1 -0.1
v 0.1 0 0.1
v 0.1 0 0
v 0.1 0 -0.1
v 0.1 0 -0.2
v 0.1 0.1 0.1
v 0.1 0.1 0
v 0.1 0.1 -0.1
v 0.1 0.1 -0.2
v 0.1 0.2 0
v 0.1 0.2 -0.1
v 0.1 0.3 0
v 0.1 0.3 -0.1
v 0.1 0.4 0
v 0.1 0.4 -0.1
v 0.1 0.5 0
v 0.1 0.5 -0.1
v 0.2 -0.5 0.1
v 0.2 -0.5 -0.2
v 0.2 -0.4 0.2
v 0.2 -0.4 0.1
v 0.2 -0.4 -0.2
v 0.2 -0.4 -0.3
v 0.2 -0.3 0.2
v 0.2 -0.3 0.1
v 0.2 -0.3 -0.2
v 0.2 -0.3 -0.3
v 0.2 -0.2 0.2
v 0.2 -0.2 0.1
v 0.2 -0.2 -0.2
v 0.2 -0.2 -0.3
v 0.2 0 0.2
v 0.2 0 0.1
v 0.2 0 0
v 0.2 0 -0.1
v 0.2 0 -0.2
v 0.2 0 -0.3
v 0.2 0.1 0
v 0.2 0.1 -0.1
v 0.2 0.3 0.1
v 0.2 0.3 0
v 0.2 0.3 -0.2
v 0.2 0.4 0
v 0.2 0.4 -0.1
v 0.2 0.5 0.1
v 0.2 0.5 0
v 0.2 0.5 -0.1
v 0.2 0.5 -0.2
v 0.3 -0.4 0.1
v 0.3 -0.4 -0.2
v 0.3 -0.3 0.1
v 0.3 -0.3 -0.2
v 0.3 -0.2 0.1
v 0.3 -0.2 -0.2
v 0.3 0 0.1
v 0.3 0 -0.2
v -0.1 -0.4 0.2
v -0.1 -0.3 0.2
v -0.1 -0.2 0.2
v -0.1 0 0.2
v 0.2 -0.4 0.2
v 0.2 -0.3 0.2
v 0.2 -0.2 0.2
v 0.2 0 0.2
v -0.2 -0.4 0.1
v -0.2 -0.3 0.1
v -0.2 -0.2 0.1
v -0.2 0 0.1
v -0.1 -0.5 0.1
v -0.1 -0.4 0.1
v -0.1 -0.3 0.1
v -0.1 -0.2 0.1
v -0.1 0 0.1
v -0.1 0.3 0.1
v -0.1 0.5 0.1
v 0 0 0.1
v 0 0.1 0.1
v 0 0.4 0.1
v 0 0.5 0.1
v 0.1 0 0.1
v 0.1 0.1 0.1
v 0.1 0.4 0.1
v 0.1 0.5 0.1
v 0.2 -0.5 0.1
v 0.2 -0.4 0.1
v 0.2 -0.3 0.1
v 0.2 -0.2 0.1
v 0.2 0 0.1
v 0.2 0.3 0.1
v 0.2 0.5 0.1
v 0.3 -0.4 0.1
v 0.3 -0.3 0.1
v 0.3 -0.2 0.1
v 0.3 0 0.1
v -0.1 0 0
v -0.1 0.1 0
v 0 -0.1 0
v 0 0 0
v 0 0.1 0
v 0 0.2 0
v 0 0.3 0
v 0 0.4 0
v 0 0.5 0
v 0.1 -0.1 0
v 0.1 0 0
v 0.1 0.1 0
v 0.1 0.2 0
v 0.1 0.3 0
v 0.1 0.4 0
v 0.1 0.5 0
v 0.2 0 0
v 0.2 0.1 0
v -0.1 0.4 -0.1
v -0.1 0.5 -0.1
v 0 0.4 -0.1
v 0 0.5 -0.1
v 0.1 0.4 -0.1
v 0.1 0.5 -0.1
v 0.2 0.4 -0.1
v 0.2 0.5 -0.1
v -0.1 -0.1 -0.2
v -0.1 0 -0.2
v 0 0 -0.2
v 0.1 0 -0.2
v 0.2 -0.1 -0.2
v 0.2 0 -0.2
v -0.1 -0.1 0.1
v -0.1 0 0.1
v 0 0 0.1
v 0.1 0 0.1
v 0.2 -0.1 0.1
v 0.2 0 0.1
v -0.1 0.4 0
v -0.1 0.5 0
v 0 0.4 0
v 0 0.5 0
v 0.1 0.4 0
v 0.1 0.5 0
v 0.2 0.4 0
v 0.2 0.5 0
v -0.1 0 -0.1
v -0.1 0.1 -0.1
v 0 -0.1 -0.1
v 0 0 -0.1
v 0 0.1 -0.1
v 0 0.2 -0.1
v 0 0.3 -0.1
v 0 0.4 -0.1
v 0 0.5 -0.1
v 0.1 -0.1 -0.1
v 0.1 0 -0.1
v 0.1 0.1 -0.1
v 0.1 0.2 -0.1
v 0.1 0.3 -0.1
v 0.1 0.4 -0.1
v 0.1 0.5 -0.1
v 0.2 0 -0.1
v 0.2 0.1 -0.1
v -0.2 -0.4 -0.2
v -0.2 -0.3 -0.2
v -0.2 -0.2 -0.2
v -0.2 0 -0.2
v -0.1 -0.5 -0.2
v -0.1 -0.4 -0.2
v -0.1 -0.3 -0.2
v -0.1 -0.2 -0.2
v -0.1 0 -0.2
v -0.1 0.3 -0.2
v -0.1 0.5 -0.2
v 0 0 -0.2
v 0 0.1 -0.2
v 0 0.4 -0.2
v 0 0.5 -0.2
v 0.1 0 -0.2
v 0.1 0.1 -0.2
v 0.1 0.3 -0.2
v 0.1 0.4 -0.2
v 0.1 0.5 -0.2
v 0.2 -0.5 -0.2
v 0.2 -0.4 -0.2
v 0.2 -0.3 -0.2
v 0.2 -0.2 -0.2
v 0.2 0 -0.2
v 0.2 0.3 -0.2
v 0.2 0.5 -0.2
v 0.3 -0.4 -0.2
v 0.3 -0.3 -0.2
v 0.3 -0.2 -0.2
v 0.3 0 -0.2
v -0.1 -0.4 -0.3
v -0.1 -0.3 -0.3
v -0.1 -0.2 -0.3
v -0.1 0 -0.3
v 0.2 -0.4 -0.3
v 0.2 -0.3 -0.3
v 0.2 -0.2 -0.3
v 0.2 0 -0.3
v -0.1 -0.5 0.1
v 0.2 -0.5 0.1
v -0.1 -0.5 -0.2
v 0.2 -0.5 -0.2
v -0.1 -0.4 0.2
v 0.2 -0.4 0.2
v -0.2 -0.4 0.1
v -0.1 -0.4 0.1
v 0.2 -0.4 0.1
v 0.3 -0.4 0.1
v -0.2 -0.4 -0.2
v -0.1 -0.4 -0.2
v 0.2 -0.4 -0.2
v 0.3 -0.4 -0.2
v -0.1 -0.4 -0.3
v 0.2 -0.4 -0.3
v 0 0 0.1
v 0.1 0 0.1
v -0.1 0 0
v 0 0 0
v 0.1 0 0
v 0.2 0 0
v -0.1 0 -0.1
v 0 0 -0.1
v 0.1 0 -0.1
v 0.2 0 -0.1
v 0 0 -0.2
v 0.1 0 -0.2
v -0.1 0.3 0.1
v 0.2 0.3 0.1
v -0.1 0.3 0
v 0 0.3 0
v 0.1 0.3 0
v 0.2 0.3 0
v -0.1 0.3 -0.1
v 0 0.3 -0.1
v 0.1 0.3 -0.1
v -0.1 0.3 -0.2
v 0.1 0.3 -0.2
v 0.2 0.3 -0.2
v -0.1 -0.1 0.1
v 0.2 -0.1 0.1
v 0 -0.1 0
v 0.1 -0.1 0
v 0 -0.1 -0.1
v 0.1 -0.1 -0.1
v -0.1 -0.1 -0.2
v 0.2 -0.1 -0.2
v -0.1 0 0.2
v 0.2 0 0.2
v -0.2 0 0.1
v -0.1 0 0.1
v 0 0 0.1
v 0.1 0 0.1
v 0.2 0 0.1
v 0.3 0 0.1
v -0.1 0 0
v 0.2 0 0
v -0.1 0 -0.1
v 0.2 0 -0.1
v -0.2 0 -0.2
v -0.1 0 -0.2
v 0 0 -0.2
v 0.1 0 -0.2
v 0.2 0 -0.2
v 0.3 0 -0.2
v -0.1 0 -0.3
v 0.2 0 -0.3
v 0 0.1 0.1
v 0.1 0.1 0.1
v -0.1 0.1 0
v 0 0.1 0
v 0.1 0.1 0
v 0.2 0.1 0
v -0.1 0.1 -0.1
v 0 0.1 -0.1
v 0.1 0.1 -0.1
v 0.2 0.1 -0.1
v 0 0.1 -0.2
v 0.1 0.1 -0.2
v 0 0.4 0.1
v 0.1 0.4 0.1
v -0.1 0.4 0
v 0 0.4 0
v 0.1 0.4 0
v 0.2 0.4 0
v -0.1 0.4 -0.1
v 0 0.4 -0.1
v 0.1 0.4 -0.1
v 0.2 0.4 -0.1
v 0 0.4 -0.2
v 0.1 0.4 -0.2
v -0.1 0.5 0.1
v 0 0.5 0.1
v 0.1 0.5 0.1
v 0.2 0.5 0.1
v -0.1 0.5 0
v 0 0.5 0
v 0.1 0.5 0
v 0.2 0.5 0
v -0.1 0.5 -0.1
v 0 0.5 -0.1
v 0.1 0.5 -0.1
v 0.2 0.5 -0.1
v -0.1 0.5 -0.2
v 0 0.5 -0.2
v 0.1 0.5 -0.2
v 0.2 0.5 -0.2

# faces
f 3/2/1 2/2/1 1/2/1
f 4/2/1 2/2/1 3/2/1
f 5/6/1 4/6/1 3/6/1
f 6/6/1 4/6/1 5/6/1
f 7/2/1 6/2/1 5/2/1
f 8/2/1 6/2/1 7/2/1
f 12/2/1 10/2/1 9/2/1
f 13/2/1 10/2/1 12/2/1
f 15/2/1 12/2/1 11/2/1
f 16/2/1 12/2/1 15/2/1
f 17/2/1 14/2/1 13/2/1
f 18/2/1 14/2/1 17/2/1
f 19/6/1 16/6/1 15/6/1
f 20/6/1 16/6/1 19/6/1
f 21/6/1 18/6/1 17/6/1
f 22/6/1 18/6/1 21/6/1
f 23/2/1 20/2/1 19/2/1
f 24/2/1 20/2/1 23/2/1
f 27/2/1 22/2/1 21/2/1
f 28/2/1 22/2/1 27/2/1
f 29/1/1 26/1/1 25/1/1
f 30/1/1 26/1/1 29/1/1
f 35/5/1 33/5/1 32/5/1
f 35/4/1 32/4/1 31/4/1
f 36/4/1 34/4/1 33/4/1
f 36/5/1 33/5/1 35/5/1
f 37/4/1 35/4/1 31/4/1
f 38/4/1 35/4/1 37/4/1
f 39/4/1 34/4/1 36/4/1
f 40/4/1 34/4/1 39/4/1
f 44/1/1 42/1/1 41/1/1
f 45/1/1 42/1/1 44/1/1
f 47/1/1 44/1/1 43/1/1
f 48/1/1 44/1/1 47/1/1
f 49/1/1 46/1/1 45/1/1
f 50/1/1 46/1/1 49/1/1
f 51/1/1 49/1/1 48/1/1
f 52/1/1 49/1/1 51/1/1
f 53/5/1 52/5/1 51/5/1
f 54/5/1 52/5/1 53/5/1
f 57/5/1 56/5/1 55/5/1
f 58/5/1 56/5/1 57/5/1
f 63/4/1 60/4/1 59/4/1
f 64/4/1 60/4/1 63/4/1
f 65/5/1 62/5/1 61/5/1
f 66/5/1 62/5/1 65/5/1
f 69/2/1 68/2/1 67/2/1
f 70/2/1 68/2/1 69/2/1
f 71/2/1 68/2/1 70/2/1
f 72/2/1 68/2/1 71/2/1
f 73/2/2 74/2/2 75/2/2
f 75/2/2 74/2/2 76/2/2
f 76/2/2 74/2/2 77/2/2
f 77/2/2 74/2/2 78/2/2
f 79/4/2 80/4/2 83/4/2
f 83/4/2 80/4/2 84/4/2
f 81/4/2 82/4/2 85/4/2
f 85/4/2 82/4/2 86/4/2
f 87/1/2 88/1/2 90/1/2
f 90/1/2 88/1/2 91/1/2
f 89/1/2 90/1/2 93/1/2
f 93/1/2 90/1/2 94/1/2
f 91/1/2 92/1/2 95/1/2
f 95/1/2 92/1/2 96/1/2
f 94/1/2 95/1/2 97/1/2
f 97/1/2 95/1/2 98/1/2
f 97/5/2 98/5/2 99/5/2
f 99/5/2 98/5/2 100/5/2
f 101/5/2 102/5/2 103/5/2
f 103/5/2 102/5/2 104/5/2
f 105/2/2 106/2/2 108/2/2
f 108/2/2 106/2/2 109/2/2
f 107/2/2 108/2/2 111/2/2
f 111/2/2 108/2/2 112/2/2
f 109/2/2 110/2/2 113/2/2
f 113/2/2 110/2/2 114/2/2
f 111/6/2 112/6/2 115/6/2
f 115/6/2 112/6/2 116/6/2
f 113/6/2 114/6/2 117/6/2
f 117/6/2 114/6/2 118/6/2
f 115/2/2 116/2/2 119/2/2
f 119/2/2 116/2/2 120/2/2
f 117/2/2 118/2/2 123/2/2
f 123/2/2 118/2/2 124/2/2
f 121/1/2 122/1/2 125/1/2
f 125/1/2 122/1/2 126/1/2
f 127/4/2 128/4/2 130/4/2
f 128/5/2 129/5/2 130/5/2
f 130/5/2 129/5/2 131/5/2
f 127/4/2 130/4/2 132/4/2
f 132/4/2 130/4/2 133/4/2
f 131/5/2 129/5/2 134/5/2
f 134/5/2 129/5/2 135/5/2
f 136/2/2 137/2/2 138/2/2
f 138/2/2 137/2/2 139/2/2
f 138/6/2 139/6/2 140/6/2
f 140/6/2 139/6/2 141/6/2
f 140/2/2 141/2/2 142/2/2
f 142/2/2 141/2/2 143/2/2
f 148/2/3 145/2/3 144/2/3
f 149/6/3 146/6/3 145/6/3
f 149/2/3 145/2/3 148/2/3
f 150/2/3 147/2/3 146/2/3
f 150/6/3 146/6/3 149/6/3
f 151/2/3 147/2/3 150/2/3
f 157/2/3 153/2/3 152/2/3
f 158/6/3 154/6/3 153/6/3
f 158/2/3 153/2/3 157/2/3
f 159/2/3 155/2/3 154/2/3
f 159/6/3 154/6/3 158/6/3
f 160/2/3 155/2/3 159/2/3
f 165/4/3 162/4/3 161/4/3
f 166/4/3 162/4/3 165/4/3
f 167/1/3 164/1/3 163/1/3
f 168/1/3 164/1/3 167/1/3
f 169/4/3 165/4/3 161/4/3
f 171/2/3 157/2/3 156/2/3
f 172/2/3 157/2/3 171/2/3
f 176/4/3 170/4/3 169/4/3
f 176/4/3 169/4/3 161/4/3
f 177/4/3 170/4/3 176/4/3
f 178/2/3 173/2/3 172/2/3
f 179/6/3 174/6/3 173/6/3
f 179/2/3 173/2/3 178/2/3
f 180/2/3 175/2/3 174/2/3
f 180/6/3 174/6/3 179/6/3
f 181/2/3 175/2/3 180/2/3
f 185/1/3 183/1/3 182/1/3
f 186/1/3 183/1/3 185/1/3
f 191/1/3 185/1/3 184/1/3
f 192/1/3 185/1/3 191/1/3
f 193/1/3 187/1/3 186/1/3
f 194/5/3 188/5/3 187/5/3
f 194/1/3 187/1/3 193/1/3
f 195/5/3 188/5/3 194/5/3
f 196/5/3 190/5/3 189/5/3
f 197/5/3 190/5/3 196/5/3
f 198/1/3 193/1/3 192/1/3
f 199/1/3 193/1/3 198/1/3
f 202/4/3 201/4/3 200/4/3
f 203/4/3 201/4/3 202/4/3
f 206/5/3 205/5/3 204/5/3
f 207/5/3 205/5/3 206/5/3
f 210/2/3 209/2/3 208/2/3
f 211/2/3 210/2/3 208/2/3
f 212/2/3 211/2/3 208/2/3
f 213/2/3 211/2/3 212/2/3
f 214/2/4 215/2/4 216/2/4
f 214/2/4 216/2/4 217/2/4
f 214/2/4 217/2/4 218/2/4
f 218/2/4 217/2/4 219/2/4
f 220/4/4 221/4/4 222/4/4
f 222/4/4 221/4/4 223/4/4
f 224/4/4 225/4/4 226/4/4
f 226/4/4 225/4/4 227/4/4
f 228/1/4 229/1/4 231/1/4
f 231/1/4 229/1/4 232/1/4
f 230/1/4 231/1/4 237/1/4
f 237/1/4 231/1/4 238/1/4
f 232/1/4 233/1/4 239/1/4
f 233/5/4 234/5/4 240/5/4
f 239/1/4 233/1/4 240/1/4
f 240/5/4 234/5/4 241/5/4
f 235/5/4 236/5/4 242/5/4
f 242/5/4 236/5/4 243/5/4
f 238/1/4 239/1/4 244/1/4
f 244/1/4 239/1/4 245/1/4
f 246/2/4 247/2/4 251/2/4
f 247/6/4 248/6/4 252/6/4
f 251/2/4 247/2/4 252/2/4
f 248/2/4 249/2/4 253/2/4
f 252/6/4 248/6/4 253/6/4
f 253/2/4 249/2/4 254/2/4
f 255/4/4 256/4/4 259/4/4
f 259/4/4 256/4/4 260/4/4
f 257/1/4 258/1/4 261/1/4
f 261/1/4 258/1/4 262/1/4
f 255/4/4 259/4/4 263/4/4
f 263/4/4 259/4/4 264/4/4
f 250/2/4 251/2/4 266/2/4
f 266/2/4 251/2/4 267/2/4
f 264/5/4 265/5/4 271/5/4
f 263/5/4 264/5/4 271/5/4
f 271/5/4 265/5/4 272/5/4
f 267/2/4 268/2/4 273/2/4
f 268/6/4 269/6/4 274/6/4
f 273/2/4 268/2/4 274/2/4
f 269/2/4 270/2/4 275/2/4
f 274/6/4 269/6/4 275/6/4
f 275/2/4 270/2/4 276/2/4
f 277/2/4 278/2/4 281/2/4
f 278/6/4 279/6/4 282/6/4
f 281/2/4 278/2/4 282/2/4
f 279/2/4 280/2/4 283/2/4
f 282/6/4 279/6/4 283/6/4
f 283/2/4 280/2/4 284/2/4
f 287/2/5 286/2/5 285/2/5
f 288/2/5 286/2/5 287/2/5
f 292/2/5 290/2/5 289/2/5
f 293/2/5 290/2/5 292/2/5
f 295/2/5 292/2/5 291/2/5
f 296/2/5 292/2/5 295/2/5
f 297/2/5 294/2/5 293/2/5
f 298/2/5 294/2/5 297/2/5
f 299/2/5 297/2/5 296/2/5
f 300/2/5 297/2/5 299/2/5
f 304/1/5 302/1/5 301/1/5
f 305/1/5 302/1/5 304/1/5
f 307/1/5 304/1/5 303/1/5
f 308/1/5 304/1/5 307/1/5
f 309/1/5 306/1/5 305/1/5
f 310/1/5 306/1/5 309/1/5
f 311/1/5 309/1/5 308/1/5
f 312/1/5 309/1/5 311/1/5
f 315/4/5 314/4/5 313/4/5
f 316/4/5 314/4/5 315/4/5
f 317/4/5 314/4/5 316/4/5
f 318/4/5 314/4/5 317/4/5
f 319/5/5 316/5/5 315/5/5
f 320/5/5 316/5/5 319/5/5
f 321/5/5 318/5/5 317/5/5
f 322/4/5 320/4/5 319/4/5
f 322/4/5 321/4/5 320/4/5
f 323/5/5 318/5/5 321/5/5
f 323/4/5 321/4/5 322/4/5
f 324/5/5 318/5/5 323/5/5
f 325/2/6 326/2/6 327/2/6
f 327/2/6 326/2/6 328/2/6
f 325/2/6 327/2/6 329/2/6
f 328/2/6 326/2/6 330/2/6
f 325/2/6 329/2/6 331/2/6
f 329/2/6 330/2/6 331/2/6
f 330/2/6 326/2/6 332/2/6
f 331/2/6 330/2/6 332/2/6
f 333/2/6 334/2/6 336/2/6
f 336/2/6 334/2/6 337/2/6
f 337/2/6 334/2/6 338/2/6
f 338/2/6 334/2/6 339/2/6
f 335/2/6 336/2/6 341/2/6
f 339/2/6 340/2/6 342/2/6
f 335/2/6 341/2/6 343/2/6
f 342/2/6 340/2/6 344/2/6
f 335/2/6 343/2/6 345/2/6
f 345/2/6 343/2/6 346/2/6
f 344/2/6 340/2/6 349/2/6
f 349/2/6 340/2/6 350/2/6
f 347/2/6 348/2/6 351/2/6
f 348/2/6 349/2/6 351/2/6
f 346/2/6 347/2/6 351/2/6
f 351/2/6 349/2/6 352/2/6
f 353/1/6 354/1/6 356/1/6
f 356/1/6 354/1/6 357/1/6
f 355/1/6 356/1/6 359/1/6
f 359/1/6 356/1/6 360/1/6
f 357/1/6 358/1/6 361/1/6
f 361/1/6 358/1/6 362/1/6
f 360/1/6 361/1/6 363/1/6
f 363/1/6 361/1/6 364/1/6
f 365/4/6 366/4/6 368/4/6
f 368/4/6 366/4/6 369/4/6
f 367/5/6 368/5/6 371/5/6
f 371/5/6 368/5/6 372/5/6
f 369/5/6 370/5/6 373/5/6
f 373/5/6 370/5/6 374/5/6
f 372/4/6 373/4/6 375/4/6
f 375/4/6 373/4/6 376/4/6
f 377/4/6 378/4/6 381/4/6
f 381/4/6 378/4/6 382/4/6
f 379/4/6 380/4/6 383/4/6
f 383/4/6 380/4/6 384/4/6
f 382/5/6 383/5/6 386/5/6
f 386/5/6 383/5/6 387/5/6
f 385/4/6 386/4/6 389/4/6
f 389/4/6 386/4/6 390/4/6
f 387/5/6 388/5/6 391/5/6
f 391/5/6 388/5/6 392/5/6
