# MagicaVoxel @ Ephtracy

# group
o 

# material
mtllib Kitchen_cabinets-22.mtl
usemtl palette

# normals
vn -1 0 0
vn 1 0 0
vn 0 0 1
vn 0 0 -1
vn 0 -1 0
vn 0 1 0

# texcoords
vt 0.630859 0.5
vt 0.634766 0.5
vt 0.892578 0.5
vt 0.896484 0.5
vt 0.951172 0.5
vt 0.955078 0.5
vt 0.978516 0.5
vt 0.986328 0.5

# verts
v -0.4 0.8 -1
v -0.4 0.8 -1.1
v -0.4 0.8 -1.3
v -0.4 0.8 -1.5
v -0.4 0.9 -1
v -0.4 0.9 -1.1
v -0.4 0.9 -1.3
v -0.4 0.9 -1.5
v -0.3 -0.1 -0.8
v -0.3 -0.1 -1.1
v -0.3 0.3 -0.3
v -0.3 0.3 -0.5
v -0.3 0.3 -0.8
v -0.3 0.3 -1.1
v -0.3 0.4 -0.2
v -0.3 0.4 -0.3
v -0.3 0.7 -0.2
v -0.3 0.7 -0.5
v -0.2 -1.1 -0.2
v -0.2 -1.1 -1.5
v -0.2 -1 -0.1
v -0.2 -1 -0.2
v -0.2 -1 -1.5
v -0.2 -1 -1.6
v -0.2 -0.9 2.23517e-08
v -0.2 -0.9 -0.1
v -0.2 -0.9 -0.8
v -0.2 -0.9 -0.9
v -0.2 -0.9 -1.1
v -0.2 -0.9 -1.2
v -0.2 -0.9 -1.6
v -0.2 -0.9 -1.7
v -0.2 -0.8 -0.2
v -0.2 -0.8 -0.3
v -0.2 -0.8 -0.4
v -0.2 -0.8 -0.5
v -0.2 -0.8 -0.7
v -0.2 -0.8 -0.8
v -0.2 -0.8 -1
v -0.2 -0.8 -1.1
v -0.2 -0.8 -1.3
v -0.2 -0.8 -1.5
v -0.2 -0.7 -0.1
v -0.2 -0.7 -0.2
v -0.2 -0.7 -0.3
v -0.2 -0.7 -0.4
v -0.2 -0.7 -0.5
v -0.2 -0.7 -0.7
v -0.2 -0.7 -0.9
v -0.2 -0.7 -1
v -0.2 -0.7 -1.1
v -0.2 -0.7 -1.2
v -0.2 -0.7 -1.3
v -0.2 -0.7 -1.4
v -0.2 -0.7 -1.5
v -0.2 -0.7 -1.6
v -0.2 -0.6 2.23517e-08
v -0.2 -0.6 -0.1
v -0.2 -0.6 -1
v -0.2 -0.6 -1.1
v -0.2 -0.6 -1.2
v -0.2 -0.6 -1.4
v -0.2 -0.4 -0.1
v -0.2 -0.4 -0.2
v -0.2 -0.4 -0.3
v -0.2 -0.4 -0.4
v -0.2 -0.4 -0.5
v -0.2 -0.4 -0.6
v -0.2 -0.4 -1.2
v -0.2 -0.4 -1.5
v -0.2 -0.3 -0.2
v -0.2 -0.3 -0.3
v -0.2 -0.3 -0.4
v -0.2 -0.3 -0.5
v -0.2 -0.3 -1.5
v -0.2 -0.3 -1.6
v -0.2 -0.2 2.23517e-08
v -0.2 -0.2 -0.1
v -0.2 -0.2 -0.3
v -0.2 -0.2 -0.4
v -0.2 -0.2 -0.5
v -0.2 -0.2 -0.6
v -0.2 -0.2 -1.5
v -0.2 -0.2 -1.6
v -0.2 -0.1 2.23517e-08
v -0.2 -0.1 -0.4
v -0.2 -0.1 -0.6
v -0.2 -0.1 -0.7
v -0.2 -0.1 -0.8
v -0.2 -0.1 -1.1
v -0.2 0 2.23517e-08
v -0.2 0 -0.1
v -0.2 0 -0.3
v -0.2 0 -0.4
v -0.2 0 -0.5
v -0.2 0 -1.5
v -0.2 0 -1.6
v -0.2 0.1 2.23517e-08
v -0.2 0.1 -0.1
v -0.2 0.1 -0.3
v -0.2 0.1 -0.4
v -0.2 0.2 2.23517e-08
v -0.2 0.2 -0.2
v -0.2 0.2 -0.4
v -0.2 0.2 -0.5
v -0.2 0.2 -0.6
v -0.2 0.2 -0.7
v -0.2 0.2 -1.5
v -0.2 0.2 -1.6
v -0.2 0.3 -0.2
v -0.2 0.3 -0.3
v -0.2 0.3 -0.5
v -0.2 0.3 -0.8
v -0.2 0.3 -1.1
v -0.2 0.3 -1.2
v -0.2 0.3 -1.3
v -0.2 0.3 -1.4
v -0.2 0.3 -1.5
v -0.2 0.4 -0.2
v -0.2 0.4 -0.3
v -0.2 0.4 -0.8
v -0.2 0.4 -1
v -0.2 0.4 -1.3
v -0.2 0.4 -1.4
v -0.2 0.4 -1.5
v -0.2 0.5 -0.7
v -0.2 0.5 -0.8
v -0.2 0.5 -0.9
v -0.2 0.5 -1
v -0.2 0.5 -1.1
v -0.2 0.6 -0.6
v -0.2 0.6 -0.7
v -0.2 0.6 -1
v -0.2 0.6 -1.1
v -0.2 0.7 -0.2
v -0.2 0.7 -0.5
v -0.2 0.7 -0.6
v -0.2 0.7 -0.9
v -0.2 0.7 -1
v -0.2 0.7 -1.4
v -0.2 0.7 -1.5
v -0.2 0.8 -0.4
v -0.2 0.8 -0.5
v -0.2 0.8 -0.6
v -0.2 0.8 -0.7
v -0.2 0.8 -1.4
v -0.2 0.8 -1.5
v -0.2 0.9 -0.1
v -0.2 0.9 -0.2
v -0.2 0.9 -0.4
v -0.2 0.9 -0.5
v -0.2 0.9 -0.6
v -0.2 0.9 -0.7
v -0.2 0.9 -0.8
v -0.2 0.9 -0.9
v -0.2 0.9 -1
v -0.2 0.9 -1.1
v -0.2 0.9 -1.2
v -0.2 0.9 -1.3
v -0.2 0.9 -1.4
v -0.2 0.9 -1.5
v -0.2 0.9 -1.6
v -0.2 0.9 -1.7
v -0.2 1 2.23517e-08
v -0.2 1 -0.1
v -0.2 1 -0.2
v -0.2 1 -0.3
v -0.2 1 -0.4
v -0.2 1 -0.5
v -0.2 1 -0.6
v -0.2 1 -0.7
v -0.2 1 -0.8
v -0.2 1 -0.9
v -0.2 1 -1
v -0.2 1 -1.1
v -0.2 1 -1.2
v -0.2 1 -1.3
v -0.2 1 -1.4
v -0.2 1 -1.5
v -0.2 1 -1.6
v -0.2 1.1 2.23517e-08
v -0.2 1.1 -0.1
v -0.2 1.1 -0.2
v -0.2 1.1 -0.3
v -0.2 1.1 -0.4
v -0.2 1.1 -0.5
v -0.2 1.1 -0.6
v -0.2 1.1 -0.7
v -0.2 1.1 -0.8
v -0.2 1.1 -1
v -0.2 1.1 -1.2
v -0.2 1.1 -1.4
v -0.2 1.1 -1.5
v -0.2 1.1 -1.7
v -0.3 0.8 -1
v -0.3 0.8 -1.1
v -0.3 0.8 -1.3
v -0.3 0.8 -1.4
v -0.3 0.9 -1
v -0.3 0.9 -1.1
v -0.3 0.9 -1.3
v -0.3 0.9 -1.4
v 0 -1.1 -0.2
v 0 -1.1 -0.3
v 0 -1.1 -1.5
v 0 -1 -0.1
v 0 -1 -0.2
v 0 -1 -0.3
v 0 -1 -1.5
v 0 -1 -1.6
v 0 -0.9 2.23517e-08
v 0 -0.9 -0.1
v 0 -0.9 -0.2
v 0 -0.9 -1.6
v 0 -0.9 -1.7
v 0 -0.8 2.23517e-08
v 0 -0.8 -0.1
v 0 0.1 2.23517e-08
v 0 0.1 -0.1
v 0 0.2 2.23517e-08
v 0 0.2 -0.1
v 0 0.9 2.23517e-08
v 0 0.9 -0.1
v 0 1 2.23517e-08
v 0 1 -0.1
v 0 1.1 2.23517e-08
v 0 1.1 -0.1
v 0 1.1 -1.7
v -0.2 -0.9 2.23517e-08
v -0.2 -0.6 2.23517e-08
v -0.2 -0.2 2.23517e-08
v -0.2 -0.1 2.23517e-08
v -0.2 0 2.23517e-08
v -0.2 0.1 2.23517e-08
v -0.2 0.2 2.23517e-08
v -0.2 1 2.23517e-08
v -0.2 1.1 2.23517e-08
v -0.1 -0.8 2.23517e-08
v -0.1 -0.6 2.23517e-08
v -0.1 -0.2 2.23517e-08
v -0.1 -0.1 2.23517e-08
v -0.1 0 2.23517e-08
v -0.1 0.9 2.23517e-08
v -0.1 1 2.23517e-08
v -0.1 1.1 2.23517e-08
v 0 -0.9 2.23517e-08
v 0 -0.8 2.23517e-08
v 0 0.1 2.23517e-08
v 0 0.2 2.23517e-08
v 0 0.9 2.23517e-08
v 0 1 2.23517e-08
v 0 1.1 2.23517e-08
v -0.2 -1 -0.1
v -0.2 -0.9 -0.1
v 0 -1 -0.1
v 0 -0.9 -0.1
v -0.3 0.4 -0.2
v -0.3 0.7 -0.2
v -0.2 -1.1 -0.2
v -0.2 -1 -0.2
v -0.2 0.4 -0.2
v -0.2 0.7 -0.2
v 0 -1.1 -0.2
v 0 -1 -0.2
v -0.3 0.3 -0.3
v -0.3 0.4 -0.3
v -0.2 0.3 -0.3
v -0.2 0.4 -0.3
v -0.3 -0.1 -0.8
v -0.3 0.3 -0.8
v -0.2 -0.1 -0.8
v -0.2 0.3 -0.8
v -0.4 0.8 -1
v -0.4 0.9 -1
v -0.3 0.8 -1
v -0.3 0.9 -1
v -0.3 0.8 -1.4
v -0.3 0.9 -1.4
v -0.2 0.8 -1.4
v -0.2 0.9 -1.4
v -0.3 0.3 -0.5
v -0.3 0.7 -0.5
v -0.2 0.3 -0.5
v -0.2 0.7 -0.5
v -0.3 -0.1 -1.1
v -0.3 0.3 -1.1
v -0.2 -0.1 -1.1
v -0.2 0.3 -1.1
v -0.4 0.8 -1.5
v -0.4 0.9 -1.5
v -0.2 -1.1 -1.5
v -0.2 -1 -1.5
v -0.2 0.8 -1.5
v -0.2 0.9 -1.5
v -0.1 -1.1 -1.5
v -0.1 -1 -1.5
v 0 -1.1 -1.5
v 0 -1 -1.5
v -0.2 -1 -1.6
v -0.2 -0.9 -1.6
v -0.1 -1 -1.6
v -0.1 -0.9 -1.6
v 0 -1 -1.6
v 0 -0.9 -1.6
v -0.2 -0.9 -1.7
v -0.2 0.9 -1.7
v -0.2 1.1 -1.7
v -0.1 0.9 -1.7
v -0.1 1.1 -1.7
v 0 -0.9 -1.7
v 0 1.1 -1.7
v -0.2 -1.1 -0.2
v 0 -1.1 -0.2
v -0.1 -1.1 -0.3
v 0 -1.1 -0.3
v -0.2 -1.1 -1.5
v -0.1 -1.1 -1.5
v 0 -1.1 -1.5
v -0.2 -1 -0.1
v 0 -1 -0.1
v -0.2 -1 -0.2
v 0 -1 -0.2
v -0.2 -1 -1.5
v -0.1 -1 -1.5
v 0 -1 -1.5
v -0.2 -1 -1.6
v -0.1 -1 -1.6
v 0 -1 -1.6
v -0.2 -0.9 2.23517e-08
v 0 -0.9 2.23517e-08
v -0.2 -0.9 -0.1
v 0 -0.9 -0.1
v -0.2 -0.9 -1.6
v -0.1 -0.9 -1.6
v 0 -0.9 -1.6
v -0.2 -0.9 -1.7
v 0 -0.9 -1.7
v -0.3 -0.1 -0.8
v -0.2 -0.1 -0.8
v -0.3 -0.1 -1.1
v -0.2 -0.1 -1.1
v -0.3 0.3 -0.3
v -0.2 0.3 -0.3
v -0.3 0.3 -0.5
v -0.2 0.3 -0.5
v -0.3 0.4 -0.2
v -0.2 0.4 -0.2
v -0.3 0.4 -0.3
v -0.2 0.4 -0.3
v -0.4 0.8 -1
v -0.3 0.8 -1
v -0.4 0.8 -1.1
v -0.3 0.8 -1.1
v -0.4 0.8 -1.3
v -0.3 0.8 -1.3
v -0.3 0.8 -1.4
v -0.2 0.8 -1.4
v -0.4 0.8 -1.5
v -0.2 0.8 -1.5
v -0.3 0.3 -0.8
v -0.2 0.3 -0.8
v -0.3 0.3 -1.1
v -0.2 0.3 -1.1
v -0.3 0.7 -0.2
v -0.2 0.7 -0.2
v -0.3 0.7 -0.5
v -0.2 0.7 -0.5
v -0.4 0.9 -1
v -0.3 0.9 -1
v -0.4 0.9 -1.1
v -0.3 0.9 -1.1
v -0.4 0.9 -1.3
v -0.3 0.9 -1.3
v -0.3 0.9 -1.4
v -0.2 0.9 -1.4
v -0.4 0.9 -1.5
v -0.2 0.9 -1.5
v -0.2 1.1 2.23517e-08
v -0.1 1.1 2.23517e-08
v 0 1.1 2.23517e-08
v -0.2 1.1 -0.1
v -0.1 1.1 -0.1
v 0 1.1 -0.1
v -0.2 1.1 -0.2
v -0.1 1.1 -0.2
v -0.2 1.1 -0.3
v -0.1 1.1 -0.3
v -0.2 1.1 -0.4
v -0.1 1.1 -0.4
v -0.2 1.1 -0.5
v -0.1 1.1 -0.5
v -0.2 1.1 -0.6
v -0.1 1.1 -0.6
v -0.2 1.1 -0.7
v -0.1 1.1 -0.7
v -0.2 1.1 -0.8
v -0.1 1.1 -0.8
v -0.2 1.1 -1
v -0.1 1.1 -1
v -0.2 1.1 -1.2
v -0.1 1.1 -1.2
v -0.2 1.1 -1.4
v -0.1 1.1 -1.4
v -0.2 1.1 -1.5
v -0.1 1.1 -1.5
v -0.2 1.1 -1.7
v -0.1 1.1 -1.7
v 0 1.1 -1.7

# faces
f 5/7/1 2/7/1 1/7/1
f 6/4/1 3/4/1 2/4/1
f 6/7/1 2/7/1 5/7/1
f 7/7/1 4/7/1 3/7/1
f 7/4/1 3/4/1 6/4/1
f 8/7/1 4/7/1 7/7/1
f 13/8/1 10/8/1 9/8/1
f 14/8/1 10/8/1 13/8/1
f 16/6/1 12/6/1 11/6/1
f 17/6/1 16/6/1 15/6/1
f 18/6/1 12/6/1 16/6/1
f 18/6/1 16/6/1 17/6/1
f 22/1/1 20/1/1 19/1/1
f 23/1/1 20/1/1 22/1/1
f 26/1/1 22/1/1 21/1/1
f 26/1/1 24/1/1 23/1/1
f 26/1/1 23/1/1 22/1/1
f 27/1/1 24/1/1 26/1/1
f 28/1/1 24/1/1 27/1/1
f 29/1/1 24/1/1 28/1/1
f 30/1/1 24/1/1 29/1/1
f 31/1/1 24/1/1 30/1/1
f 33/1/1 26/1/1 25/1/1
f 33/1/1 27/1/1 26/1/1
f 34/1/1 27/1/1 33/1/1
f 35/1/1 27/1/1 34/1/1
f 36/1/1 27/1/1 35/1/1
f 37/1/1 27/1/1 36/1/1
f 38/5/1 28/5/1 27/5/1
f 38/1/1 27/1/1 37/1/1
f 39/1/1 29/1/1 28/1/1
f 40/2/1 30/2/1 29/2/1
f 40/1/1 29/1/1 39/1/1
f 41/1/1 31/1/1 30/1/1
f 42/1/1 31/1/1 41/1/1
f 43/1/1 33/1/1 25/1/1
f 44/5/1 34/5/1 33/5/1
f 44/1/1 33/1/1 43/1/1
f 45/1/1 35/1/1 34/1/1
f 45/5/1 34/5/1 44/5/1
f 46/5/1 36/5/1 35/5/1
f 46/1/1 35/1/1 45/1/1
f 47/1/1 37/1/1 36/1/1
f 47/5/1 36/5/1 46/5/1
f 48/5/1 38/5/1 37/5/1
f 48/1/1 37/1/1 47/1/1
f 49/5/1 28/5/1 38/5/1
f 49/5/1 38/5/1 48/5/1
f 49/1/1 39/1/1 28/1/1
f 50/2/1 40/2/1 39/2/1
f 50/1/1 39/1/1 49/1/1
f 51/2/1 30/2/1 40/2/1
f 51/2/1 40/2/1 50/2/1
f 52/1/1 41/1/1 30/1/1
f 52/2/1 30/2/1 51/2/1
f 53/5/1 42/5/1 41/5/1
f 53/1/1 41/1/1 52/1/1
f 54/5/1 42/5/1 53/5/1
f 55/1/1 31/1/1 42/1/1
f 55/5/1 42/5/1 54/5/1
f 56/5/1 32/5/1 31/5/1
f 56/1/1 31/1/1 55/1/1
f 57/1/1 43/1/1 25/1/1
f 58/5/1 50/5/1 49/5/1
f 58/1/1 43/1/1 57/1/1
f 58/5/1 46/5/1 45/5/1
f 58/5/1 48/5/1 47/5/1
f 58/5/1 44/5/1 43/5/1
f 58/5/1 45/5/1 44/5/1
f 58/5/1 49/5/1 48/5/1
f 58/5/1 47/5/1 46/5/1
f 59/2/1 51/2/1 50/2/1
f 59/5/1 50/5/1 58/5/1
f 60/5/1 52/5/1 51/5/1
f 60/2/1 51/2/1 59/2/1
f 61/1/1 53/1/1 52/1/1
f 61/5/1 52/5/1 60/5/1
f 61/1/1 54/1/1 53/1/1
f 62/5/1 55/5/1 54/5/1
f 62/1/1 54/1/1 61/1/1
f 62/5/1 56/5/1 55/5/1
f 63/5/1 61/5/1 60/5/1
f 63/5/1 60/5/1 59/5/1
f 63/5/1 62/5/1 61/5/1
f 63/5/1 58/5/1 57/5/1
f 63/5/1 59/5/1 58/5/1
f 64/5/1 62/5/1 63/5/1
f 65/5/1 62/5/1 64/5/1
f 66/5/1 62/5/1 65/5/1
f 67/5/1 62/5/1 66/5/1
f 68/5/1 62/5/1 67/5/1
f 69/5/1 62/5/1 68/5/1
f 70/5/1 56/5/1 62/5/1
f 70/5/1 62/5/1 69/5/1
f 71/2/1 64/2/1 63/2/1
f 71/5/1 65/5/1 64/5/1
f 72/2/1 66/2/1 65/2/1
f 72/5/1 65/5/1 71/5/1
f 73/5/1 67/5/1 66/5/1
f 73/2/1 66/2/1 72/2/1
f 74/2/1 68/2/1 67/2/1
f 74/5/1 67/5/1 73/5/1
f 75/5/1 56/5/1 70/5/1
f 75/2/1 70/2/1 69/2/1
f 76/5/1 32/5/1 56/5/1
f 76/5/1 56/5/1 75/5/1
f 77/5/1 63/5/1 57/5/1
f 78/2/1 71/2/1 63/2/1
f 78/5/1 63/5/1 77/5/1
f 78/2/1 72/2/1 71/2/1
f 79/1/1 74/1/1 73/1/1
f 79/2/1 72/2/1 78/2/1
f 79/1/1 73/1/1 72/1/1
f 80/1/1 74/1/1 79/1/1
f 81/2/1 68/2/1 74/2/1
f 81/1/1 74/1/1 80/1/1
f 82/5/1 69/5/1 68/5/1
f 82/2/1 68/2/1 81/2/1
f 83/2/1 75/2/1 69/2/1
f 83/2/1 76/2/1 75/2/1
f 84/5/1 32/5/1 76/5/1
f 84/2/1 76/2/1 83/2/1
f 85/2/1 80/2/1 79/2/1
f 85/2/1 78/2/1 77/2/1
f 85/2/1 79/2/1 78/2/1
f 86/1/1 81/1/1 80/1/1
f 86/2/1 80/2/1 85/2/1
f 86/1/1 82/1/1 81/1/1
f 87/5/1 69/5/1 82/5/1
f 87/1/1 82/1/1 86/1/1
f 88/5/1 69/5/1 87/5/1
f 89/5/1 69/5/1 88/5/1
f 90/5/1 69/5/1 89/5/1
f 91/1/1 86/1/1 85/1/1
f 92/1/1 86/1/1 91/1/1
f 93/1/1 86/1/1 92/1/1
f 94/2/1 87/2/1 86/2/1
f 94/1/1 86/1/1 93/1/1
f 95/2/1 87/2/1 94/2/1
f 96/2/1 83/2/1 69/2/1
f 96/5/1 84/5/1 83/5/1
f 97/5/1 32/5/1 84/5/1
f 97/5/1 84/5/1 96/5/1
f 98/5/1 92/5/1 91/5/1
f 99/2/1 93/2/1 92/2/1
f 99/5/1 92/5/1 98/5/1
f 100/1/1 95/1/1 94/1/1
f 100/2/1 93/2/1 99/2/1
f 100/1/1 94/1/1 93/1/1
f 101/1/1 95/1/1 100/1/1
f 102/1/1 99/1/1 98/1/1
f 102/1/1 100/1/1 99/1/1
f 103/1/1 100/1/1 102/1/1
f 104/1/1 95/1/1 101/1/1
f 104/5/1 101/5/1 100/5/1
f 105/2/1 87/2/1 95/2/1
f 105/1/1 95/1/1 104/1/1
f 106/1/1 88/1/1 87/1/1
f 106/2/1 87/2/1 105/2/1
f 107/5/1 89/5/1 88/5/1
f 107/1/1 88/1/1 106/1/1
f 108/2/1 96/2/1 69/2/1
f 108/2/1 97/2/1 96/2/1
f 109/5/1 32/5/1 97/5/1
f 109/2/1 97/2/1 108/2/1
f 110/1/1 100/1/1 103/1/1
f 110/5/1 103/5/1 102/5/1
f 111/5/1 104/5/1 100/5/1
f 111/1/1 100/1/1 110/1/1
f 111/5/1 105/5/1 104/5/1
f 111/5/1 106/5/1 105/5/1
f 111/5/1 107/5/1 106/5/1
f 112/5/1 107/5/1 111/5/1
f 113/5/1 89/5/1 107/5/1
f 113/5/1 107/5/1 112/5/1
f 114/5/1 69/5/1 90/5/1
f 115/2/1 108/2/1 69/2/1
f 115/5/1 69/5/1 114/5/1
f 116/2/1 108/2/1 115/2/1
f 117/2/1 108/2/1 116/2/1
f 118/5/1 109/5/1 108/5/1
f 118/2/1 108/2/1 117/2/1
f 119/5/1 110/5/1 102/5/1
f 119/5/1 111/5/1 110/5/1
f 120/5/1 111/5/1 119/5/1
f 121/5/1 113/5/1 112/5/1
f 121/5/1 114/5/1 113/5/1
f 121/5/1 116/5/1 115/5/1
f 121/5/1 115/5/1 114/5/1
f 122/5/1 116/5/1 121/5/1
f 123/2/1 117/2/1 116/2/1
f 123/5/1 116/5/1 122/5/1
f 124/5/1 118/5/1 117/5/1
f 124/2/1 117/2/1 123/2/1
f 125/5/1 109/5/1 118/5/1
f 125/5/1 118/5/1 124/5/1
f 126/5/1 121/5/1 112/5/1
f 127/2/1 122/2/1 121/2/1
f 127/5/1 121/5/1 126/5/1
f 128/2/1 122/2/1 127/2/1
f 129/5/1 124/5/1 123/5/1
f 129/2/1 122/2/1 128/2/1
f 129/5/1 123/5/1 122/5/1
f 130/5/1 124/5/1 129/5/1
f 131/5/1 126/5/1 112/5/1
f 132/2/1 127/2/1 126/2/1
f 132/5/1 126/5/1 131/5/1
f 133/2/1 129/2/1 128/2/1
f 133/2/1 130/2/1 129/2/1
f 134/5/1 124/5/1 130/5/1
f 134/2/1 130/2/1 133/2/1
f 135/5/1 119/5/1 102/5/1
f 136/5/1 131/5/1 112/5/1
f 137/3/1 132/3/1 131/3/1
f 137/5/1 131/5/1 136/5/1
f 138/4/1 128/4/1 127/4/1
f 138/2/1 133/2/1 128/2/1
f 139/5/1 134/5/1 133/5/1
f 139/2/1 133/2/1 138/2/1
f 140/5/1 124/5/1 134/5/1
f 140/5/1 134/5/1 139/5/1
f 140/2/1 125/2/1 124/2/1
f 141/5/1 109/5/1 125/5/1
f 141/2/1 125/2/1 140/2/1
f 142/5/1 136/5/1 135/5/1
f 143/3/1 137/3/1 136/3/1
f 143/5/1 136/5/1 142/5/1
f 144/3/1 132/3/1 137/3/1
f 144/3/1 137/3/1 143/3/1
f 145/2/1 127/2/1 132/2/1
f 145/3/1 132/3/1 144/3/1
f 146/5/1 140/5/1 139/5/1
f 146/5/1 141/5/1 140/5/1
f 147/5/1 109/5/1 141/5/1
f 147/5/1 141/5/1 146/5/1
f 148/5/1 135/5/1 102/5/1
f 148/5/1 142/5/1 135/5/1
f 149/5/1 142/5/1 148/5/1
f 150/1/1 143/1/1 142/1/1
f 150/5/1 142/5/1 149/5/1
f 151/3/1 144/3/1 143/3/1
f 151/1/1 143/1/1 150/1/1
f 152/5/1 145/5/1 144/5/1
f 152/3/1 144/3/1 151/3/1
f 153/2/1 127/2/1 145/2/1
f 153/5/1 145/5/1 152/5/1
f 154/4/1 139/4/1 138/4/1
f 154/2/1 127/2/1 153/2/1
f 154/4/1 138/4/1 127/4/1
f 155/4/1 139/4/1 154/4/1
f 156/5/1 146/5/1 139/5/1
f 156/4/1 139/4/1 155/4/1
f 157/5/1 146/5/1 156/5/1
f 158/5/1 146/5/1 157/5/1
f 159/5/1 146/5/1 158/5/1
f 160/5/1 146/5/1 159/5/1
f 161/5/1 109/5/1 147/5/1
f 162/5/1 32/5/1 109/5/1
f 162/5/1 109/5/1 161/5/1
f 163/5/1 32/5/1 162/5/1
f 164/5/1 148/5/1 102/5/1
f 165/1/1 149/1/1 148/1/1
f 165/5/1 148/5/1 164/5/1
f 166/3/1 152/3/1 151/3/1
f 166/1/1 149/1/1 165/1/1
f 166/3/1 151/3/1 150/3/1
f 166/3/1 150/3/1 149/3/1
f 167/3/1 152/3/1 166/3/1
f 168/3/1 152/3/1 167/3/1
f 169/3/1 152/3/1 168/3/1
f 170/1/1 153/1/1 152/1/1
f 170/3/1 152/3/1 169/3/1
f 171/3/1 154/3/1 153/3/1
f 171/1/1 153/1/1 170/1/1
f 172/2/1 155/2/1 154/2/1
f 172/3/1 154/3/1 171/3/1
f 173/5/1 156/5/1 155/5/1
f 173/2/1 155/2/1 172/2/1
f 174/3/1 157/3/1 156/3/1
f 174/5/1 156/5/1 173/5/1
f 175/5/1 158/5/1 157/5/1
f 175/3/1 157/3/1 174/3/1
f 176/3/1 159/3/1 158/3/1
f 176/5/1 158/5/1 175/5/1
f 177/5/1 160/5/1 159/5/1
f 177/3/1 159/3/1 176/3/1
f 177/5/1 161/5/1 160/5/1
f 177/5/1 162/5/1 161/5/1
f 178/5/1 162/5/1 177/5/1
f 179/5/1 162/5/1 178/5/1
f 180/4/1 163/4/1 162/4/1
f 180/5/1 162/5/1 179/5/1
f 181/1/1 165/1/1 164/1/1
f 182/3/1 166/3/1 165/3/1
f 182/1/1 165/1/1 181/1/1
f 183/1/1 167/1/1 166/1/1
f 183/3/1 166/3/1 182/3/1
f 184/3/1 168/3/1 167/3/1
f 184/1/1 167/1/1 183/1/1
f 185/4/1 169/4/1 168/4/1
f 185/3/1 168/3/1 184/3/1
f 186/1/1 170/1/1 169/1/1
f 186/4/1 169/4/1 185/4/1
f 187/3/1 171/3/1 170/3/1
f 187/1/1 170/1/1 186/1/1
f 188/4/1 172/4/1 171/4/1
f 188/3/1 171/3/1 187/3/1
f 189/3/1 173/3/1 172/3/1
f 189/4/1 172/4/1 188/4/1
f 189/3/1 174/3/1 173/3/1
f 190/4/1 176/4/1 175/4/1
f 190/3/1 174/3/1 189/3/1
f 190/4/1 175/4/1 174/4/1
f 191/3/1 178/3/1 177/3/1
f 191/4/1 176/4/1 190/4/1
f 191/3/1 177/3/1 176/3/1
f 192/5/1 179/5/1 178/5/1
f 192/3/1 178/3/1 191/3/1
f 193/4/1 180/4/1 179/4/1
f 193/5/1 179/5/1 192/5/1
f 194/4/1 163/4/1 180/4/1
f 194/4/1 180/4/1 193/4/1
f 195/7/2 196/7/2 199/7/2
f 196/4/2 197/4/2 200/4/2
f 199/7/2 196/7/2 200/7/2
f 197/7/2 198/7/2 201/7/2
f 200/4/2 197/4/2 201/4/2
f 201/7/2 198/7/2 202/7/2
f 203/1/2 204/1/2 207/1/2
f 204/5/2 205/5/2 208/5/2
f 207/1/2 204/1/2 208/1/2
f 208/5/2 205/5/2 209/5/2
f 206/1/2 207/1/2 212/1/2
f 209/5/2 210/5/2 213/5/2
f 207/5/2 208/5/2 213/5/2
f 212/1/2 207/1/2 213/1/2
f 208/5/2 209/5/2 213/5/2
f 213/5/2 210/5/2 214/5/2
f 211/1/2 212/1/2 216/1/2
f 214/5/2 215/5/2 217/5/2
f 216/1/2 212/1/2 217/1/2
f 212/5/2 213/5/2 217/5/2
f 213/5/2 214/5/2 217/5/2
f 216/5/2 217/5/2 218/5/2
f 217/5/2 215/5/2 219/5/2
f 218/5/2 217/5/2 219/5/2
f 218/1/2 219/1/2 220/1/2
f 219/5/2 215/5/2 221/5/2
f 220/1/2 219/1/2 221/1/2
f 220/5/2 221/5/2 222/5/2
f 221/5/2 215/5/2 223/5/2
f 222/5/2 221/5/2 223/5/2
f 222/1/2 223/1/2 224/1/2
f 223/5/2 215/5/2 225/5/2
f 224/1/2 223/1/2 225/1/2
f 224/4/2 225/4/2 226/4/2
f 225/5/2 215/5/2 227/5/2
f 226/4/2 225/4/2 227/4/2
f 227/5/2 215/5/2 228/5/2
f 238/1/3 230/1/3 229/1/3
f 239/5/3 231/5/3 230/5/3
f 239/1/3 230/1/3 238/1/3
f 240/2/3 232/2/3 231/2/3
f 240/5/3 231/5/3 239/5/3
f 241/1/3 233/1/3 232/1/3
f 241/2/3 232/2/3 240/2/3
f 242/5/3 234/5/3 233/5/3
f 242/1/3 233/1/3 241/1/3
f 243/5/3 236/5/3 235/5/3
f 244/1/3 237/1/3 236/1/3
f 244/5/3 236/5/3 243/5/3
f 245/1/3 237/1/3 244/1/3
f 246/1/3 238/1/3 229/1/3
f 247/5/3 239/5/3 238/5/3
f 247/1/3 238/1/3 246/1/3
f 247/5/3 240/5/3 239/5/3
f 247/5/3 241/5/3 240/5/3
f 247/5/3 242/5/3 241/5/3
f 248/1/3 235/1/3 234/1/3
f 248/5/3 242/5/3 247/5/3
f 248/5/3 234/5/3 242/5/3
f 249/5/3 243/5/3 235/5/3
f 249/1/3 235/1/3 248/1/3
f 250/1/3 244/1/3 243/1/3
f 250/5/3 243/5/3 249/5/3
f 251/4/3 245/4/3 244/4/3
f 251/1/3 244/1/3 250/1/3
f 252/4/3 245/4/3 251/4/3
f 255/1/3 254/1/3 253/1/3
f 256/1/3 254/1/3 255/1/3
f 261/6/3 258/6/3 257/6/3
f 262/6/3 258/6/3 261/6/3
f 263/1/3 260/1/3 259/1/3
f 264/1/3 260/1/3 263/1/3
f 267/6/3 266/6/3 265/6/3
f 268/6/3 266/6/3 267/6/3
f 271/8/3 270/8/3 269/8/3
f 272/8/3 270/8/3 271/8/3
f 275/7/3 274/7/3 273/7/3
f 276/7/3 274/7/3 275/7/3
f 279/7/3 278/7/3 277/7/3
f 280/7/3 278/7/3 279/7/3
f 281/6/4 282/6/4 283/6/4
f 283/6/4 282/6/4 284/6/4
f 285/8/4 286/8/4 287/8/4
f 287/8/4 286/8/4 288/8/4
f 289/7/4 290/7/4 293/7/4
f 293/7/4 290/7/4 294/7/4
f 291/1/4 292/1/4 295/1/4
f 295/1/4 292/1/4 296/1/4
f 295/5/4 296/5/4 297/5/4
f 297/5/4 296/5/4 298/5/4
f 299/1/4 300/1/4 301/1/4
f 301/1/4 300/1/4 302/1/4
f 301/5/4 302/5/4 303/5/4
f 303/5/4 302/5/4 304/5/4
f 305/5/4 306/5/4 308/5/4
f 306/4/4 307/4/4 308/4/4
f 308/4/4 307/4/4 309/4/4
f 305/5/4 308/5/4 310/5/4
f 308/5/4 309/5/4 310/5/4
f 310/5/4 309/5/4 311/5/4
f 314/1/5 313/1/5 312/1/5
f 315/1/5 313/1/5 314/1/5
f 316/1/5 314/1/5 312/1/5
f 317/5/5 315/5/5 314/5/5
f 317/1/5 314/1/5 316/1/5
f 318/5/5 315/5/5 317/5/5
f 321/1/5 320/1/5 319/1/5
f 322/1/5 320/1/5 321/1/5
f 326/1/5 324/1/5 323/1/5
f 327/5/5 325/5/5 324/5/5
f 327/1/5 324/1/5 326/1/5
f 328/5/5 325/5/5 327/5/5
f 331/1/5 330/1/5 329/1/5
f 332/1/5 330/1/5 331/1/5
f 336/5/5 334/5/5 333/5/5
f 336/5/5 335/5/5 334/5/5
f 337/5/5 335/5/5 336/5/5
f 340/8/5 339/8/5 338/8/5
f 341/8/5 339/8/5 340/8/5
f 344/6/5 343/6/5 342/6/5
f 345/6/5 343/6/5 344/6/5
f 348/6/5 347/6/5 346/6/5
f 349/6/5 347/6/5 348/6/5
f 352/7/5 351/7/5 350/7/5
f 353/7/5 351/7/5 352/7/5
f 354/4/5 353/4/5 352/4/5
f 355/4/5 353/4/5 354/4/5
f 356/7/5 355/7/5 354/7/5
f 358/7/5 356/7/5 354/7/5
f 358/7/5 357/7/5 356/7/5
f 359/7/5 357/7/5 358/7/5
f 360/8/6 361/8/6 362/8/6
f 362/8/6 361/8/6 363/8/6
f 364/6/6 365/6/6 366/6/6
f 366/6/6 365/6/6 367/6/6
f 368/7/6 369/7/6 370/7/6
f 370/7/6 369/7/6 371/7/6
f 370/4/6 371/4/6 372/4/6
f 372/4/6 371/4/6 373/4/6
f 372/7/6 373/7/6 374/7/6
f 372/7/6 374/7/6 376/7/6
f 374/7/6 375/7/6 376/7/6
f 376/7/6 375/7/6 377/7/6
f 378/1/6 379/1/6 381/1/6
f 379/4/6 380/4/6 382/4/6
f 381/1/6 379/1/6 382/1/6
f 382/4/6 380/4/6 383/4/6
f 381/3/6 382/3/6 384/3/6
f 382/5/6 383/5/6 385/5/6
f 384/3/6 382/3/6 385/3/6
f 384/1/6 385/1/6 386/1/6
f 385/5/6 383/5/6 387/5/6
f 386/1/6 385/1/6 387/1/6
f 386/3/6 387/3/6 388/3/6
f 387/5/6 383/5/6 389/5/6
f 388/3/6 387/3/6 389/3/6
f 388/4/6 389/4/6 390/4/6
f 389/5/6 383/5/6 391/5/6
f 390/4/6 389/4/6 391/4/6
f 390/1/6 391/1/6 392/1/6
f 391/5/6 383/5/6 393/5/6
f 392/1/6 391/1/6 393/1/6
f 392/3/6 393/3/6 394/3/6
f 393/5/6 383/5/6 395/5/6
f 394/3/6 393/3/6 395/3/6
f 394/4/6 395/4/6 396/4/6
f 395/5/6 383/5/6 397/5/6
f 396/4/6 395/4/6 397/4/6
f 396/3/6 397/3/6 398/3/6
f 397/5/6 383/5/6 399/5/6
f 398/3/6 397/3/6 399/3/6
f 398/4/6 399/4/6 400/4/6
f 399/5/6 383/5/6 401/5/6
f 400/4/6 399/4/6 401/4/6
f 400/3/6 401/3/6 402/3/6
f 401/5/6 383/5/6 403/5/6
f 402/3/6 401/3/6 403/3/6
f 402/5/6 403/5/6 404/5/6
f 403/5/6 383/5/6 405/5/6
f 404/5/6 403/5/6 405/5/6
f 404/4/6 405/4/6 406/4/6
f 405/5/6 383/5/6 407/5/6
f 406/4/6 405/4/6 407/4/6
f 407/5/6 383/5/6 408/5/6
