# MagicaVoxel @ Ephtracy

# group
o 

# material
mtllib Kitchen_cabinets-21.mtl
usemtl palette

# normals
vn -1 0 0
vn 1 0 0
vn 0 0 1
vn 0 0 -1
vn 0 -1 0
vn 0 1 0

# texcoords
vt 0.630859 0.5
vt 0.634766 0.5
vt 0.892578 0.5
vt 0.896484 0.5
vt 0.951172 0.5
vt 0.978516 0.5

# verts
v -0.4 -0.1 -1
v -0.4 -0.1 -1.5
v -0.4 0 -1
v -0.4 0 -1.5
v -0.2 -0.3 2.23517e-08
v -0.2 -0.3 -0.2
v -0.2 -0.3 -0.6
v -0.2 -0.3 -0.7
v -0.2 -0.3 -1
v -0.2 -0.3 -1.7
v -0.2 -0.2 -0.3
v -0.2 -0.2 -0.4
v -0.2 -0.2 -0.6
v -0.2 -0.2 -0.7
v -0.2 -0.1 -0.4
v -0.2 -0.1 -0.6
v -0.2 -0.1 -0.8
v -0.2 -0.1 -1
v -0.2 -0.1 -1.4
v -0.2 -0.1 -1.5
v -0.2 0 -0.6
v -0.2 0 -0.8
v -0.2 0 -1.4
v -0.2 0 -1.5
v -0.2 0.1 2.23517e-08
v -0.2 0.1 -0.1
v -0.2 0.1 -0.2
v -0.2 0.1 -0.3
v -0.2 0.2 -0.2
v -0.2 0.2 -0.5
v -0.2 0.2 -0.6
v -0.2 0.2 -0.7
v -0.2 0.2 -0.8
v -0.2 0.2 -0.9
v -0.2 0.2 -1.2
v -0.2 0.2 -1.5
v -0.2 0.2 -1.6
v -0.2 0.2 -1.7
v -0.2 0.3 2.23517e-08
v -0.2 0.3 -0.1
v -0.2 0.3 -0.2
v -0.2 0.3 -0.5
v -0.2 0.3 -0.6
v -0.2 0.3 -0.7
v -0.2 0.3 -0.8
v -0.2 0.3 -0.9
v -0.2 0.3 -1.2
v -0.2 0.3 -1.5
v -0.2 0.3 -1.6
v -0.2 0.3 -1.7
v -0.2 0.4 -0.1
v -0.2 0.4 -0.2
v -0.2 0.4 -0.3
v -0.2 0.4 -0.5
v -0.2 0.4 -0.7
v -0.2 0.4 -0.8
v -0.2 0.4 -1.2
v -0.2 0.4 -1.3
v -0.2 0.4 -1.4
v -0.2 0.4 -1.5
v -0.2 0.4 -1.6
v -0.2 0.5 -0.2
v -0.2 0.5 -0.3
v -0.2 0.5 -0.5
v -0.2 0.5 -0.7
v -0.2 0.5 -0.8
v -0.2 0.5 -1.2
v -0.2 0.5 -1.3
v -0.2 0.5 -1.4
v -0.2 0.5 -1.5
v -0.1 -0.4 -0.1
v -0.1 -0.4 -0.2
v -0.1 -0.4 -0.3
v -0.1 -0.4 -0.4
v -0.1 -0.4 -0.5
v -0.1 -0.4 -0.7
v -0.1 -0.4 -0.9
v -0.1 -0.4 -1
v -0.1 -0.4 -1.2
v -0.1 -0.4 -1.3
v -0.1 -0.4 -1.5
v -0.1 -0.4 -1.6
v -0.1 -0.3 -0.1
v -0.1 -0.3 -0.2
v -0.1 -0.3 -0.3
v -0.1 -0.3 -0.4
v -0.1 -0.3 -0.5
v -0.1 -0.3 -0.6
v -0.1 -0.3 -0.7
v -0.1 -0.3 -0.9
v -0.1 -0.3 -1
v -0.1 -0.3 -1.2
v -0.1 -0.3 -1.3
v -0.1 -0.3 -1.5
v -0.1 -0.3 -1.6
v -0.3 -0.1 -1
v -0.3 -0.1 -1.4
v -0.3 0 -1
v -0.3 0 -1.4
v 0 -0.4 -0.1
v 0 -0.4 -0.2
v 0 -0.4 -0.3
v 0 -0.4 -0.4
v 0 -0.4 -0.5
v 0 -0.4 -0.7
v 0 -0.4 -0.9
v 0 -0.4 -1
v 0 -0.4 -1.2
v 0 -0.4 -1.3
v 0 -0.4 -1.5
v 0 -0.4 -1.6
v 0 -0.3 2.23517e-08
v 0 -0.3 -0.1
v 0 -0.3 -0.2
v 0 -0.3 -0.3
v 0 -0.3 -0.4
v 0 -0.3 -0.5
v 0 -0.3 -0.7
v 0 -0.3 -0.9
v 0 -0.3 -1
v 0 -0.3 -1.2
v 0 -0.3 -1.3
v 0 -0.3 -1.5
v 0 -0.3 -1.6
v 0 -0.3 -1.7
v 0 0.2 -1.6
v 0 0.2 -1.7
v 0 0.3 2.23517e-08
v 0 0.3 -0.1
v 0 0.3 -0.2
v 0 0.3 -1.5
v 0 0.3 -1.6
v 0 0.3 -1.7
v 0 0.4 -0.1
v 0 0.4 -0.2
v 0 0.4 -1.4
v 0 0.4 -1.5
v 0 0.4 -1.6
v 0 0.5 -0.2
v 0 0.5 -1.4
v 0 0.5 -1.5
v -0.2 -0.3 2.23517e-08
v -0.2 0.1 2.23517e-08
v -0.2 0.3 2.23517e-08
v -0.1 0.1 2.23517e-08
v -0.1 0.3 2.23517e-08
v 0 -0.3 2.23517e-08
v 0 0.3 2.23517e-08
v -0.2 0.3 -0.1
v -0.2 0.4 -0.1
v -0.1 -0.4 -0.1
v -0.1 -0.3 -0.1
v -0.1 0.3 -0.1
v 0 -0.4 -0.1
v 0 -0.3 -0.1
v 0 0.3 -0.1
v 0 0.4 -0.1
v -0.2 0.4 -0.2
v -0.2 0.5 -0.2
v -0.1 0.4 -0.2
v -0.1 0.5 -0.2
v 0 0.4 -0.2
v 0 0.5 -0.2
v -0.4 -0.1 -1
v -0.4 0 -1
v -0.3 -0.1 -1
v -0.3 0 -1
v -0.3 -0.1 -1.4
v -0.3 0 -1.4
v -0.2 -0.1 -1.4
v -0.2 0 -1.4
v -0.4 -0.1 -1.5
v -0.4 0 -1.5
v -0.2 -0.1 -1.5
v -0.2 0 -1.5
v -0.2 0.4 -1.5
v -0.2 0.5 -1.5
v -0.1 0.4 -1.5
v -0.1 0.5 -1.5
v 0 0.4 -1.5
v 0 0.5 -1.5
v -0.2 0.3 -1.6
v -0.2 0.4 -1.6
v -0.1 -0.4 -1.6
v -0.1 -0.3 -1.6
v 0 -0.4 -1.6
v 0 -0.3 -1.6
v 0 0.3 -1.6
v 0 0.4 -1.6
v -0.2 -0.3 -1.7
v -0.2 0.2 -1.7
v -0.2 0.3 -1.7
v 0 -0.3 -1.7
v 0 0.2 -1.7
v 0 0.3 -1.7
v -0.1 -0.4 -0.1
v 0 -0.4 -0.1
v -0.1 -0.4 -0.2
v 0 -0.4 -0.2
v -0.1 -0.4 -0.3
v 0 -0.4 -0.3
v -0.1 -0.4 -0.4
v 0 -0.4 -0.4
v -0.1 -0.4 -0.5
v 0 -0.4 -0.5
v -0.1 -0.4 -0.7
v 0 -0.4 -0.7
v -0.1 -0.4 -0.9
v 0 -0.4 -0.9
v -0.1 -0.4 -1
v 0 -0.4 -1
v -0.1 -0.4 -1.2
v 0 -0.4 -1.2
v -0.1 -0.4 -1.3
v 0 -0.4 -1.3
v -0.1 -0.4 -1.5
v 0 -0.4 -1.5
v -0.1 -0.4 -1.6
v 0 -0.4 -1.6
v -0.2 -0.3 2.23517e-08
v 0 -0.3 2.23517e-08
v -0.1 -0.3 -0.1
v 0 -0.3 -0.1
v -0.2 -0.3 -0.2
v -0.1 -0.3 -0.2
v -0.1 -0.3 -0.3
v -0.1 -0.3 -0.4
v -0.1 -0.3 -0.5
v -0.2 -0.3 -0.6
v -0.1 -0.3 -0.6
v -0.2 -0.3 -0.7
v -0.1 -0.3 -0.7
v -0.1 -0.3 -0.9
v -0.2 -0.3 -1
v -0.1 -0.3 -1
v -0.1 -0.3 -1.2
v -0.1 -0.3 -1.3
v -0.1 -0.3 -1.5
v -0.1 -0.3 -1.6
v 0 -0.3 -1.6
v -0.2 -0.3 -1.7
v 0 -0.3 -1.7
v -0.4 -0.1 -1
v -0.3 -0.1 -1
v -0.3 -0.1 -1.4
v -0.2 -0.1 -1.4
v -0.4 -0.1 -1.5
v -0.2 -0.1 -1.5
v -0.4 0 -1
v -0.3 0 -1
v -0.3 0 -1.4
v -0.2 0 -1.4
v -0.4 0 -1.5
v -0.2 0 -1.5
v -0.2 0.3 2.23517e-08
v -0.1 0.3 2.23517e-08
v 0 0.3 2.23517e-08
v -0.2 0.3 -0.1
v -0.1 0.3 -0.1
v 0 0.3 -0.1
v -0.2 0.3 -1.6
v 0 0.3 -1.6
v -0.2 0.3 -1.7
v 0 0.3 -1.7
v -0.2 0.4 -0.1
v 0 0.4 -0.1
v -0.2 0.4 -0.2
v -0.1 0.4 -0.2
v 0 0.4 -0.2
v -0.2 0.4 -1.5
v -0.1 0.4 -1.5
v 0 0.4 -1.5
v -0.2 0.4 -1.6
v 0 0.4 -1.6
v -0.2 0.5 -0.2
v -0.1 0.5 -0.2
v 0 0.5 -0.2
v -0.2 0.5 -0.3
v -0.1 0.5 -0.3
v -0.2 0.5 -0.5
v -0.1 0.5 -0.5
v -0.2 0.5 -0.7
v -0.1 0.5 -0.7
v -0.2 0.5 -0.8
v -0.1 0.5 -0.8
v -0.2 0.5 -1.2
v -0.1 0.5 -1.2
v -0.2 0.5 -1.3
v -0.1 0.5 -1.3
v -0.2 0.5 -1.4
v -0.1 0.5 -1.4
v 0 0.5 -1.4
v -0.2 0.5 -1.5
v -0.1 0.5 -1.5
v 0 0.5 -1.5

# faces
f 3/6/1 2/6/1 1/6/1
f 4/6/1 2/6/1 3/6/1
f 11/2/1 7/2/1 6/2/1
f 12/2/1 7/2/1 11/2/1
f 13/5/1 8/5/1 7/5/1
f 13/2/1 7/2/1 12/2/1
f 14/2/1 9/2/1 8/2/1
f 14/5/1 8/5/1 13/5/1
f 15/5/1 12/5/1 11/5/1
f 15/2/1 13/2/1 12/2/1
f 15/2/1 14/2/1 13/2/1
f 16/2/1 14/2/1 15/2/1
f 17/2/1 9/2/1 14/2/1
f 17/2/1 14/2/1 16/2/1
f 18/5/1 10/5/1 9/5/1
f 18/2/1 9/2/1 17/2/1
f 19/5/1 10/5/1 18/5/1
f 20/5/1 10/5/1 19/5/1
f 21/2/1 17/2/1 16/2/1
f 21/5/1 16/5/1 15/5/1
f 22/5/1 19/5/1 18/5/1
f 22/2/1 17/2/1 21/2/1
f 22/5/1 18/5/1 17/5/1
f 23/5/1 19/5/1 22/5/1
f 24/5/1 10/5/1 20/5/1
f 25/5/1 6/5/1 5/5/1
f 26/5/1 6/5/1 25/5/1
f 27/2/1 11/2/1 6/2/1
f 27/5/1 6/5/1 26/5/1
f 28/5/1 24/5/1 23/5/1
f 28/2/1 11/2/1 27/2/1
f 28/5/1 23/5/1 22/5/1
f 28/5/1 21/5/1 15/5/1
f 28/5/1 15/5/1 11/5/1
f 28/5/1 22/5/1 21/5/1
f 29/5/1 27/5/1 26/5/1
f 29/5/1 28/5/1 27/5/1
f 30/5/1 24/5/1 28/5/1
f 30/5/1 28/5/1 29/5/1
f 31/5/1 24/5/1 30/5/1
f 32/5/1 24/5/1 31/5/1
f 33/5/1 24/5/1 32/5/1
f 34/5/1 24/5/1 33/5/1
f 35/5/1 24/5/1 34/5/1
f 36/5/1 10/5/1 24/5/1
f 36/5/1 24/5/1 35/5/1
f 37/5/1 10/5/1 36/5/1
f 38/5/1 10/5/1 37/5/1
f 39/1/1 26/1/1 25/1/1
f 40/5/1 29/5/1 26/5/1
f 40/1/1 26/1/1 39/1/1
f 41/1/1 30/1/1 29/1/1
f 41/5/1 29/5/1 40/5/1
f 42/5/1 31/5/1 30/5/1
f 42/1/1 30/1/1 41/1/1
f 43/1/1 32/1/1 31/1/1
f 43/5/1 31/5/1 42/5/1
f 44/5/1 33/5/1 32/5/1
f 44/1/1 32/1/1 43/1/1
f 45/1/1 34/1/1 33/1/1
f 45/5/1 33/5/1 44/5/1
f 46/5/1 35/5/1 34/5/1
f 46/1/1 34/1/1 45/1/1
f 47/1/1 36/1/1 35/1/1
f 47/5/1 35/5/1 46/5/1
f 48/5/1 37/5/1 36/5/1
f 48/1/1 36/1/1 47/1/1
f 49/1/1 38/1/1 37/1/1
f 49/5/1 37/5/1 48/5/1
f 50/1/1 38/1/1 49/1/1
f 51/1/1 45/1/1 44/1/1
f 51/1/1 49/1/1 48/1/1
f 51/1/1 48/1/1 47/1/1
f 51/1/1 47/1/1 46/1/1
f 51/1/1 46/1/1 45/1/1
f 51/1/1 44/1/1 43/1/1
f 51/1/1 43/1/1 42/1/1
f 51/1/1 42/1/1 41/1/1
f 51/1/1 41/1/1 40/1/1
f 52/1/1 49/1/1 51/1/1
f 53/1/1 49/1/1 52/1/1
f 54/1/1 49/1/1 53/1/1
f 55/1/1 49/1/1 54/1/1
f 56/1/1 49/1/1 55/1/1
f 57/1/1 49/1/1 56/1/1
f 58/1/1 49/1/1 57/1/1
f 59/1/1 49/1/1 58/1/1
f 60/1/1 49/1/1 59/1/1
f 61/1/1 49/1/1 60/1/1
f 62/1/1 53/1/1 52/1/1
f 63/5/1 54/5/1 53/5/1
f 63/1/1 53/1/1 62/1/1
f 64/1/1 55/1/1 54/1/1
f 64/5/1 54/5/1 63/5/1
f 65/5/1 56/5/1 55/5/1
f 65/1/1 55/1/1 64/1/1
f 66/1/1 57/1/1 56/1/1
f 66/5/1 56/5/1 65/5/1
f 67/5/1 58/5/1 57/5/1
f 67/1/1 57/1/1 66/1/1
f 68/1/1 59/1/1 58/1/1
f 68/5/1 58/5/1 67/5/1
f 69/5/1 60/5/1 59/5/1
f 69/1/1 59/1/1 68/1/1
f 70/5/1 60/5/1 69/5/1
f 83/4/1 72/4/1 71/4/1
f 84/5/1 73/5/1 72/5/1
f 84/4/1 72/4/1 83/4/1
f 85/3/1 74/3/1 73/3/1
f 85/5/1 73/5/1 84/5/1
f 86/4/1 75/4/1 74/4/1
f 86/3/1 74/3/1 85/3/1
f 87/3/1 76/3/1 75/3/1
f 87/4/1 75/4/1 86/4/1
f 88/3/1 76/3/1 87/3/1
f 89/4/1 77/4/1 76/4/1
f 89/3/1 76/3/1 88/3/1
f 90/1/1 78/1/1 77/1/1
f 90/4/1 77/4/1 89/4/1
f 91/4/1 79/4/1 78/4/1
f 91/1/1 78/1/1 90/1/1
f 92/5/1 80/5/1 79/5/1
f 92/4/1 79/4/1 91/4/1
f 93/3/1 81/3/1 80/3/1
f 93/5/1 80/5/1 92/5/1
f 94/4/1 82/4/1 81/4/1
f 94/3/1 81/3/1 93/3/1
f 95/4/1 82/4/1 94/4/1
f 96/6/2 97/6/2 98/6/2
f 98/6/2 97/6/2 99/6/2
f 100/4/2 101/4/2 113/4/2
f 101/5/2 102/5/2 114/5/2
f 113/4/2 101/4/2 114/4/2
f 102/3/2 103/3/2 115/3/2
f 114/5/2 102/5/2 115/5/2
f 103/4/2 104/4/2 116/4/2
f 115/3/2 103/3/2 116/3/2
f 104/3/2 105/3/2 117/3/2
f 116/4/2 104/4/2 117/4/2
f 105/4/2 106/4/2 118/4/2
f 117/3/2 105/3/2 118/3/2
f 106/1/2 107/1/2 119/1/2
f 118/4/2 106/4/2 119/4/2
f 107/4/2 108/4/2 120/4/2
f 119/1/2 107/1/2 120/1/2
f 108/5/2 109/5/2 121/5/2
f 120/4/2 108/4/2 121/4/2
f 109/3/2 110/3/2 122/3/2
f 121/5/2 109/5/2 122/5/2
f 110/4/2 111/4/2 123/4/2
f 122/3/2 110/3/2 123/3/2
f 123/4/2 111/4/2 124/4/2
f 121/5/2 122/5/2 126/5/2
f 124/5/2 125/5/2 126/5/2
f 123/5/2 124/5/2 126/5/2
f 122/5/2 123/5/2 126/5/2
f 112/5/2 113/5/2 126/5/2
f 120/5/2 121/5/2 126/5/2
f 119/5/2 120/5/2 126/5/2
f 118/5/2 119/5/2 126/5/2
f 117/5/2 118/5/2 126/5/2
f 116/5/2 117/5/2 126/5/2
f 115/5/2 116/5/2 126/5/2
f 114/5/2 115/5/2 126/5/2
f 113/5/2 114/5/2 126/5/2
f 126/5/2 125/5/2 127/5/2
f 112/5/2 126/5/2 128/5/2
f 128/5/2 126/5/2 129/5/2
f 129/5/2 126/5/2 130/5/2
f 130/5/2 126/5/2 131/5/2
f 126/1/2 127/1/2 132/1/2
f 131/5/2 126/5/2 132/5/2
f 132/1/2 127/1/2 133/1/2
f 129/1/2 130/1/2 134/1/2
f 130/5/2 131/5/2 135/5/2
f 134/1/2 130/1/2 135/1/2
f 135/5/2 131/5/2 136/5/2
f 131/1/2 132/1/2 137/1/2
f 136/5/2 131/5/2 137/5/2
f 137/1/2 132/1/2 138/1/2
f 135/5/2 136/5/2 139/5/2
f 136/1/2 137/1/2 140/1/2
f 139/5/2 136/5/2 140/5/2
f 140/1/2 137/1/2 141/1/2
f 145/5/3 143/5/3 142/5/3
f 145/1/3 144/1/3 143/1/3
f 146/1/3 144/1/3 145/1/3
f 147/5/3 145/5/3 142/5/3
f 147/5/3 146/5/3 145/5/3
f 148/5/3 146/5/3 147/5/3
f 153/1/3 150/1/3 149/1/3
f 154/4/3 152/4/3 151/4/3
f 155/4/3 152/4/3 154/4/3
f 156/1/3 150/1/3 153/1/3
f 157/1/3 150/1/3 156/1/3
f 160/1/3 159/1/3 158/1/3
f 161/1/3 159/1/3 160/1/3
f 162/5/3 161/5/3 160/5/3
f 163/5/3 161/5/3 162/5/3
f 166/6/3 165/6/3 164/6/3
f 167/6/3 165/6/3 166/6/3
f 170/6/3 169/6/3 168/6/3
f 171/6/3 169/6/3 170/6/3
f 172/6/4 173/6/4 174/6/4
f 174/6/4 173/6/4 175/6/4
f 176/5/4 177/5/4 178/5/4
f 178/5/4 177/5/4 179/5/4
f 178/1/4 179/1/4 180/1/4
f 180/1/4 179/1/4 181/1/4
f 184/4/4 185/4/4 186/4/4
f 186/4/4 185/4/4 187/4/4
f 182/1/4 183/1/4 188/1/4
f 188/1/4 183/1/4 189/1/4
f 190/5/4 191/5/4 193/5/4
f 191/1/4 192/1/4 194/1/4
f 193/5/4 191/5/4 194/5/4
f 194/1/4 192/1/4 195/1/4
f 198/4/5 197/4/5 196/4/5
f 199/4/5 197/4/5 198/4/5
f 200/5/5 199/5/5 198/5/5
f 201/5/5 199/5/5 200/5/5
f 202/3/5 201/3/5 200/3/5
f 203/3/5 201/3/5 202/3/5
f 204/4/5 203/4/5 202/4/5
f 205/4/5 203/4/5 204/4/5
f 206/3/5 205/3/5 204/3/5
f 207/3/5 205/3/5 206/3/5
f 208/4/5 207/4/5 206/4/5
f 209/4/5 207/4/5 208/4/5
f 210/1/5 209/1/5 208/1/5
f 211/1/5 209/1/5 210/1/5
f 212/4/5 211/4/5 210/4/5
f 213/4/5 211/4/5 212/4/5
f 214/5/5 213/5/5 212/5/5
f 215/5/5 213/5/5 214/5/5
f 216/3/5 215/3/5 214/3/5
f 217/3/5 215/3/5 216/3/5
f 218/4/5 217/4/5 216/4/5
f 219/4/5 217/4/5 218/4/5
f 222/5/5 221/5/5 220/5/5
f 223/5/5 221/5/5 222/5/5
f 224/5/5 222/5/5 220/5/5
f 225/5/5 222/5/5 224/5/5
f 226/2/5 225/2/5 224/2/5
f 227/2/5 226/2/5 224/2/5
f 228/2/5 227/2/5 224/2/5
f 229/2/5 228/2/5 224/2/5
f 230/2/5 228/2/5 229/2/5
f 231/5/5 230/5/5 229/5/5
f 232/5/5 230/5/5 231/5/5
f 233/2/5 232/2/5 231/2/5
f 234/2/5 233/2/5 231/2/5
f 235/2/5 233/2/5 234/2/5
f 236/5/5 235/5/5 234/5/5
f 237/5/5 236/5/5 234/5/5
f 238/5/5 237/5/5 234/5/5
f 239/5/5 238/5/5 234/5/5
f 241/5/5 239/5/5 234/5/5
f 241/5/5 240/5/5 239/5/5
f 242/5/5 240/5/5 241/5/5
f 245/6/5 244/6/5 243/6/5
f 247/6/5 245/6/5 243/6/5
f 247/6/5 246/6/5 245/6/5
f 248/6/5 246/6/5 247/6/5
f 249/6/6 250/6/6 251/6/6
f 249/6/6 251/6/6 253/6/6
f 251/6/6 252/6/6 253/6/6
f 253/6/6 252/6/6 254/6/6
f 255/1/6 256/1/6 258/1/6
f 256/5/6 257/5/6 259/5/6
f 258/1/6 256/1/6 259/1/6
f 259/5/6 257/5/6 260/5/6
f 261/1/6 262/1/6 263/1/6
f 263/1/6 262/1/6 264/1/6
f 265/1/6 266/1/6 267/1/6
f 267/1/6 266/1/6 268/1/6
f 268/1/6 266/1/6 269/1/6
f 270/1/6 271/1/6 273/1/6
f 271/1/6 272/1/6 273/1/6
f 273/1/6 272/1/6 274/1/6
f 275/1/6 276/1/6 278/1/6
f 276/5/6 277/5/6 279/5/6
f 278/1/6 276/1/6 279/1/6
f 278/5/6 279/5/6 280/5/6
f 279/5/6 277/5/6 281/5/6
f 280/5/6 279/5/6 281/5/6
f 280/1/6 281/1/6 282/1/6
f 281/5/6 277/5/6 283/5/6
f 282/1/6 281/1/6 283/1/6
f 282/5/6 283/5/6 284/5/6
f 283/5/6 277/5/6 285/5/6
f 284/5/6 283/5/6 285/5/6
f 284/1/6 285/1/6 286/1/6
f 285/5/6 277/5/6 287/5/6
f 286/1/6 285/1/6 287/1/6
f 286/5/6 287/5/6 288/5/6
f 287/5/6 277/5/6 289/5/6
f 288/5/6 287/5/6 289/5/6
f 288/1/6 289/1/6 290/1/6
f 289/5/6 277/5/6 291/5/6
f 290/1/6 289/1/6 291/1/6
f 291/5/6 277/5/6 292/5/6
f 290/5/6 291/5/6 293/5/6
f 291/1/6 292/1/6 294/1/6
f 293/5/6 291/5/6 294/5/6
f 294/1/6 292/1/6 295/1/6
