# MagicaVoxel @ Ephtracy

# group
o 

# material
mtllib Kitchen_cabinets-24.mtl
usemtl palette

# normals
vn -1 0 0
vn 1 0 0
vn 0 0 1
vn 0 0 -1
vn 0 -1 0
vn 0 1 0

# texcoords
vt 0.943359 0.5
vt 0.947266 0.5

# verts
v -0.3 0.8 0.8
v -0.3 0.8 -0.9
v -0.3 0.9 0.8
v -0.3 0.9 -0.9
v -0.2 0.7 0.8
v -0.2 0.7 0.7
v -0.2 0.7 -0.8
v -0.2 0.7 -0.9
v -0.2 0.8 0.8
v -0.2 0.8 0.7
v -0.2 0.8 -0.8
v -0.2 0.8 -0.9
v -0.2 0.9 0.8
v -0.2 0.9 0.7
v -0.2 0.9 -0.8
v -0.2 0.9 -0.9
v -0.2 1 0.8
v -0.2 1 0.7
v -0.2 1 -0.8
v -0.2 1 -0.9
v -0.1 3.72529e-08 1
v -0.1 3.72529e-08 -1.1
v -0.1 0.2 0.6
v -0.1 0.2 -0.7
v -0.1 0.3 0.7
v -0.1 0.3 0.6
v -0.1 0.3 -0.7
v -0.1 0.3 -0.8
v -0.1 0.6 0.7
v -0.1 0.6 0.6
v -0.1 0.6 -0.7
v -0.1 0.6 -0.8
v -0.1 0.7 0.8
v -0.1 0.7 0.7
v -0.1 0.7 0.6
v -0.1 0.7 -0.7
v -0.1 0.7 -0.8
v -0.1 0.7 -0.9
v -0.1 1 0.8
v -0.1 1 0.7
v -0.1 1 -0.8
v -0.1 1 -0.9
v -0.1 1.1 1
v -0.1 1.1 -1.1
v -0.2 0.8 0.7
v -0.2 0.8 -0.8
v -0.2 0.9 0.7
v -0.2 0.9 -0.8
v 0 3.72529e-08 1
v 0 3.72529e-08 -1.1
v 0 0.2 0.6
v 0 0.2 -0.7
v 0 0.3 0.7
v 0 0.3 0.6
v 0 0.3 -0.7
v 0 0.3 -0.8
v 0 0.6 0.7
v 0 0.6 0.6
v 0 0.6 -0.7
v 0 0.6 -0.8
v 0 0.7 0.6
v 0 0.7 -0.7
v 0 1.1 1
v 0 1.1 -1.1
v -0.1 3.72529e-08 1
v -0.1 1.1 1
v 0 3.72529e-08 1
v 0 1.1 1
v -0.3 0.8 0.8
v -0.3 0.9 0.8
v -0.2 0.7 0.8
v -0.2 0.8 0.8
v -0.2 0.9 0.8
v -0.2 1 0.8
v -0.1 0.7 0.8
v -0.1 1 0.8
v -0.2 0.7 -0.8
v -0.2 0.8 -0.8
v -0.2 0.9 -0.8
v -0.2 1 -0.8
v -0.1 0.7 -0.8
v -0.1 1 -0.8
v -0.2 0.7 0.7
v -0.2 0.8 0.7
v -0.2 0.9 0.7
v -0.2 1 0.7
v -0.1 0.7 0.7
v -0.1 1 0.7
v -0.3 0.8 -0.9
v -0.3 0.9 -0.9
v -0.2 0.7 -0.9
v -0.2 0.8 -0.9
v -0.2 0.9 -0.9
v -0.2 1 -0.9
v -0.1 0.7 -0.9
v -0.1 1 -0.9
v -0.1 3.72529e-08 -1.1
v -0.1 1.1 -1.1
v 0 3.72529e-08 -1.1
v 0 1.1 -1.1
v -0.1 3.72529e-08 1
v 0 3.72529e-08 1
v -0.1 3.72529e-08 -1.1
v 0 3.72529e-08 -1.1
v -0.2 0.7 0.8
v -0.1 0.7 0.8
v -0.2 0.7 0.7
v -0.1 0.7 0.7
v -0.2 0.7 -0.8
v -0.1 0.7 -0.8
v -0.2 0.7 -0.9
v -0.1 0.7 -0.9
v -0.3 0.8 0.8
v -0.2 0.8 0.8
v -0.2 0.8 0.7
v -0.2 0.8 -0.8
v -0.3 0.8 -0.9
v -0.2 0.8 -0.9
v -0.3 0.9 0.8
v -0.2 0.9 0.8
v -0.2 0.9 0.7
v -0.2 0.9 -0.8
v -0.3 0.9 -0.9
v -0.2 0.9 -0.9
v -0.2 1 0.8
v -0.1 1 0.8
v -0.2 1 0.7
v -0.1 1 0.7
v -0.2 1 -0.8
v -0.1 1 -0.8
v -0.2 1 -0.9
v -0.1 1 -0.9
v -0.1 1.1 1
v 0 1.1 1
v -0.1 1.1 -1.1
v 0 1.1 -1.1

# faces
f 3/1/1 2/1/1 1/1/1
f 4/1/1 2/1/1 3/1/1
f 9/1/1 6/1/1 5/1/1
f 10/1/1 6/1/1 9/1/1
f 11/1/1 8/1/1 7/1/1
f 12/1/1 8/1/1 11/1/1
f 17/1/1 14/1/1 13/1/1
f 18/1/1 14/1/1 17/1/1
f 19/1/1 16/1/1 15/1/1
f 20/1/1 16/1/1 19/1/1
f 23/1/1 22/1/1 21/1/1
f 24/1/1 22/1/1 23/1/1
f 25/1/1 23/1/1 21/1/1
f 26/2/1 24/2/1 23/2/1
f 26/1/1 23/1/1 25/1/1
f 27/1/1 22/1/1 24/1/1
f 27/2/1 24/2/1 26/2/1
f 28/1/1 22/1/1 27/1/1
f 29/2/1 26/2/1 25/2/1
f 29/1/1 25/1/1 21/1/1
f 29/2/1 28/2/1 27/2/1
f 29/2/1 27/2/1 26/2/1
f 30/2/1 28/2/1 29/2/1
f 31/2/1 28/2/1 30/2/1
f 32/1/1 22/1/1 28/1/1
f 32/2/1 28/2/1 31/2/1
f 33/1/1 29/1/1 21/1/1
f 33/1/1 30/1/1 29/1/1
f 34/1/1 30/1/1 33/1/1
f 35/2/1 31/2/1 30/2/1
f 35/1/1 30/1/1 34/1/1
f 36/1/1 32/1/1 31/1/1
f 36/2/1 31/2/1 35/2/1
f 37/1/1 22/1/1 32/1/1
f 37/1/1 32/1/1 36/1/1
f 38/1/1 22/1/1 37/1/1
f 39/1/1 33/1/1 21/1/1
f 40/1/1 36/1/1 35/1/1
f 40/1/1 35/1/1 34/1/1
f 40/1/1 37/1/1 36/1/1
f 41/1/1 37/1/1 40/1/1
f 42/1/1 22/1/1 38/1/1
f 43/1/1 41/1/1 40/1/1
f 43/1/1 42/1/1 41/1/1
f 43/1/1 39/1/1 21/1/1
f 43/1/1 40/1/1 39/1/1
f 44/1/1 22/1/1 42/1/1
f 44/1/1 42/1/1 43/1/1
f 45/1/2 46/1/2 47/1/2
f 47/1/2 46/1/2 48/1/2
f 49/1/2 50/1/2 51/1/2
f 51/1/2 50/1/2 52/1/2
f 49/1/2 51/1/2 53/1/2
f 51/2/2 52/2/2 54/2/2
f 53/1/2 51/1/2 54/1/2
f 52/1/2 50/1/2 55/1/2
f 54/2/2 52/2/2 55/2/2
f 55/1/2 50/1/2 56/1/2
f 53/2/2 54/2/2 57/2/2
f 49/1/2 53/1/2 57/1/2
f 55/2/2 56/2/2 57/2/2
f 54/2/2 55/2/2 57/2/2
f 57/2/2 56/2/2 58/2/2
f 58/2/2 56/2/2 59/2/2
f 56/1/2 50/1/2 60/1/2
f 59/2/2 56/2/2 60/2/2
f 58/2/2 59/2/2 61/2/2
f 57/1/2 58/1/2 61/1/2
f 59/1/2 60/1/2 62/1/2
f 61/2/2 59/2/2 62/2/2
f 49/1/2 57/1/2 63/1/2
f 57/1/2 61/1/2 63/1/2
f 61/1/2 62/1/2 63/1/2
f 60/1/2 50/1/2 64/1/2
f 63/1/2 62/1/2 64/1/2
f 62/1/2 60/1/2 64/1/2
f 67/1/3 66/1/3 65/1/3
f 68/1/3 66/1/3 67/1/3
f 72/1/3 70/1/3 69/1/3
f 73/1/3 70/1/3 72/1/3
f 75/1/3 72/1/3 71/1/3
f 75/1/3 74/1/3 73/1/3
f 75/1/3 73/1/3 72/1/3
f 76/1/3 74/1/3 75/1/3
f 81/1/3 78/1/3 77/1/3
f 81/1/3 80/1/3 79/1/3
f 81/1/3 79/1/3 78/1/3
f 82/1/3 80/1/3 81/1/3
f 83/1/4 84/1/4 87/1/4
f 85/1/4 86/1/4 87/1/4
f 84/1/4 85/1/4 87/1/4
f 87/1/4 86/1/4 88/1/4
f 89/1/4 90/1/4 92/1/4
f 92/1/4 90/1/4 93/1/4
f 91/1/4 92/1/4 95/1/4
f 93/1/4 94/1/4 95/1/4
f 92/1/4 93/1/4 95/1/4
f 95/1/4 94/1/4 96/1/4
f 97/1/4 98/1/4 99/1/4
f 99/1/4 98/1/4 100/1/4
f 103/1/5 102/1/5 101/1/5
f 104/1/5 102/1/5 103/1/5
f 107/1/5 106/1/5 105/1/5
f 108/1/5 106/1/5 107/1/5
f 111/1/5 110/1/5 109/1/5
f 112/1/5 110/1/5 111/1/5
f 115/1/5 114/1/5 113/1/5
f 116/1/5 115/1/5 113/1/5
f 117/1/5 116/1/5 113/1/5
f 118/1/5 116/1/5 117/1/5
f 119/1/6 120/1/6 121/1/6
f 119/1/6 121/1/6 122/1/6
f 119/1/6 122/1/6 123/1/6
f 123/1/6 122/1/6 124/1/6
f 125/1/6 126/1/6 127/1/6
f 127/1/6 126/1/6 128/1/6
f 129/1/6 130/1/6 131/1/6
f 131/1/6 130/1/6 132/1/6
f 133/1/6 134/1/6 135/1/6
f 135/1/6 134/1/6 136/1/6
