# MagicaVoxel @ Ephtracy

# group
o 

# material
mtllib Kitchen_cabinets-15.mtl
usemtl palette

# normals
vn -1 0 0
vn 1 0 0
vn 0 0 1
vn 0 0 -1
vn 0 -1 0
vn 0 1 0

# texcoords
vt 0.689453 0.5
vt 0.818359 0.5
vt 0.978516 0.5

# verts
v -0.1 -0.3 0.2
v -0.1 -0.3 -0.3
v -0.1 -0.2 0.1
v -0.1 -0.2 -0.2
v -0.1 0.3 0.1
v -0.1 0.3 -0.2
v -0.1 0.4 0.2
v -0.1 0.4 -0.3
v 0 -0.2 0.1
v 0 -0.2 -0.2
v 0 -0.1 0
v 0 -0.1 -0.1
v 0 0 0.1
v 0 0 0
v 0 0 -0.1
v 0 0 -0.2
v 0 0.1 0.1
v 0 0.1 0
v 0 0.1 -0.1
v 0 0.1 -0.2
v 0 0.2 0.1
v 0 0.2 0
v 0 0.2 -0.1
v 0 0.2 -0.2
v 0 0.3 0.1
v 0 0.3 0
v 0 0.3 -0.1
v 0 0.3 -0.2
v 0 -0.3 0.2
v 0 -0.3 -0.3
v 0 -0.2 0.1
v 0 -0.2 -0.2
v 0 0 0.1
v 0 0 -0.2
v 0 0.1 0.1
v 0 0.1 -0.2
v 0 0.2 0.1
v 0 0.2 -0.2
v 0 0.3 0.1
v 0 0.3 0
v 0 0.3 -0.1
v 0 0.3 -0.2
v 0 0.4 0.2
v 0 0.4 -0.3
v 0.1 -0.2 0.1
v 0.1 -0.2 -0.2
v 0.1 -0.1 0
v 0.1 -0.1 -0.1
v 0.1 0 0.1
v 0.1 0 0
v 0.1 0 -0.1
v 0.1 0 -0.2
v 0.1 0.1 0.1
v 0.1 0.1 0
v 0.1 0.1 -0.1
v 0.1 0.1 -0.2
v 0.1 0.2 0.1
v 0.1 0.2 0
v 0.1 0.2 -0.1
v 0.1 0.2 -0.2
v 0.1 0.3 0.1
v 0.1 0.3 0
v 0.1 0.3 -0.1
v 0.1 0.3 -0.2
v -0.1 -0.3 0.2
v -0.1 0.4 0.2
v 0 -0.3 0.2
v 0 0.4 0.2
v 0 -0.2 0.1
v 0 0 0.1
v 0 0.1 0.1
v 0 0.2 0.1
v 0 0.3 0.1
v 0.1 -0.2 0.1
v 0.1 0 0.1
v 0.1 0.1 0.1
v 0.1 0.2 0.1
v 0.1 0.3 0.1
v -0.1 -0.2 -0.2
v -0.1 0.3 -0.2
v 0 -0.2 -0.2
v 0 0 -0.2
v 0 0.1 -0.2
v 0 0.2 -0.2
v 0 0.3 -0.2
v -0.1 -0.2 0.1
v -0.1 0.3 0.1
v 0 -0.2 0.1
v 0 0 0.1
v 0 0.1 0.1
v 0 0.2 0.1
v 0 0.3 0.1
v 0 -0.2 -0.2
v 0 0 -0.2
v 0 0.1 -0.2
v 0 0.2 -0.2
v 0 0.3 -0.2
v 0.1 -0.2 -0.2
v 0.1 0 -0.2
v 0.1 0.1 -0.2
v 0.1 0.2 -0.2
v 0.1 0.3 -0.2
v -0.1 -0.3 -0.3
v -0.1 0.4 -0.3
v 0 -0.3 -0.3
v 0 0.4 -0.3
v -0.1 -0.3 0.2
v 0 -0.3 0.2
v -0.1 -0.3 -0.3
v 0 -0.3 -0.3
v 0 -0.2 0.1
v 0.1 -0.2 0.1
v 0 -0.2 -0.2
v 0.1 -0.2 -0.2
v -0.1 0.3 0.1
v 0 0.3 0.1
v 0 0.3 0
v 0 0.3 -0.1
v -0.1 0.3 -0.2
v 0 0.3 -0.2
v -0.1 -0.2 0.1
v 0 -0.2 0.1
v -0.1 -0.2 -0.2
v 0 -0.2 -0.2
v 0 0.3 0.1
v 0.1 0.3 0.1
v 0 0.3 0
v 0.1 0.3 0
v 0 0.3 -0.1
v 0.1 0.3 -0.1
v 0 0.3 -0.2
v 0.1 0.3 -0.2
v -0.1 0.4 0.2
v 0 0.4 0.2
v -0.1 0.4 -0.3
v 0 0.4 -0.3

# faces
f 3/3/1 2/3/1 1/3/1
f 4/3/1 2/3/1 3/3/1
f 5/3/1 3/3/1 1/3/1
f 6/3/1 2/3/1 4/3/1
f 7/3/1 5/3/1 1/3/1
f 7/3/1 6/3/1 5/3/1
f 8/3/1 2/3/1 6/3/1
f 8/3/1 6/3/1 7/3/1
f 11/1/1 10/1/1 9/1/1
f 12/1/1 10/1/1 11/1/1
f 13/1/1 11/1/1 9/1/1
f 14/2/1 12/2/1 11/2/1
f 14/1/1 11/1/1 13/1/1
f 15/1/1 10/1/1 12/1/1
f 15/2/1 12/2/1 14/2/1
f 16/1/1 10/1/1 15/1/1
f 17/2/1 14/2/1 13/2/1
f 18/1/1 15/1/1 14/1/1
f 18/2/1 14/2/1 17/2/1
f 19/2/1 16/2/1 15/2/1
f 19/1/1 15/1/1 18/1/1
f 20/2/1 16/2/1 19/2/1
f 21/1/1 18/1/1 17/1/1
f 22/2/1 19/2/1 18/2/1
f 22/1/1 18/1/1 21/1/1
f 23/1/1 20/1/1 19/1/1
f 23/2/1 19/2/1 22/2/1
f 24/1/1 20/1/1 23/1/1
f 25/2/1 22/2/1 21/2/1
f 26/1/1 23/1/1 22/1/1
f 26/2/1 22/2/1 25/2/1
f 27/2/1 24/2/1 23/2/1
f 27/1/1 23/1/1 26/1/1
f 28/2/1 24/2/1 27/2/1
f 29/3/2 30/3/2 31/3/2
f 31/3/2 30/3/2 32/3/2
f 29/3/2 31/3/2 33/3/2
f 32/3/2 30/3/2 34/3/2
f 29/3/2 33/3/2 35/3/2
f 34/3/2 30/3/2 36/3/2
f 29/3/2 35/3/2 37/3/2
f 36/3/2 30/3/2 38/3/2
f 29/3/2 37/3/2 39/3/2
f 38/3/2 30/3/2 42/3/2
f 40/3/2 41/3/2 43/3/2
f 41/3/2 42/3/2 43/3/2
f 29/3/2 39/3/2 43/3/2
f 39/3/2 40/3/2 43/3/2
f 42/3/2 30/3/2 44/3/2
f 43/3/2 42/3/2 44/3/2
f 45/1/2 46/1/2 47/1/2
f 47/1/2 46/1/2 48/1/2
f 45/1/2 47/1/2 49/1/2
f 47/2/2 48/2/2 50/2/2
f 49/1/2 47/1/2 50/1/2
f 48/1/2 46/1/2 51/1/2
f 50/2/2 48/2/2 51/2/2
f 51/1/2 46/1/2 52/1/2
f 49/2/2 50/2/2 53/2/2
f 50/1/2 51/1/2 54/1/2
f 53/2/2 50/2/2 54/2/2
f 51/2/2 52/2/2 55/2/2
f 54/1/2 51/1/2 55/1/2
f 55/2/2 52/2/2 56/2/2
f 53/1/2 54/1/2 57/1/2
f 54/2/2 55/2/2 58/2/2
f 57/1/2 54/1/2 58/1/2
f 55/1/2 56/1/2 59/1/2
f 58/2/2 55/2/2 59/2/2
f 59/1/2 56/1/2 60/1/2
f 57/2/2 58/2/2 61/2/2
f 58/1/2 59/1/2 62/1/2
f 61/2/2 58/2/2 62/2/2
f 59/2/2 60/2/2 63/2/2
f 62/1/2 59/1/2 63/1/2
f 63/2/2 60/2/2 64/2/2
f 67/3/3 66/3/3 65/3/3
f 68/3/3 66/3/3 67/3/3
f 74/1/3 70/1/3 69/1/3
f 75/2/3 71/2/3 70/2/3
f 75/1/3 70/1/3 74/1/3
f 76/1/3 72/1/3 71/1/3
f 76/2/3 71/2/3 75/2/3
f 77/2/3 73/2/3 72/2/3
f 77/1/3 72/1/3 76/1/3
f 78/2/3 73/2/3 77/2/3
f 81/3/3 80/3/3 79/3/3
f 82/3/3 80/3/3 81/3/3
f 83/3/3 80/3/3 82/3/3
f 84/3/3 80/3/3 83/3/3
f 85/3/3 80/3/3 84/3/3
f 86/3/4 87/3/4 88/3/4
f 88/3/4 87/3/4 89/3/4
f 89/3/4 87/3/4 90/3/4
f 90/3/4 87/3/4 91/3/4
f 91/3/4 87/3/4 92/3/4
f 93/1/4 94/1/4 98/1/4
f 94/2/4 95/2/4 99/2/4
f 98/1/4 94/1/4 99/1/4
f 95/1/4 96/1/4 100/1/4
f 99/2/4 95/2/4 100/2/4
f 96/2/4 97/2/4 101/2/4
f 100/1/4 96/1/4 101/1/4
f 101/2/4 97/2/4 102/2/4
f 103/3/4 104/3/4 105/3/4
f 105/3/4 104/3/4 106/3/4
f 109/3/5 108/3/5 107/3/5
f 110/3/5 108/3/5 109/3/5
f 113/1/5 112/1/5 111/1/5
f 114/1/5 112/1/5 113/1/5
f 117/3/5 116/3/5 115/3/5
f 118/3/5 117/3/5 115/3/5
f 119/3/5 118/3/5 115/3/5
f 120/3/5 118/3/5 119/3/5
f 121/3/6 122/3/6 123/3/6
f 123/3/6 122/3/6 124/3/6
f 125/2/6 126/2/6 127/2/6
f 127/2/6 126/2/6 128/2/6
f 127/1/6 128/1/6 129/1/6
f 129/1/6 128/1/6 130/1/6
f 129/2/6 130/2/6 131/2/6
f 131/2/6 130/2/6 132/2/6
f 133/3/6 134/3/6 135/3/6
f 135/3/6 134/3/6 136/3/6
