# MagicaVoxel @ Ephtracy

# group
o 

# material
mtllib Kitchen_cabinets-14.mtl
usemtl palette

# normals
vn -1 0 0
vn 1 0 0
vn 0 0 1
vn 0 0 -1
vn 0 -1 0
vn 0 1 0

# texcoords
vt 0.689453 0.5
vt 0.693359 0.5
vt 0.697266 0.5
vt 0.876953 0.5
vt 0.978516 0.5

# verts
v -0.1 -0.3 0.2
v -0.1 -0.3 -0.3
v -0.1 -0.2 0.1
v -0.1 -0.2 -0.2
v -0.1 0.3 0.1
v -0.1 0.3 -0.2
v -0.1 0.4 0.2
v -0.1 0.4 -0.3
v 0 -0.2 0.1
v 0 -0.2 -0.1
v 0 -0.2 -0.2
v 0 -0.1 0
v 0 -0.1 -0.1
v 0 0 0.1
v 0 0 0
v 0 0 -0.1
v 0 0.1 0.1
v 0 0.1 0
v 0 0.1 -0.1
v 0 0.1 -0.2
v 0 0.2 0.1
v 0 0.2 0
v 0 0.3 0.1
v 0 0.3 0
v 0 0.3 -0.1
v 0 0.3 -0.2
v 0 -0.3 0.2
v 0 -0.3 -0.3
v 0 -0.2 0.1
v 0 -0.2 -0.1
v 0 -0.2 -0.2
v 0 0 0.1
v 0 0.1 0.1
v 0 0.1 -0.2
v 0 0.2 0.1
v 0 0.3 0.1
v 0 0.3 0
v 0 0.3 -0.1
v 0 0.3 -0.2
v 0 0.4 0.2
v 0 0.4 -0.3
v 0.1 -0.2 0.1
v 0.1 -0.2 -0.1
v 0.1 -0.2 -0.2
v 0.1 -0.1 0
v 0.1 -0.1 -0.1
v 0.1 0 0.1
v 0.1 0 0
v 0.1 0 -0.1
v 0.1 0.1 0.1
v 0.1 0.1 0
v 0.1 0.1 -0.1
v 0.1 0.1 -0.2
v 0.1 0.2 0.1
v 0.1 0.2 0
v 0.1 0.3 0.1
v 0.1 0.3 0
v 0.1 0.3 -0.1
v 0.1 0.3 -0.2
v -0.1 -0.3 0.2
v -0.1 0.4 0.2
v 0 -0.3 0.2
v 0 0.4 0.2
v 0 -0.2 0.1
v 0 0 0.1
v 0 0.1 0.1
v 0 0.2 0.1
v 0 0.3 0.1
v 0.1 -0.2 0.1
v 0.1 0 0.1
v 0.1 0.1 0.1
v 0.1 0.2 0.1
v 0.1 0.3 0.1
v -0.1 -0.2 -0.2
v -0.1 0.3 -0.2
v 0 -0.2 -0.2
v 0 0.1 -0.2
v 0 0.3 -0.2
v -0.1 -0.2 0.1
v -0.1 0.3 0.1
v 0 -0.2 0.1
v 0 0 0.1
v 0 0.1 0.1
v 0 0.2 0.1
v 0 0.3 0.1
v 0 -0.2 -0.2
v 0 0.1 -0.2
v 0 0.3 -0.2
v 0.1 -0.2 -0.2
v 0.1 0.1 -0.2
v 0.1 0.3 -0.2
v -0.1 -0.3 -0.3
v -0.1 0.4 -0.3
v 0 -0.3 -0.3
v 0 0.4 -0.3
v -0.1 -0.3 0.2
v 0 -0.3 0.2
v -0.1 -0.3 -0.3
v 0 -0.3 -0.3
v 0 -0.2 0.1
v 0.1 -0.2 0.1
v 0 -0.2 -0.1
v 0.1 -0.2 -0.1
v 0 -0.2 -0.2
v 0.1 -0.2 -0.2
v -0.1 0.3 0.1
v 0 0.3 0.1
v 0 0.3 0
v 0 0.3 -0.1
v -0.1 0.3 -0.2
v 0 0.3 -0.2
v -0.1 -0.2 0.1
v 0 -0.2 0.1
v 0 -0.2 -0.1
v -0.1 -0.2 -0.2
v 0 -0.2 -0.2
v 0 0.3 0.1
v 0.1 0.3 0.1
v 0 0.3 0
v 0.1 0.3 0
v 0 0.3 -0.1
v 0.1 0.3 -0.1
v 0 0.3 -0.2
v 0.1 0.3 -0.2
v -0.1 0.4 0.2
v 0 0.4 0.2
v -0.1 0.4 -0.3
v 0 0.4 -0.3

# faces
f 3/5/1 2/5/1 1/5/1
f 4/5/1 2/5/1 3/5/1
f 5/5/1 3/5/1 1/5/1
f 6/5/1 2/5/1 4/5/1
f 7/5/1 5/5/1 1/5/1
f 7/5/1 6/5/1 5/5/1
f 8/5/1 2/5/1 6/5/1
f 8/5/1 6/5/1 7/5/1
f 12/3/1 10/3/1 9/3/1
f 13/1/1 11/1/1 10/1/1
f 13/3/1 10/3/1 12/3/1
f 14/3/1 12/3/1 9/3/1
f 15/1/1 13/1/1 12/1/1
f 15/3/1 12/3/1 14/3/1
f 16/1/1 11/1/1 13/1/1
f 16/1/1 13/1/1 15/1/1
f 17/2/1 15/2/1 14/2/1
f 18/4/1 16/4/1 15/4/1
f 18/2/1 15/2/1 17/2/1
f 19/1/1 11/1/1 16/1/1
f 19/4/1 16/4/1 18/4/1
f 20/1/1 11/1/1 19/1/1
f 21/1/1 18/1/1 17/1/1
f 21/1/1 19/1/1 18/1/1
f 22/1/1 19/1/1 21/1/1
f 23/2/1 22/2/1 21/2/1
f 24/1/1 19/1/1 22/1/1
f 24/2/1 22/2/1 23/2/1
f 25/4/1 20/4/1 19/4/1
f 25/1/1 19/1/1 24/1/1
f 26/4/1 20/4/1 25/4/1
f 27/5/2 28/5/2 29/5/2
f 29/5/2 28/5/2 30/5/2
f 30/5/2 28/5/2 31/5/2
f 27/5/2 29/5/2 32/5/2
f 27/5/2 32/5/2 33/5/2
f 31/5/2 28/5/2 34/5/2
f 27/5/2 33/5/2 35/5/2
f 27/5/2 35/5/2 36/5/2
f 34/5/2 28/5/2 39/5/2
f 37/5/2 38/5/2 40/5/2
f 38/5/2 39/5/2 40/5/2
f 27/5/2 36/5/2 40/5/2
f 36/5/2 37/5/2 40/5/2
f 39/5/2 28/5/2 41/5/2
f 40/5/2 39/5/2 41/5/2
f 42/3/2 43/3/2 45/3/2
f 43/1/2 44/1/2 46/1/2
f 45/3/2 43/3/2 46/3/2
f 42/3/2 45/3/2 47/3/2
f 45/1/2 46/1/2 48/1/2
f 47/3/2 45/3/2 48/3/2
f 46/1/2 44/1/2 49/1/2
f 48/1/2 46/1/2 49/1/2
f 47/2/2 48/2/2 50/2/2
f 48/4/2 49/4/2 51/4/2
f 50/2/2 48/2/2 51/2/2
f 49/1/2 44/1/2 52/1/2
f 51/4/2 49/4/2 52/4/2
f 52/1/2 44/1/2 53/1/2
f 50/1/2 51/1/2 54/1/2
f 51/1/2 52/1/2 54/1/2
f 54/1/2 52/1/2 55/1/2
f 54/2/2 55/2/2 56/2/2
f 55/1/2 52/1/2 57/1/2
f 56/2/2 55/2/2 57/2/2
f 52/4/2 53/4/2 58/4/2
f 57/1/2 52/1/2 58/1/2
f 58/4/2 53/4/2 59/4/2
f 62/5/3 61/5/3 60/5/3
f 63/5/3 61/5/3 62/5/3
f 69/3/3 65/3/3 64/3/3
f 70/2/3 66/2/3 65/2/3
f 70/3/3 65/3/3 69/3/3
f 71/1/3 67/1/3 66/1/3
f 71/2/3 66/2/3 70/2/3
f 72/2/3 68/2/3 67/2/3
f 72/1/3 67/1/3 71/1/3
f 73/2/3 68/2/3 72/2/3
f 76/5/3 75/5/3 74/5/3
f 77/5/3 75/5/3 76/5/3
f 78/5/3 75/5/3 77/5/3
f 79/5/4 80/5/4 81/5/4
f 81/5/4 80/5/4 82/5/4
f 82/5/4 80/5/4 83/5/4
f 83/5/4 80/5/4 84/5/4
f 84/5/4 80/5/4 85/5/4
f 86/1/4 87/1/4 89/1/4
f 87/4/4 88/4/4 90/4/4
f 89/1/4 87/1/4 90/1/4
f 90/4/4 88/4/4 91/4/4
f 92/5/4 93/5/4 94/5/4
f 94/5/4 93/5/4 95/5/4
f 98/5/5 97/5/5 96/5/5
f 99/5/5 97/5/5 98/5/5
f 102/3/5 101/3/5 100/3/5
f 103/3/5 101/3/5 102/3/5
f 104/1/5 103/1/5 102/1/5
f 105/1/5 103/1/5 104/1/5
f 108/5/5 107/5/5 106/5/5
f 109/5/5 108/5/5 106/5/5
f 110/5/5 109/5/5 106/5/5
f 111/5/5 109/5/5 110/5/5
f 112/5/6 113/5/6 114/5/6
f 112/5/6 114/5/6 115/5/6
f 115/5/6 114/5/6 116/5/6
f 117/2/6 118/2/6 119/2/6
f 119/2/6 118/2/6 120/2/6
f 119/1/6 120/1/6 121/1/6
f 121/1/6 120/1/6 122/1/6
f 121/4/6 122/4/6 123/4/6
f 123/4/6 122/4/6 124/4/6
f 125/5/6 126/5/6 127/5/6
f 127/5/6 126/5/6 128/5/6
